  0
SECTION
  2
BLOCKS
  0
ENDSEC
  0
SECTION
  2
ENTITIES
  0
LINE
  8
0
 10
590.314
 20
0.00494385
 11
590.628
 21
0.0197449
  0
LINE
  8
0
 10
590.628
 20
0.0197449
 11
590.941
 21
0.0443878
  0
LINE
  8
0
 10
590.941
 20
0.0443878
 11
591.253
 21
0.0788574
  0
LINE
  8
0
 10
591.253
 20
0.0788574
 11
591.564
 21
0.123123
  0
LINE
  8
0
 10
591.564
 20
0.123123
 11
591.874
 21
0.177139
  0
LINE
  8
0
 10
591.874
 20
0.177139
 11
592.181
 21
0.240845
  0
LINE
  8
0
 10
592.181
 20
0.240845
 11
592.487
 21
0.314178
  0
LINE
  8
0
 10
592.487
 20
0.314178
 11
592.79
 21
0.397064
  0
LINE
  8
0
 10
592.79
 20
0.397064
 11
593.09
 21
0.489441
  0
LINE
  8
0
 10
593.09
 20
0.489441
 11
593.387
 21
0.591202
  0
LINE
  8
0
 10
593.387
 20
0.591202
 11
593.681
 21
0.70224
  0
LINE
  8
0
 10
593.681
 20
0.70224
 11
593.971
 21
0.822464
  0
LINE
  8
0
 10
593.971
 20
0.822464
 11
594.258
 21
0.951736
  0
LINE
  8
0
 10
594.258
 20
0.951736
 11
594.54
 21
1.08994
  0
LINE
  8
0
 10
594.54
 20
1.08994
 11
594.818
 21
1.23694
  0
LINE
  8
0
 10
594.818
 20
1.23694
 11
595.09
 21
1.39259
  0
LINE
  8
0
 10
595.09
 20
1.39259
 11
595.358
 21
1.55673
  0
LINE
  8
0
 10
595.358
 20
1.55673
 11
595.621
 21
1.7292
  0
LINE
  8
0
 10
595.621
 20
1.7292
 11
595.878
 21
1.90984
  0
LINE
  8
0
 10
595.878
 20
1.90984
 11
596.129
 21
2.09846
  0
LINE
  8
0
 10
596.129
 20
2.09846
 11
596.374
 21
2.29488
  0
LINE
  8
0
 10
596.374
 20
2.29488
 11
596.613
 21
2.4989
  0
LINE
  8
0
 10
596.613
 20
2.4989
 11
596.845
 21
2.71033
  0
LINE
  8
0
 10
596.845
 20
2.71033
 11
597.071
 21
2.92894
  0
LINE
  8
0
 10
597.071
 20
2.92894
 11
597.29
 21
3.15454
  0
LINE
  8
0
 10
597.29
 20
3.15454
 11
597.501
 21
3.38689
  0
LINE
  8
0
 10
597.501
 20
3.38689
 11
597.705
 21
3.62576
  0
LINE
  8
0
 10
597.705
 20
3.62576
 11
597.902
 21
3.87094
  0
LINE
  8
0
 10
597.902
 20
3.87094
 11
598.09
 21
4.12216
  0
LINE
  8
0
 10
598.09
 20
4.12216
 11
598.271
 21
4.37918
  0
LINE
  8
0
 10
598.271
 20
4.37918
 11
598.443
 21
4.64174
  0
LINE
  8
0
 10
598.443
 20
4.64174
 11
598.607
 21
4.90959
  0
LINE
  8
0
 10
598.607
 20
4.90959
 11
598.763
 21
5.18246
  0
LINE
  8
0
 10
598.763
 20
5.18246
 11
598.91
 21
5.4601
  0
LINE
  8
0
 10
598.91
 20
5.4601
 11
599.048
 21
5.74222
  0
LINE
  8
0
 10
599.048
 20
5.74222
 11
599.178
 21
6.02853
  0
LINE
  8
0
 10
599.178
 20
6.02853
 11
599.298
 21
6.31876
  0
LINE
  8
0
 10
599.298
 20
6.31876
 11
599.409
 21
6.61263
  0
LINE
  8
0
 10
599.409
 20
6.61263
 11
599.511
 21
6.90984
  0
LINE
  8
0
 10
599.511
 20
6.90984
 11
599.603
 21
7.2101
  0
LINE
  8
0
 10
599.603
 20
7.2101
 11
599.686
 21
7.51311
  0
LINE
  8
0
 10
599.686
 20
7.51311
 11
599.759
 21
7.81857
  0
LINE
  8
0
 10
599.759
 20
7.81857
 11
599.823
 21
8.12619
  0
LINE
  8
0
 10
599.823
 20
8.12619
 11
599.877
 21
8.43567
  0
LINE
  8
0
 10
599.877
 20
8.43567
 11
599.921
 21
8.74667
  0
LINE
  8
0
 10
599.921
 20
8.74667
 11
599.956
 21
9.05893
  0
LINE
  8
0
 10
599.956
 20
9.05893
 11
599.98
 21
9.3721
  0
LINE
  8
0
 10
599.98
 20
9.3721
 11
599.995
 21
9.6859
  0
LINE
  8
0
 10
599.995
 20
9.6859
 11
600
 21
10
  0
LINE
  8
0
 10
600
 20
10
 11
600
 21
80
  0
LINE
  8
0
 10
600
 20
80
 11
427
 21
80
  0
LINE
  8
0
 10
427
 20
80
 11
426.78
 21
80.0035
  0
LINE
  8
0
 10
426.78
 20
80.0035
 11
426.56
 21
80.0138
  0
LINE
  8
0
 10
426.56
 20
80.0138
 11
426.341
 21
80.0311
  0
LINE
  8
0
 10
426.341
 20
80.0311
 11
426.123
 21
80.0552
  0
LINE
  8
0
 10
426.123
 20
80.0552
 11
425.905
 21
80.0862
  0
LINE
  8
0
 10
425.905
 20
80.0862
 11
425.688
 21
80.124
  0
LINE
  8
0
 10
425.688
 20
80.124
 11
425.473
 21
80.1686
  0
LINE
  8
0
 10
425.473
 20
80.1686
 11
425.259
 21
80.2199
  0
LINE
  8
0
 10
425.259
 20
80.2199
 11
425.047
 21
80.278
  0
LINE
  8
0
 10
425.047
 20
80.278
 11
424.837
 21
80.3426
  0
LINE
  8
0
 10
424.837
 20
80.3426
 11
424.629
 21
80.4138
  0
LINE
  8
0
 10
424.629
 20
80.4138
 11
424.423
 21
80.4916
  0
LINE
  8
0
 10
424.423
 20
80.4916
 11
424.22
 21
80.5757
  0
LINE
  8
0
 10
424.22
 20
80.5757
 11
424.02
 21
80.6662
  0
LINE
  8
0
 10
424.02
 20
80.6662
 11
423.822
 21
80.763
  0
LINE
  8
0
 10
423.822
 20
80.763
 11
423.628
 21
80.8659
  0
LINE
  8
0
 10
423.628
 20
80.8659
 11
423.437
 21
80.9748
  0
LINE
  8
0
 10
423.437
 20
80.9748
 11
423.249
 21
81.0897
  0
LINE
  8
0
 10
423.249
 20
81.0897
 11
423.065
 21
81.2104
  0
LINE
  8
0
 10
423.065
 20
81.2104
 11
422.886
 21
81.3369
  0
LINE
  8
0
 10
422.886
 20
81.3369
 11
422.71
 21
81.4689
  0
LINE
  8
0
 10
422.71
 20
81.4689
 11
422.538
 21
81.6064
  0
LINE
  8
0
 10
422.538
 20
81.6064
 11
422.371
 21
81.7492
  0
LINE
  8
0
 10
422.371
 20
81.7492
 11
422.208
 21
81.8972
  0
LINE
  8
0
 10
422.208
 20
81.8972
 11
422.05
 21
82.0503
  0
LINE
  8
0
 10
422.05
 20
82.0503
 11
421.897
 21
82.2082
  0
LINE
  8
0
 10
421.897
 20
82.2082
 11
421.749
 21
82.3708
  0
LINE
  8
0
 10
421.749
 20
82.3708
 11
421.606
 21
82.538
  0
LINE
  8
0
 10
421.606
 20
82.538
 11
421.469
 21
82.7097
  0
LINE
  8
0
 10
421.469
 20
82.7097
 11
421.337
 21
82.8855
  0
LINE
  8
0
 10
421.337
 20
82.8855
 11
421.21
 21
83.0654
  0
LINE
  8
0
 10
421.21
 20
83.0654
 11
421.09
 21
83.2492
  0
LINE
  8
0
 10
421.09
 20
83.2492
 11
420.975
 21
83.4367
  0
LINE
  8
0
 10
420.975
 20
83.4367
 11
420.866
 21
83.6277
  0
LINE
  8
0
 10
420.866
 20
83.6277
 11
420.763
 21
83.8221
  0
LINE
  8
0
 10
420.763
 20
83.8221
 11
420.666
 21
84.0195
  0
LINE
  8
0
 10
420.666
 20
84.0195
 11
420.576
 21
84.22
  0
LINE
  8
0
 10
420.576
 20
84.22
 11
420.492
 21
84.4231
  0
LINE
  8
0
 10
420.492
 20
84.4231
 11
420.414
 21
84.6288
  0
LINE
  8
0
 10
420.414
 20
84.6288
 11
420.343
 21
84.8369
  0
LINE
  8
0
 10
420.343
 20
84.8369
 11
420.278
 21
85.0471
  0
LINE
  8
0
 10
420.278
 20
85.0471
 11
420.22
 21
85.2592
  0
LINE
  8
0
 10
420.22
 20
85.2592
 11
420.169
 21
85.473
  0
LINE
  8
0
 10
420.169
 20
85.473
 11
420.124
 21
85.6883
  0
LINE
  8
0
 10
420.124
 20
85.6883
 11
420.086
 21
85.905
  0
LINE
  8
0
 10
420.086
 20
85.905
 11
420.055
 21
86.1227
  0
LINE
  8
0
 10
420.055
 20
86.1227
 11
420.031
 21
86.3412
  0
LINE
  8
0
 10
420.031
 20
86.3412
 11
420.014
 21
86.5605
  0
LINE
  8
0
 10
420.014
 20
86.5605
 11
420.003
 21
86.7801
  0
LINE
  8
0
 10
420.003
 20
86.7801
 11
420
 21
87
  0
LINE
  8
0
 10
420
 20
87
 11
420
 21
130
  0
LINE
  8
0
 10
420
 20
130
 11
419.99
 21
130.628
  0
LINE
  8
0
 10
419.99
 20
130.628
 11
419.961
 21
131.256
  0
LINE
  8
0
 10
419.961
 20
131.256
 11
419.911
 21
131.882
  0
LINE
  8
0
 10
419.911
 20
131.882
 11
419.842
 21
132.507
  0
LINE
  8
0
 10
419.842
 20
132.507
 11
419.754
 21
133.129
  0
LINE
  8
0
 10
419.754
 20
133.129
 11
419.646
 21
133.748
  0
LINE
  8
0
 10
419.646
 20
133.748
 11
419.518
 21
134.363
  0
LINE
  8
0
 10
419.518
 20
134.363
 11
419.372
 21
134.974
  0
LINE
  8
0
 10
419.372
 20
134.974
 11
419.206
 21
135.58
  0
LINE
  8
0
 10
419.206
 20
135.58
 11
419.021
 21
136.18
  0
LINE
  8
0
 10
419.021
 20
136.18
 11
418.818
 21
136.775
  0
LINE
  8
0
 10
418.818
 20
136.775
 11
418.596
 21
137.362
  0
LINE
  8
0
 10
418.596
 20
137.362
 11
418.355
 21
137.943
  0
LINE
  8
0
 10
418.355
 20
137.943
 11
418.097
 21
138.516
  0
LINE
  8
0
 10
418.097
 20
138.516
 11
417.82
 21
139.08
  0
LINE
  8
0
 10
417.82
 20
139.08
 11
417.526
 21
139.635
  0
LINE
  8
0
 10
417.526
 20
139.635
 11
417.215
 21
140.181
  0
LINE
  8
0
 10
417.215
 20
140.181
 11
416.887
 21
140.717
  0
LINE
  8
0
 10
416.887
 20
140.717
 11
416.542
 21
141.242
  0
LINE
  8
0
 10
416.542
 20
141.242
 11
416.18
 21
141.756
  0
LINE
  8
0
 10
416.18
 20
141.756
 11
415.803
 21
142.258
  0
LINE
  8
0
 10
415.803
 20
142.258
 11
415.41
 21
142.748
  0
LINE
  8
0
 10
415.41
 20
142.748
 11
415.002
 21
143.226
  0
LINE
  8
0
 10
415.002
 20
143.226
 11
414.579
 21
143.691
  0
LINE
  8
0
 10
414.579
 20
143.691
 11
414.142
 21
144.142
  0
LINE
  8
0
 10
414.142
 20
144.142
 11
413.691
 21
144.579
  0
LINE
  8
0
 10
413.691
 20
144.579
 11
413.226
 21
145.002
  0
LINE
  8
0
 10
413.226
 20
145.002
 11
412.748
 21
145.41
  0
LINE
  8
0
 10
412.748
 20
145.41
 11
412.258
 21
145.803
  0
LINE
  8
0
 10
412.258
 20
145.803
 11
411.756
 21
146.18
  0
LINE
  8
0
 10
411.756
 20
146.18
 11
411.242
 21
146.542
  0
LINE
  8
0
 10
411.242
 20
146.542
 11
410.717
 21
146.887
  0
LINE
  8
0
 10
410.717
 20
146.887
 11
410.181
 21
147.215
  0
LINE
  8
0
 10
410.181
 20
147.215
 11
409.635
 21
147.526
  0
LINE
  8
0
 10
409.635
 20
147.526
 11
409.08
 21
147.82
  0
LINE
  8
0
 10
409.08
 20
147.82
 11
408.516
 21
148.097
  0
LINE
  8
0
 10
408.516
 20
148.097
 11
407.943
 21
148.355
  0
LINE
  8
0
 10
407.943
 20
148.355
 11
407.362
 21
148.596
  0
LINE
  8
0
 10
407.362
 20
148.596
 11
406.775
 21
148.818
  0
LINE
  8
0
 10
406.775
 20
148.818
 11
406.18
 21
149.021
  0
LINE
  8
0
 10
406.18
 20
149.021
 11
405.58
 21
149.206
  0
LINE
  8
0
 10
405.58
 20
149.206
 11
404.974
 21
149.372
  0
LINE
  8
0
 10
404.974
 20
149.372
 11
404.363
 21
149.518
  0
LINE
  8
0
 10
404.363
 20
149.518
 11
403.748
 21
149.646
  0
LINE
  8
0
 10
403.748
 20
149.646
 11
403.129
 21
149.754
  0
LINE
  8
0
 10
403.129
 20
149.754
 11
402.507
 21
149.842
  0
LINE
  8
0
 10
402.507
 20
149.842
 11
401.882
 21
149.911
  0
LINE
  8
0
 10
401.882
 20
149.911
 11
401.256
 21
149.961
  0
LINE
  8
0
 10
401.256
 20
149.961
 11
400.628
 21
149.99
  0
LINE
  8
0
 10
400.628
 20
149.99
 11
400
 21
150
  0
LINE
  8
0
 10
400
 20
150
 11
10
 21
150
  0
LINE
  8
0
 10
10
 20
150
 11
9.6859
 21
149.995
  0
LINE
  8
0
 10
9.6859
 20
149.995
 11
9.3721
 21
149.98
  0
LINE
  8
0
 10
9.3721
 20
149.98
 11
9.05893
 21
149.956
  0
LINE
  8
0
 10
9.05893
 20
149.956
 11
8.74667
 21
149.921
  0
LINE
  8
0
 10
8.74667
 20
149.921
 11
8.43567
 21
149.877
  0
LINE
  8
0
 10
8.43567
 20
149.877
 11
8.12619
 21
149.823
  0
LINE
  8
0
 10
8.12619
 20
149.823
 11
7.81857
 21
149.759
  0
LINE
  8
0
 10
7.81857
 20
149.759
 11
7.51311
 21
149.686
  0
LINE
  8
0
 10
7.51311
 20
149.686
 11
7.2101
 21
149.603
  0
LINE
  8
0
 10
7.2101
 20
149.603
 11
6.90984
 21
149.511
  0
LINE
  8
0
 10
6.90984
 20
149.511
 11
6.61263
 21
149.409
  0
LINE
  8
0
 10
6.61263
 20
149.409
 11
6.31876
 21
149.298
  0
LINE
  8
0
 10
6.31876
 20
149.298
 11
6.02853
 21
149.178
  0
LINE
  8
0
 10
6.02853
 20
149.178
 11
5.74222
 21
149.048
  0
LINE
  8
0
 10
5.74222
 20
149.048
 11
5.4601
 21
148.91
  0
LINE
  8
0
 10
5.4601
 20
148.91
 11
5.18246
 21
148.763
  0
LINE
  8
0
 10
5.18246
 20
148.763
 11
4.90959
 21
148.607
  0
LINE
  8
0
 10
4.90959
 20
148.607
 11
4.64174
 21
148.443
  0
LINE
  8
0
 10
4.64174
 20
148.443
 11
4.37918
 21
148.271
  0
LINE
  8
0
 10
4.37918
 20
148.271
 11
4.12216
 21
148.09
  0
LINE
  8
0
 10
4.12216
 20
148.09
 11
3.87094
 21
147.902
  0
LINE
  8
0
 10
3.87094
 20
147.902
 11
3.62576
 21
147.705
  0
LINE
  8
0
 10
3.62576
 20
147.705
 11
3.38689
 21
147.501
  0
LINE
  8
0
 10
3.38689
 20
147.501
 11
3.15454
 21
147.29
  0
LINE
  8
0
 10
3.15454
 20
147.29
 11
2.92894
 21
147.071
  0
LINE
  8
0
 10
2.92894
 20
147.071
 11
2.71033
 21
146.845
  0
LINE
  8
0
 10
2.71033
 20
146.845
 11
2.4989
 21
146.613
  0
LINE
  8
0
 10
2.4989
 20
146.613
 11
2.29488
 21
146.374
  0
LINE
  8
0
 10
2.29488
 20
146.374
 11
2.09846
 21
146.129
  0
LINE
  8
0
 10
2.09846
 20
146.129
 11
1.90984
 21
145.878
  0
LINE
  8
0
 10
1.90984
 20
145.878
 11
1.7292
 21
145.621
  0
LINE
  8
0
 10
1.7292
 20
145.621
 11
1.55673
 21
145.358
  0
LINE
  8
0
 10
1.55673
 20
145.358
 11
1.39259
 21
145.09
  0
LINE
  8
0
 10
1.39259
 20
145.09
 11
1.23694
 21
144.818
  0
LINE
  8
0
 10
1.23694
 20
144.818
 11
1.08994
 21
144.54
  0
LINE
  8
0
 10
1.08994
 20
144.54
 11
0.951736
 21
144.258
  0
LINE
  8
0
 10
0.951736
 20
144.258
 11
0.822464
 21
143.971
  0
LINE
  8
0
 10
0.822464
 20
143.971
 11
0.70224
 21
143.681
  0
LINE
  8
0
 10
0.70224
 20
143.681
 11
0.591202
 21
143.387
  0
LINE
  8
0
 10
0.591202
 20
143.387
 11
0.489441
 21
143.09
  0
LINE
  8
0
 10
0.489441
 20
143.09
 11
0.397064
 21
142.79
  0
LINE
  8
0
 10
0.397064
 20
142.79
 11
0.314178
 21
142.487
  0
LINE
  8
0
 10
0.314178
 20
142.487
 11
0.240845
 21
142.181
  0
LINE
  8
0
 10
0.240845
 20
142.181
 11
0.177139
 21
141.874
  0
LINE
  8
0
 10
0.177139
 20
141.874
 11
0.123123
 21
141.564
  0
LINE
  8
0
 10
0.123123
 20
141.564
 11
0.0788574
 21
141.253
  0
LINE
  8
0
 10
0.0788574
 20
141.253
 11
0.0443878
 21
140.941
  0
LINE
  8
0
 10
0.0443878
 20
140.941
 11
0.0197449
 21
140.628
  0
LINE
  8
0
 10
0.0197449
 20
140.628
 11
0.00494385
 21
140.314
  0
LINE
  8
0
 10
0.00494385
 20
140.314
 11
0
 21
140
  0
LINE
  8
0
 10
0
 20
140
 11
0
 21
10
  0
LINE
  8
0
 10
0
 20
10
 11
0.00494385
 21
9.6859
  0
LINE
  8
0
 10
0.00494385
 20
9.6859
 11
0.0197449
 21
9.3721
  0
LINE
  8
0
 10
0.0197449
 20
9.3721
 11
0.0443878
 21
9.05893
  0
LINE
  8
0
 10
0.0443878
 20
9.05893
 11
0.0788574
 21
8.74667
  0
LINE
  8
0
 10
0.0788574
 20
8.74667
 11
0.123123
 21
8.43567
  0
LINE
  8
0
 10
0.123123
 20
8.43567
 11
0.177139
 21
8.12619
  0
LINE
  8
0
 10
0.177139
 20
8.12619
 11
0.240845
 21
7.81857
  0
LINE
  8
0
 10
0.240845
 20
7.81857
 11
0.314178
 21
7.51311
  0
LINE
  8
0
 10
0.314178
 20
7.51311
 11
0.397064
 21
7.2101
  0
LINE
  8
0
 10
0.397064
 20
7.2101
 11
0.489441
 21
6.90984
  0
LINE
  8
0
 10
0.489441
 20
6.90984
 11
0.591202
 21
6.61263
  0
LINE
  8
0
 10
0.591202
 20
6.61263
 11
0.70224
 21
6.31876
  0
LINE
  8
0
 10
0.70224
 20
6.31876
 11
0.822464
 21
6.02853
  0
LINE
  8
0
 10
0.822464
 20
6.02853
 11
0.951736
 21
5.74222
  0
LINE
  8
0
 10
0.951736
 20
5.74222
 11
1.08994
 21
5.4601
  0
LINE
  8
0
 10
1.08994
 20
5.4601
 11
1.23694
 21
5.18246
  0
LINE
  8
0
 10
1.23694
 20
5.18246
 11
1.39259
 21
4.90959
  0
LINE
  8
0
 10
1.39259
 20
4.90959
 11
1.55673
 21
4.64174
  0
LINE
  8
0
 10
1.55673
 20
4.64174
 11
1.7292
 21
4.37918
  0
LINE
  8
0
 10
1.7292
 20
4.37918
 11
1.90984
 21
4.12216
  0
LINE
  8
0
 10
1.90984
 20
4.12216
 11
2.09846
 21
3.87094
  0
LINE
  8
0
 10
2.09846
 20
3.87094
 11
2.29488
 21
3.62576
  0
LINE
  8
0
 10
2.29488
 20
3.62576
 11
2.4989
 21
3.38689
  0
LINE
  8
0
 10
2.4989
 20
3.38689
 11
2.71033
 21
3.15454
  0
LINE
  8
0
 10
2.71033
 20
3.15454
 11
2.92894
 21
2.92894
  0
LINE
  8
0
 10
2.92894
 20
2.92894
 11
3.15454
 21
2.71033
  0
LINE
  8
0
 10
3.15454
 20
2.71033
 11
3.38689
 21
2.4989
  0
LINE
  8
0
 10
3.38689
 20
2.4989
 11
3.62576
 21
2.29488
  0
LINE
  8
0
 10
3.62576
 20
2.29488
 11
3.87094
 21
2.09846
  0
LINE
  8
0
 10
3.87094
 20
2.09846
 11
4.12216
 21
1.90984
  0
LINE
  8
0
 10
4.12216
 20
1.90984
 11
4.37918
 21
1.7292
  0
LINE
  8
0
 10
4.37918
 20
1.7292
 11
4.64174
 21
1.55673
  0
LINE
  8
0
 10
4.64174
 20
1.55673
 11
4.90959
 21
1.39259
  0
LINE
  8
0
 10
4.90959
 20
1.39259
 11
5.18246
 21
1.23694
  0
LINE
  8
0
 10
5.18246
 20
1.23694
 11
5.4601
 21
1.08994
  0
LINE
  8
0
 10
5.4601
 20
1.08994
 11
5.74222
 21
0.951736
  0
LINE
  8
0
 10
5.74222
 20
0.951736
 11
6.02853
 21
0.822464
  0
LINE
  8
0
 10
6.02853
 20
0.822464
 11
6.31876
 21
0.70224
  0
LINE
  8
0
 10
6.31876
 20
0.70224
 11
6.61263
 21
0.591202
  0
LINE
  8
0
 10
6.61263
 20
0.591202
 11
6.90984
 21
0.489441
  0
LINE
  8
0
 10
6.90984
 20
0.489441
 11
7.2101
 21
0.397064
  0
LINE
  8
0
 10
7.2101
 20
0.397064
 11
7.51311
 21
0.314178
  0
LINE
  8
0
 10
7.51311
 20
0.314178
 11
7.81857
 21
0.240845
  0
LINE
  8
0
 10
7.81857
 20
0.240845
 11
8.12619
 21
0.177139
  0
LINE
  8
0
 10
8.12619
 20
0.177139
 11
8.43567
 21
0.123123
  0
LINE
  8
0
 10
8.43567
 20
0.123123
 11
8.74667
 21
0.0788574
  0
LINE
  8
0
 10
8.74667
 20
0.0788574
 11
9.05893
 21
0.0443878
  0
LINE
  8
0
 10
9.05893
 20
0.0443878
 11
9.3721
 21
0.0197449
  0
LINE
  8
0
 10
9.3721
 20
0.0197449
 11
9.6859
 21
0.00494385
  0
LINE
  8
0
 10
9.6859
 20
0.00494385
 11
10
 21
0
  0
LINE
  8
0
 10
10
 20
0
 11
150
 21
0
  0
LINE
  8
0
 10
150
 20
0
 11
150
 21
13
  0
LINE
  8
0
 10
150
 20
13
 11
150.003
 21
13.2199
  0
LINE
  8
0
 10
150.003
 20
13.2199
 11
150.014
 21
13.4395
  0
LINE
  8
0
 10
150.014
 20
13.4395
 11
150.031
 21
13.6588
  0
LINE
  8
0
 10
150.031
 20
13.6588
 11
150.055
 21
13.8773
  0
LINE
  8
0
 10
150.055
 20
13.8773
 11
150.086
 21
14.095
  0
LINE
  8
0
 10
150.086
 20
14.095
 11
150.124
 21
14.3117
  0
LINE
  8
0
 10
150.124
 20
14.3117
 11
150.169
 21
14.527
  0
LINE
  8
0
 10
150.169
 20
14.527
 11
150.22
 21
14.7408
  0
LINE
  8
0
 10
150.22
 20
14.7408
 11
150.278
 21
14.9529
  0
LINE
  8
0
 10
150.278
 20
14.9529
 11
150.343
 21
15.1631
  0
LINE
  8
0
 10
150.343
 20
15.1631
 11
150.414
 21
15.3712
  0
LINE
  8
0
 10
150.414
 20
15.3712
 11
150.492
 21
15.5769
  0
LINE
  8
0
 10
150.492
 20
15.5769
 11
150.576
 21
15.78
  0
LINE
  8
0
 10
150.576
 20
15.78
 11
150.666
 21
15.9805
  0
LINE
  8
0
 10
150.666
 20
15.9805
 11
150.763
 21
16.1779
  0
LINE
  8
0
 10
150.763
 20
16.1779
 11
150.866
 21
16.3723
  0
LINE
  8
0
 10
150.866
 20
16.3723
 11
150.975
 21
16.5633
  0
LINE
  8
0
 10
150.975
 20
16.5633
 11
151.09
 21
16.7508
  0
LINE
  8
0
 10
151.09
 20
16.7508
 11
151.21
 21
16.9346
  0
LINE
  8
0
 10
151.21
 20
16.9346
 11
151.337
 21
17.1145
  0
LINE
  8
0
 10
151.337
 20
17.1145
 11
151.469
 21
17.2903
  0
LINE
  8
0
 10
151.469
 20
17.2903
 11
151.606
 21
17.462
  0
LINE
  8
0
 10
151.606
 20
17.462
 11
151.749
 21
17.6292
  0
LINE
  8
0
 10
151.749
 20
17.6292
 11
151.897
 21
17.7918
  0
LINE
  8
0
 10
151.897
 20
17.7918
 11
152.05
 21
17.9497
  0
LINE
  8
0
 10
152.05
 20
17.9497
 11
152.208
 21
18.1028
  0
LINE
  8
0
 10
152.208
 20
18.1028
 11
152.371
 21
18.2508
  0
LINE
  8
0
 10
152.371
 20
18.2508
 11
152.538
 21
18.3936
  0
LINE
  8
0
 10
152.538
 20
18.3936
 11
152.71
 21
18.5311
  0
LINE
  8
0
 10
152.71
 20
18.5311
 11
152.886
 21
18.6631
  0
LINE
  8
0
 10
152.886
 20
18.6631
 11
153.065
 21
18.7896
  0
LINE
  8
0
 10
153.065
 20
18.7896
 11
153.249
 21
18.9103
  0
LINE
  8
0
 10
153.249
 20
18.9103
 11
153.437
 21
19.0252
  0
LINE
  8
0
 10
153.437
 20
19.0252
 11
153.628
 21
19.1341
  0
LINE
  8
0
 10
153.628
 20
19.1341
 11
153.822
 21
19.237
  0
LINE
  8
0
 10
153.822
 20
19.237
 11
154.02
 21
19.3338
  0
LINE
  8
0
 10
154.02
 20
19.3338
 11
154.22
 21
19.4243
  0
LINE
  8
0
 10
154.22
 20
19.4243
 11
154.423
 21
19.5084
  0
LINE
  8
0
 10
154.423
 20
19.5084
 11
154.629
 21
19.5862
  0
LINE
  8
0
 10
154.629
 20
19.5862
 11
154.837
 21
19.6574
  0
LINE
  8
0
 10
154.837
 20
19.6574
 11
155.047
 21
19.722
  0
LINE
  8
0
 10
155.047
 20
19.722
 11
155.259
 21
19.7801
  0
LINE
  8
0
 10
155.259
 20
19.7801
 11
155.473
 21
19.8314
  0
LINE
  8
0
 10
155.473
 20
19.8314
 11
155.688
 21
19.876
  0
LINE
  8
0
 10
155.688
 20
19.876
 11
155.905
 21
19.9138
  0
LINE
  8
0
 10
155.905
 20
19.9138
 11
156.123
 21
19.9448
  0
LINE
  8
0
 10
156.123
 20
19.9448
 11
156.341
 21
19.9689
  0
LINE
  8
0
 10
156.341
 20
19.9689
 11
156.56
 21
19.9862
  0
LINE
  8
0
 10
156.56
 20
19.9862
 11
156.78
 21
19.9965
  0
LINE
  8
0
 10
156.78
 20
19.9965
 11
157
 21
20
  0
LINE
  8
0
 10
157
 20
20
 11
443
 21
20
  0
LINE
  8
0
 10
443
 20
20
 11
443.22
 21
19.9965
  0
LINE
  8
0
 10
443.22
 20
19.9965
 11
443.44
 21
19.9862
  0
LINE
  8
0
 10
443.44
 20
19.9862
 11
443.659
 21
19.9689
  0
LINE
  8
0
 10
443.659
 20
19.9689
 11
443.877
 21
19.9448
  0
LINE
  8
0
 10
443.877
 20
19.9448
 11
444.095
 21
19.9138
  0
LINE
  8
0
 10
444.095
 20
19.9138
 11
444.312
 21
19.876
  0
LINE
  8
0
 10
444.312
 20
19.876
 11
444.527
 21
19.8314
  0
LINE
  8
0
 10
444.527
 20
19.8314
 11
444.741
 21
19.7801
  0
LINE
  8
0
 10
444.741
 20
19.7801
 11
444.953
 21
19.722
  0
LINE
  8
0
 10
444.953
 20
19.722
 11
445.163
 21
19.6574
  0
LINE
  8
0
 10
445.163
 20
19.6574
 11
445.371
 21
19.5862
  0
LINE
  8
0
 10
445.371
 20
19.5862
 11
445.577
 21
19.5084
  0
LINE
  8
0
 10
445.577
 20
19.5084
 11
445.78
 21
19.4243
  0
LINE
  8
0
 10
445.78
 20
19.4243
 11
445.98
 21
19.3338
  0
LINE
  8
0
 10
445.98
 20
19.3338
 11
446.178
 21
19.237
  0
LINE
  8
0
 10
446.178
 20
19.237
 11
446.372
 21
19.1341
  0
LINE
  8
0
 10
446.372
 20
19.1341
 11
446.563
 21
19.0252
  0
LINE
  8
0
 10
446.563
 20
19.0252
 11
446.751
 21
18.9103
  0
LINE
  8
0
 10
446.751
 20
18.9103
 11
446.935
 21
18.7896
  0
LINE
  8
0
 10
446.935
 20
18.7896
 11
447.114
 21
18.6631
  0
LINE
  8
0
 10
447.114
 20
18.6631
 11
447.29
 21
18.5311
  0
LINE
  8
0
 10
447.29
 20
18.5311
 11
447.462
 21
18.3936
  0
LINE
  8
0
 10
447.462
 20
18.3936
 11
447.629
 21
18.2508
  0
LINE
  8
0
 10
447.629
 20
18.2508
 11
447.792
 21
18.1028
  0
LINE
  8
0
 10
447.792
 20
18.1028
 11
447.95
 21
17.9497
  0
LINE
  8
0
 10
447.95
 20
17.9497
 11
448.103
 21
17.7918
  0
LINE
  8
0
 10
448.103
 20
17.7918
 11
448.251
 21
17.6292
  0
LINE
  8
0
 10
448.251
 20
17.6292
 11
448.394
 21
17.462
  0
LINE
  8
0
 10
448.394
 20
17.462
 11
448.531
 21
17.2903
  0
LINE
  8
0
 10
448.531
 20
17.2903
 11
448.663
 21
17.1145
  0
LINE
  8
0
 10
448.663
 20
17.1145
 11
448.79
 21
16.9346
  0
LINE
  8
0
 10
448.79
 20
16.9346
 11
448.91
 21
16.7508
  0
LINE
  8
0
 10
448.91
 20
16.7508
 11
449.025
 21
16.5633
  0
LINE
  8
0
 10
449.025
 20
16.5633
 11
449.134
 21
16.3723
  0
LINE
  8
0
 10
449.134
 20
16.3723
 11
449.237
 21
16.1779
  0
LINE
  8
0
 10
449.237
 20
16.1779
 11
449.334
 21
15.9805
  0
LINE
  8
0
 10
449.334
 20
15.9805
 11
449.424
 21
15.78
  0
LINE
  8
0
 10
449.424
 20
15.78
 11
449.508
 21
15.5769
  0
LINE
  8
0
 10
449.508
 20
15.5769
 11
449.586
 21
15.3712
  0
LINE
  8
0
 10
449.586
 20
15.3712
 11
449.657
 21
15.1631
  0
LINE
  8
0
 10
449.657
 20
15.1631
 11
449.722
 21
14.9529
  0
LINE
  8
0
 10
449.722
 20
14.9529
 11
449.78
 21
14.7408
  0
LINE
  8
0
 10
449.78
 20
14.7408
 11
449.831
 21
14.527
  0
LINE
  8
0
 10
449.831
 20
14.527
 11
449.876
 21
14.3117
  0
LINE
  8
0
 10
449.876
 20
14.3117
 11
449.914
 21
14.095
  0
LINE
  8
0
 10
449.914
 20
14.095
 11
449.945
 21
13.8773
  0
LINE
  8
0
 10
449.945
 20
13.8773
 11
449.969
 21
13.6588
  0
LINE
  8
0
 10
449.969
 20
13.6588
 11
449.986
 21
13.4395
  0
LINE
  8
0
 10
449.986
 20
13.4395
 11
449.997
 21
13.2199
  0
LINE
  8
0
 10
449.997
 20
13.2199
 11
450
 21
13
  0
LINE
  8
0
 10
450
 20
13
 11
450
 21
0
  0
LINE
  8
0
 10
450
 20
0
 11
590
 21
0
  0
LINE
  8
0
 10
590
 20
0
 11
590.314
 21
0.00494385
  0
LINE
  8
0
 10
29.8712
 20
125.902
 11
29.7426
 21
125.908
  0
LINE
  8
0
 10
29.7426
 20
125.908
 11
29.6142
 21
125.918
  0
LINE
  8
0
 10
29.6142
 20
125.918
 11
29.4861
 21
125.932
  0
LINE
  8
0
 10
29.4861
 20
125.932
 11
29.3586
 21
125.95
  0
LINE
  8
0
 10
29.3586
 20
125.95
 11
29.2317
 21
125.973
  0
LINE
  8
0
 10
29.2317
 20
125.973
 11
29.1056
 21
125.999
  0
LINE
  8
0
 10
29.1056
 20
125.999
 11
28.9804
 21
126.029
  0
LINE
  8
0
 10
28.9804
 20
126.029
 11
28.8561
 21
126.063
  0
LINE
  8
0
 10
28.8561
 20
126.063
 11
28.733
 21
126.101
  0
LINE
  8
0
 10
28.733
 20
126.101
 11
28.6112
 21
126.142
  0
LINE
  8
0
 10
28.6112
 20
126.142
 11
28.4907
 21
126.188
  0
LINE
  8
0
 10
28.4907
 20
126.188
 11
28.3717
 21
126.237
  0
LINE
  8
0
 10
28.3717
 20
126.237
 11
28.2543
 21
126.29
  0
LINE
  8
0
 10
28.2543
 20
126.29
 11
28.1386
 21
126.347
  0
LINE
  8
0
 10
28.1386
 20
126.347
 11
28.0248
 21
126.407
  0
LINE
  8
0
 10
28.0248
 20
126.407
 11
27.9129
 21
126.471
  0
LINE
  8
0
 10
27.9129
 20
126.471
 11
27.8031
 21
126.538
  0
LINE
  8
0
 10
27.8031
 20
126.538
 11
27.6954
 21
126.609
  0
LINE
  8
0
 10
27.6954
 20
126.609
 11
27.5901
 21
126.683
  0
LINE
  8
0
 10
27.5901
 20
126.683
 11
27.4871
 21
126.76
  0
LINE
  8
0
 10
27.4871
 20
126.76
 11
27.3866
 21
126.841
  0
LINE
  8
0
 10
27.3866
 20
126.841
 11
27.2886
 21
126.925
  0
LINE
  8
0
 10
27.2886
 20
126.925
 11
27.1933
 21
127.011
  0
LINE
  8
0
 10
27.1933
 20
127.011
 11
27.1009
 21
127.101
  0
LINE
  8
0
 10
27.1009
 20
127.101
 11
27.0112
 21
127.193
  0
LINE
  8
0
 10
27.0112
 20
127.193
 11
26.9245
 21
127.289
  0
LINE
  8
0
 10
26.9245
 20
127.289
 11
26.8409
 21
127.387
  0
LINE
  8
0
 10
26.8409
 20
127.387
 11
26.7604
 21
127.487
  0
LINE
  8
0
 10
26.7604
 20
127.487
 11
26.683
 21
127.59
  0
LINE
  8
0
 10
26.683
 20
127.59
 11
26.609
 21
127.695
  0
LINE
  8
0
 10
26.609
 20
127.695
 11
26.5383
 21
127.803
  0
LINE
  8
0
 10
26.5383
 20
127.803
 11
26.4709
 21
127.913
  0
LINE
  8
0
 10
26.4709
 20
127.913
 11
26.4071
 21
128.025
  0
LINE
  8
0
 10
26.4071
 20
128.025
 11
26.3469
 21
128.139
  0
LINE
  8
0
 10
26.3469
 20
128.139
 11
26.2902
 21
128.254
  0
LINE
  8
0
 10
26.2902
 20
128.254
 11
26.2372
 21
128.372
  0
LINE
  8
0
 10
26.2372
 20
128.372
 11
26.1879
 21
128.491
  0
LINE
  8
0
 10
26.1879
 20
128.491
 11
26.1424
 21
128.611
  0
LINE
  8
0
 10
26.1424
 20
128.611
 11
26.1007
 21
128.733
  0
LINE
  8
0
 10
26.1007
 20
128.733
 11
26.0628
 21
128.856
  0
LINE
  8
0
 10
26.0628
 20
128.856
 11
26.0288
 21
128.98
  0
LINE
  8
0
 10
26.0288
 20
128.98
 11
25.9987
 21
129.106
  0
LINE
  8
0
 10
25.9987
 20
129.106
 11
25.9726
 21
129.232
  0
LINE
  8
0
 10
25.9726
 20
129.232
 11
25.9505
 21
129.359
  0
LINE
  8
0
 10
25.9505
 20
129.359
 11
25.9323
 21
129.486
  0
LINE
  8
0
 10
25.9323
 20
129.486
 11
25.9182
 21
129.614
  0
LINE
  8
0
 10
25.9182
 20
129.614
 11
25.9081
 21
129.743
  0
LINE
  8
0
 10
25.9081
 20
129.743
 11
25.902
 21
129.871
  0
LINE
  8
0
 10
25.902
 20
129.871
 11
25.9
 21
130
  0
LINE
  8
0
 10
25.9
 20
130
 11
25.902
 21
130.129
  0
LINE
  8
0
 10
25.902
 20
130.129
 11
25.9081
 21
130.257
  0
LINE
  8
0
 10
25.9081
 20
130.257
 11
25.9182
 21
130.386
  0
LINE
  8
0
 10
25.9182
 20
130.386
 11
25.9323
 21
130.514
  0
LINE
  8
0
 10
25.9323
 20
130.514
 11
25.9505
 21
130.641
  0
LINE
  8
0
 10
25.9505
 20
130.641
 11
25.9726
 21
130.768
  0
LINE
  8
0
 10
25.9726
 20
130.768
 11
25.9987
 21
130.894
  0
LINE
  8
0
 10
25.9987
 20
130.894
 11
26.0288
 21
131.02
  0
LINE
  8
0
 10
26.0288
 20
131.02
 11
26.0628
 21
131.144
  0
LINE
  8
0
 10
26.0628
 20
131.144
 11
26.1007
 21
131.267
  0
LINE
  8
0
 10
26.1007
 20
131.267
 11
26.1424
 21
131.389
  0
LINE
  8
0
 10
26.1424
 20
131.389
 11
26.1879
 21
131.509
  0
LINE
  8
0
 10
26.1879
 20
131.509
 11
26.2372
 21
131.628
  0
LINE
  8
0
 10
26.2372
 20
131.628
 11
26.2902
 21
131.746
  0
LINE
  8
0
 10
26.2902
 20
131.746
 11
26.3469
 21
131.861
  0
LINE
  8
0
 10
26.3469
 20
131.861
 11
26.4071
 21
131.975
  0
LINE
  8
0
 10
26.4071
 20
131.975
 11
26.4709
 21
132.087
  0
LINE
  8
0
 10
26.4709
 20
132.087
 11
26.5383
 21
132.197
  0
LINE
  8
0
 10
26.5383
 20
132.197
 11
26.609
 21
132.305
  0
LINE
  8
0
 10
26.609
 20
132.305
 11
26.683
 21
132.41
  0
LINE
  8
0
 10
26.683
 20
132.41
 11
26.7604
 21
132.513
  0
LINE
  8
0
 10
26.7604
 20
132.513
 11
26.8409
 21
132.613
  0
LINE
  8
0
 10
26.8409
 20
132.613
 11
26.9245
 21
132.711
  0
LINE
  8
0
 10
26.9245
 20
132.711
 11
27.0112
 21
132.807
  0
LINE
  8
0
 10
27.0112
 20
132.807
 11
27.1009
 21
132.899
  0
LINE
  8
0
 10
27.1009
 20
132.899
 11
27.1933
 21
132.989
  0
LINE
  8
0
 10
27.1933
 20
132.989
 11
27.2886
 21
133.075
  0
LINE
  8
0
 10
27.2886
 20
133.075
 11
27.3866
 21
133.159
  0
LINE
  8
0
 10
27.3866
 20
133.159
 11
27.4871
 21
133.24
  0
LINE
  8
0
 10
27.4871
 20
133.24
 11
27.5901
 21
133.317
  0
LINE
  8
0
 10
27.5901
 20
133.317
 11
27.6954
 21
133.391
  0
LINE
  8
0
 10
27.6954
 20
133.391
 11
27.8031
 21
133.462
  0
LINE
  8
0
 10
27.8031
 20
133.462
 11
27.9129
 21
133.529
  0
LINE
  8
0
 10
27.9129
 20
133.529
 11
28.0248
 21
133.593
  0
LINE
  8
0
 10
28.0248
 20
133.593
 11
28.1386
 21
133.653
  0
LINE
  8
0
 10
28.1386
 20
133.653
 11
28.2543
 21
133.71
  0
LINE
  8
0
 10
28.2543
 20
133.71
 11
28.3717
 21
133.763
  0
LINE
  8
0
 10
28.3717
 20
133.763
 11
28.4907
 21
133.812
  0
LINE
  8
0
 10
28.4907
 20
133.812
 11
28.6112
 21
133.858
  0
LINE
  8
0
 10
28.6112
 20
133.858
 11
28.733
 21
133.899
  0
LINE
  8
0
 10
28.733
 20
133.899
 11
28.8561
 21
133.937
  0
LINE
  8
0
 10
28.8561
 20
133.937
 11
28.9804
 21
133.971
  0
LINE
  8
0
 10
28.9804
 20
133.971
 11
29.1056
 21
134.001
  0
LINE
  8
0
 10
29.1056
 20
134.001
 11
29.2317
 21
134.027
  0
LINE
  8
0
 10
29.2317
 20
134.027
 11
29.3586
 21
134.05
  0
LINE
  8
0
 10
29.3586
 20
134.05
 11
29.4861
 21
134.068
  0
LINE
  8
0
 10
29.4861
 20
134.068
 11
29.6142
 21
134.082
  0
LINE
  8
0
 10
29.6142
 20
134.082
 11
29.7426
 21
134.092
  0
LINE
  8
0
 10
29.7426
 20
134.092
 11
29.8712
 21
134.098
  0
LINE
  8
0
 10
29.8712
 20
134.098
 11
30
 21
134.1
  0
LINE
  8
0
 10
30
 20
134.1
 11
30.1288
 21
134.098
  0
LINE
  8
0
 10
30.1288
 20
134.098
 11
30.2574
 21
134.092
  0
LINE
  8
0
 10
30.2574
 20
134.092
 11
30.3858
 21
134.082
  0
LINE
  8
0
 10
30.3858
 20
134.082
 11
30.5139
 21
134.068
  0
LINE
  8
0
 10
30.5139
 20
134.068
 11
30.6414
 21
134.05
  0
LINE
  8
0
 10
30.6414
 20
134.05
 11
30.7682
 21
134.027
  0
LINE
  8
0
 10
30.7682
 20
134.027
 11
30.8944
 21
134.001
  0
LINE
  8
0
 10
30.8944
 20
134.001
 11
31.0196
 21
133.971
  0
LINE
  8
0
 10
31.0196
 20
133.971
 11
31.1439
 21
133.937
  0
LINE
  8
0
 10
31.1439
 20
133.937
 11
31.267
 21
133.899
  0
LINE
  8
0
 10
31.267
 20
133.899
 11
31.3888
 21
133.858
  0
LINE
  8
0
 10
31.3888
 20
133.858
 11
31.5093
 21
133.812
  0
LINE
  8
0
 10
31.5093
 20
133.812
 11
31.6283
 21
133.763
  0
LINE
  8
0
 10
31.6283
 20
133.763
 11
31.7457
 21
133.71
  0
LINE
  8
0
 10
31.7457
 20
133.71
 11
31.8614
 21
133.653
  0
LINE
  8
0
 10
31.8614
 20
133.653
 11
31.9752
 21
133.593
  0
LINE
  8
0
 10
31.9752
 20
133.593
 11
32.0871
 21
133.529
  0
LINE
  8
0
 10
32.0871
 20
133.529
 11
32.1969
 21
133.462
  0
LINE
  8
0
 10
32.1969
 20
133.462
 11
32.3045
 21
133.391
  0
LINE
  8
0
 10
32.3045
 20
133.391
 11
32.4099
 21
133.317
  0
LINE
  8
0
 10
32.4099
 20
133.317
 11
32.5129
 21
133.24
  0
LINE
  8
0
 10
32.5129
 20
133.24
 11
32.6134
 21
133.159
  0
LINE
  8
0
 10
32.6134
 20
133.159
 11
32.7114
 21
133.075
  0
LINE
  8
0
 10
32.7114
 20
133.075
 11
32.8066
 21
132.989
  0
LINE
  8
0
 10
32.8066
 20
132.989
 11
32.8991
 21
132.899
  0
LINE
  8
0
 10
32.8991
 20
132.899
 11
32.9888
 21
132.807
  0
LINE
  8
0
 10
32.9888
 20
132.807
 11
33.0755
 21
132.711
  0
LINE
  8
0
 10
33.0755
 20
132.711
 11
33.1591
 21
132.613
  0
LINE
  8
0
 10
33.1591
 20
132.613
 11
33.2396
 21
132.513
  0
LINE
  8
0
 10
33.2396
 20
132.513
 11
33.317
 21
132.41
  0
LINE
  8
0
 10
33.317
 20
132.41
 11
33.391
 21
132.305
  0
LINE
  8
0
 10
33.391
 20
132.305
 11
33.4617
 21
132.197
  0
LINE
  8
0
 10
33.4617
 20
132.197
 11
33.529
 21
132.087
  0
LINE
  8
0
 10
33.529
 20
132.087
 11
33.5928
 21
131.975
  0
LINE
  8
0
 10
33.5928
 20
131.975
 11
33.6531
 21
131.861
  0
LINE
  8
0
 10
33.6531
 20
131.861
 11
33.7098
 21
131.746
  0
LINE
  8
0
 10
33.7098
 20
131.746
 11
33.7628
 21
131.628
  0
LINE
  8
0
 10
33.7628
 20
131.628
 11
33.8121
 21
131.509
  0
LINE
  8
0
 10
33.8121
 20
131.509
 11
33.8576
 21
131.389
  0
LINE
  8
0
 10
33.8576
 20
131.389
 11
33.8993
 21
131.267
  0
LINE
  8
0
 10
33.8993
 20
131.267
 11
33.9372
 21
131.144
  0
LINE
  8
0
 10
33.9372
 20
131.144
 11
33.9712
 21
131.02
  0
LINE
  8
0
 10
33.9712
 20
131.02
 11
34.0013
 21
130.894
  0
LINE
  8
0
 10
34.0013
 20
130.894
 11
34.0274
 21
130.768
  0
LINE
  8
0
 10
34.0274
 20
130.768
 11
34.0495
 21
130.641
  0
LINE
  8
0
 10
34.0495
 20
130.641
 11
34.0677
 21
130.514
  0
LINE
  8
0
 10
34.0677
 20
130.514
 11
34.0818
 21
130.386
  0
LINE
  8
0
 10
34.0818
 20
130.386
 11
34.0919
 21
130.257
  0
LINE
  8
0
 10
34.0919
 20
130.257
 11
34.098
 21
130.129
  0
LINE
  8
0
 10
34.098
 20
130.129
 11
34.1
 21
130
  0
LINE
  8
0
 10
34.1
 20
130
 11
34.098
 21
129.871
  0
LINE
  8
0
 10
34.098
 20
129.871
 11
34.0919
 21
129.743
  0
LINE
  8
0
 10
34.0919
 20
129.743
 11
34.0818
 21
129.614
  0
LINE
  8
0
 10
34.0818
 20
129.614
 11
34.0677
 21
129.486
  0
LINE
  8
0
 10
34.0677
 20
129.486
 11
34.0495
 21
129.359
  0
LINE
  8
0
 10
34.0495
 20
129.359
 11
34.0274
 21
129.232
  0
LINE
  8
0
 10
34.0274
 20
129.232
 11
34.0013
 21
129.106
  0
LINE
  8
0
 10
34.0013
 20
129.106
 11
33.9712
 21
128.98
  0
LINE
  8
0
 10
33.9712
 20
128.98
 11
33.9372
 21
128.856
  0
LINE
  8
0
 10
33.9372
 20
128.856
 11
33.8993
 21
128.733
  0
LINE
  8
0
 10
33.8993
 20
128.733
 11
33.8576
 21
128.611
  0
LINE
  8
0
 10
33.8576
 20
128.611
 11
33.8121
 21
128.491
  0
LINE
  8
0
 10
33.8121
 20
128.491
 11
33.7628
 21
128.372
  0
LINE
  8
0
 10
33.7628
 20
128.372
 11
33.7098
 21
128.254
  0
LINE
  8
0
 10
33.7098
 20
128.254
 11
33.6531
 21
128.139
  0
LINE
  8
0
 10
33.6531
 20
128.139
 11
33.5928
 21
128.025
  0
LINE
  8
0
 10
33.5928
 20
128.025
 11
33.529
 21
127.913
  0
LINE
  8
0
 10
33.529
 20
127.913
 11
33.4617
 21
127.803
  0
LINE
  8
0
 10
33.4617
 20
127.803
 11
33.391
 21
127.695
  0
LINE
  8
0
 10
33.391
 20
127.695
 11
33.317
 21
127.59
  0
LINE
  8
0
 10
33.317
 20
127.59
 11
33.2396
 21
127.487
  0
LINE
  8
0
 10
33.2396
 20
127.487
 11
33.1591
 21
127.387
  0
LINE
  8
0
 10
33.1591
 20
127.387
 11
33.0755
 21
127.289
  0
LINE
  8
0
 10
33.0755
 20
127.289
 11
32.9888
 21
127.193
  0
LINE
  8
0
 10
32.9888
 20
127.193
 11
32.8991
 21
127.101
  0
LINE
  8
0
 10
32.8991
 20
127.101
 11
32.8066
 21
127.011
  0
LINE
  8
0
 10
32.8066
 20
127.011
 11
32.7114
 21
126.925
  0
LINE
  8
0
 10
32.7114
 20
126.925
 11
32.6134
 21
126.841
  0
LINE
  8
0
 10
32.6134
 20
126.841
 11
32.5129
 21
126.76
  0
LINE
  8
0
 10
32.5129
 20
126.76
 11
32.4099
 21
126.683
  0
LINE
  8
0
 10
32.4099
 20
126.683
 11
32.3045
 21
126.609
  0
LINE
  8
0
 10
32.3045
 20
126.609
 11
32.1969
 21
126.538
  0
LINE
  8
0
 10
32.1969
 20
126.538
 11
32.0871
 21
126.471
  0
LINE
  8
0
 10
32.0871
 20
126.471
 11
31.9752
 21
126.407
  0
LINE
  8
0
 10
31.9752
 20
126.407
 11
31.8614
 21
126.347
  0
LINE
  8
0
 10
31.8614
 20
126.347
 11
31.7457
 21
126.29
  0
LINE
  8
0
 10
31.7457
 20
126.29
 11
31.6283
 21
126.237
  0
LINE
  8
0
 10
31.6283
 20
126.237
 11
31.5093
 21
126.188
  0
LINE
  8
0
 10
31.5093
 20
126.188
 11
31.3888
 21
126.142
  0
LINE
  8
0
 10
31.3888
 20
126.142
 11
31.267
 21
126.101
  0
LINE
  8
0
 10
31.267
 20
126.101
 11
31.1439
 21
126.063
  0
LINE
  8
0
 10
31.1439
 20
126.063
 11
31.0196
 21
126.029
  0
LINE
  8
0
 10
31.0196
 20
126.029
 11
30.8944
 21
125.999
  0
LINE
  8
0
 10
30.8944
 20
125.999
 11
30.7682
 21
125.973
  0
LINE
  8
0
 10
30.7682
 20
125.973
 11
30.6414
 21
125.95
  0
LINE
  8
0
 10
30.6414
 20
125.95
 11
30.5139
 21
125.932
  0
LINE
  8
0
 10
30.5139
 20
125.932
 11
30.3858
 21
125.918
  0
LINE
  8
0
 10
30.3858
 20
125.918
 11
30.2574
 21
125.908
  0
LINE
  8
0
 10
30.2574
 20
125.908
 11
30.1288
 21
125.902
  0
LINE
  8
0
 10
30.1288
 20
125.902
 11
30
 21
125.9
  0
LINE
  8
0
 10
30
 20
125.9
 11
29.8712
 21
125.902
  0
LINE
  8
0
 10
199.871
 20
125.902
 11
199.743
 21
125.908
  0
LINE
  8
0
 10
199.743
 20
125.908
 11
199.614
 21
125.918
  0
LINE
  8
0
 10
199.614
 20
125.918
 11
199.486
 21
125.932
  0
LINE
  8
0
 10
199.486
 20
125.932
 11
199.359
 21
125.95
  0
LINE
  8
0
 10
199.359
 20
125.95
 11
199.232
 21
125.973
  0
LINE
  8
0
 10
199.232
 20
125.973
 11
199.106
 21
125.999
  0
LINE
  8
0
 10
199.106
 20
125.999
 11
198.98
 21
126.029
  0
LINE
  8
0
 10
198.98
 20
126.029
 11
198.856
 21
126.063
  0
LINE
  8
0
 10
198.856
 20
126.063
 11
198.733
 21
126.101
  0
LINE
  8
0
 10
198.733
 20
126.101
 11
198.611
 21
126.142
  0
LINE
  8
0
 10
198.611
 20
126.142
 11
198.491
 21
126.188
  0
LINE
  8
0
 10
198.491
 20
126.188
 11
198.372
 21
126.237
  0
LINE
  8
0
 10
198.372
 20
126.237
 11
198.254
 21
126.29
  0
LINE
  8
0
 10
198.254
 20
126.29
 11
198.139
 21
126.347
  0
LINE
  8
0
 10
198.139
 20
126.347
 11
198.025
 21
126.407
  0
LINE
  8
0
 10
198.025
 20
126.407
 11
197.913
 21
126.471
  0
LINE
  8
0
 10
197.913
 20
126.471
 11
197.803
 21
126.538
  0
LINE
  8
0
 10
197.803
 20
126.538
 11
197.695
 21
126.609
  0
LINE
  8
0
 10
197.695
 20
126.609
 11
197.59
 21
126.683
  0
LINE
  8
0
 10
197.59
 20
126.683
 11
197.487
 21
126.76
  0
LINE
  8
0
 10
197.487
 20
126.76
 11
197.387
 21
126.841
  0
LINE
  8
0
 10
197.387
 20
126.841
 11
197.289
 21
126.925
  0
LINE
  8
0
 10
197.289
 20
126.925
 11
197.193
 21
127.011
  0
LINE
  8
0
 10
197.193
 20
127.011
 11
197.101
 21
127.101
  0
LINE
  8
0
 10
197.101
 20
127.101
 11
197.011
 21
127.193
  0
LINE
  8
0
 10
197.011
 20
127.193
 11
196.925
 21
127.289
  0
LINE
  8
0
 10
196.925
 20
127.289
 11
196.841
 21
127.387
  0
LINE
  8
0
 10
196.841
 20
127.387
 11
196.76
 21
127.487
  0
LINE
  8
0
 10
196.76
 20
127.487
 11
196.683
 21
127.59
  0
LINE
  8
0
 10
196.683
 20
127.59
 11
196.609
 21
127.695
  0
LINE
  8
0
 10
196.609
 20
127.695
 11
196.538
 21
127.803
  0
LINE
  8
0
 10
196.538
 20
127.803
 11
196.471
 21
127.913
  0
LINE
  8
0
 10
196.471
 20
127.913
 11
196.407
 21
128.025
  0
LINE
  8
0
 10
196.407
 20
128.025
 11
196.347
 21
128.139
  0
LINE
  8
0
 10
196.347
 20
128.139
 11
196.29
 21
128.254
  0
LINE
  8
0
 10
196.29
 20
128.254
 11
196.237
 21
128.372
  0
LINE
  8
0
 10
196.237
 20
128.372
 11
196.188
 21
128.491
  0
LINE
  8
0
 10
196.188
 20
128.491
 11
196.142
 21
128.611
  0
LINE
  8
0
 10
196.142
 20
128.611
 11
196.101
 21
128.733
  0
LINE
  8
0
 10
196.101
 20
128.733
 11
196.063
 21
128.856
  0
LINE
  8
0
 10
196.063
 20
128.856
 11
196.029
 21
128.98
  0
LINE
  8
0
 10
196.029
 20
128.98
 11
195.999
 21
129.106
  0
LINE
  8
0
 10
195.999
 20
129.106
 11
195.973
 21
129.232
  0
LINE
  8
0
 10
195.973
 20
129.232
 11
195.95
 21
129.359
  0
LINE
  8
0
 10
195.95
 20
129.359
 11
195.932
 21
129.486
  0
LINE
  8
0
 10
195.932
 20
129.486
 11
195.918
 21
129.614
  0
LINE
  8
0
 10
195.918
 20
129.614
 11
195.908
 21
129.743
  0
LINE
  8
0
 10
195.908
 20
129.743
 11
195.902
 21
129.871
  0
LINE
  8
0
 10
195.902
 20
129.871
 11
195.9
 21
130
  0
LINE
  8
0
 10
195.9
 20
130
 11
195.902
 21
130.129
  0
LINE
  8
0
 10
195.902
 20
130.129
 11
195.908
 21
130.257
  0
LINE
  8
0
 10
195.908
 20
130.257
 11
195.918
 21
130.386
  0
LINE
  8
0
 10
195.918
 20
130.386
 11
195.932
 21
130.514
  0
LINE
  8
0
 10
195.932
 20
130.514
 11
195.95
 21
130.641
  0
LINE
  8
0
 10
195.95
 20
130.641
 11
195.973
 21
130.768
  0
LINE
  8
0
 10
195.973
 20
130.768
 11
195.999
 21
130.894
  0
LINE
  8
0
 10
195.999
 20
130.894
 11
196.029
 21
131.02
  0
LINE
  8
0
 10
196.029
 20
131.02
 11
196.063
 21
131.144
  0
LINE
  8
0
 10
196.063
 20
131.144
 11
196.101
 21
131.267
  0
LINE
  8
0
 10
196.101
 20
131.267
 11
196.142
 21
131.389
  0
LINE
  8
0
 10
196.142
 20
131.389
 11
196.188
 21
131.509
  0
LINE
  8
0
 10
196.188
 20
131.509
 11
196.237
 21
131.628
  0
LINE
  8
0
 10
196.237
 20
131.628
 11
196.29
 21
131.746
  0
LINE
  8
0
 10
196.29
 20
131.746
 11
196.347
 21
131.861
  0
LINE
  8
0
 10
196.347
 20
131.861
 11
196.407
 21
131.975
  0
LINE
  8
0
 10
196.407
 20
131.975
 11
196.471
 21
132.087
  0
LINE
  8
0
 10
196.471
 20
132.087
 11
196.538
 21
132.197
  0
LINE
  8
0
 10
196.538
 20
132.197
 11
196.609
 21
132.305
  0
LINE
  8
0
 10
196.609
 20
132.305
 11
196.683
 21
132.41
  0
LINE
  8
0
 10
196.683
 20
132.41
 11
196.76
 21
132.513
  0
LINE
  8
0
 10
196.76
 20
132.513
 11
196.841
 21
132.613
  0
LINE
  8
0
 10
196.841
 20
132.613
 11
196.925
 21
132.711
  0
LINE
  8
0
 10
196.925
 20
132.711
 11
197.011
 21
132.807
  0
LINE
  8
0
 10
197.011
 20
132.807
 11
197.101
 21
132.899
  0
LINE
  8
0
 10
197.101
 20
132.899
 11
197.193
 21
132.989
  0
LINE
  8
0
 10
197.193
 20
132.989
 11
197.289
 21
133.075
  0
LINE
  8
0
 10
197.289
 20
133.075
 11
197.387
 21
133.159
  0
LINE
  8
0
 10
197.387
 20
133.159
 11
197.487
 21
133.24
  0
LINE
  8
0
 10
197.487
 20
133.24
 11
197.59
 21
133.317
  0
LINE
  8
0
 10
197.59
 20
133.317
 11
197.695
 21
133.391
  0
LINE
  8
0
 10
197.695
 20
133.391
 11
197.803
 21
133.462
  0
LINE
  8
0
 10
197.803
 20
133.462
 11
197.913
 21
133.529
  0
LINE
  8
0
 10
197.913
 20
133.529
 11
198.025
 21
133.593
  0
LINE
  8
0
 10
198.025
 20
133.593
 11
198.139
 21
133.653
  0
LINE
  8
0
 10
198.139
 20
133.653
 11
198.254
 21
133.71
  0
LINE
  8
0
 10
198.254
 20
133.71
 11
198.372
 21
133.763
  0
LINE
  8
0
 10
198.372
 20
133.763
 11
198.491
 21
133.812
  0
LINE
  8
0
 10
198.491
 20
133.812
 11
198.611
 21
133.858
  0
LINE
  8
0
 10
198.611
 20
133.858
 11
198.733
 21
133.899
  0
LINE
  8
0
 10
198.733
 20
133.899
 11
198.856
 21
133.937
  0
LINE
  8
0
 10
198.856
 20
133.937
 11
198.98
 21
133.971
  0
LINE
  8
0
 10
198.98
 20
133.971
 11
199.106
 21
134.001
  0
LINE
  8
0
 10
199.106
 20
134.001
 11
199.232
 21
134.027
  0
LINE
  8
0
 10
199.232
 20
134.027
 11
199.359
 21
134.05
  0
LINE
  8
0
 10
199.359
 20
134.05
 11
199.486
 21
134.068
  0
LINE
  8
0
 10
199.486
 20
134.068
 11
199.614
 21
134.082
  0
LINE
  8
0
 10
199.614
 20
134.082
 11
199.743
 21
134.092
  0
LINE
  8
0
 10
199.743
 20
134.092
 11
199.871
 21
134.098
  0
LINE
  8
0
 10
199.871
 20
134.098
 11
200
 21
134.1
  0
LINE
  8
0
 10
200
 20
134.1
 11
200.129
 21
134.098
  0
LINE
  8
0
 10
200.129
 20
134.098
 11
200.257
 21
134.092
  0
LINE
  8
0
 10
200.257
 20
134.092
 11
200.386
 21
134.082
  0
LINE
  8
0
 10
200.386
 20
134.082
 11
200.514
 21
134.068
  0
LINE
  8
0
 10
200.514
 20
134.068
 11
200.641
 21
134.05
  0
LINE
  8
0
 10
200.641
 20
134.05
 11
200.768
 21
134.027
  0
LINE
  8
0
 10
200.768
 20
134.027
 11
200.894
 21
134.001
  0
LINE
  8
0
 10
200.894
 20
134.001
 11
201.02
 21
133.971
  0
LINE
  8
0
 10
201.02
 20
133.971
 11
201.144
 21
133.937
  0
LINE
  8
0
 10
201.144
 20
133.937
 11
201.267
 21
133.899
  0
LINE
  8
0
 10
201.267
 20
133.899
 11
201.389
 21
133.858
  0
LINE
  8
0
 10
201.389
 20
133.858
 11
201.509
 21
133.812
  0
LINE
  8
0
 10
201.509
 20
133.812
 11
201.628
 21
133.763
  0
LINE
  8
0
 10
201.628
 20
133.763
 11
201.746
 21
133.71
  0
LINE
  8
0
 10
201.746
 20
133.71
 11
201.861
 21
133.653
  0
LINE
  8
0
 10
201.861
 20
133.653
 11
201.975
 21
133.593
  0
LINE
  8
0
 10
201.975
 20
133.593
 11
202.087
 21
133.529
  0
LINE
  8
0
 10
202.087
 20
133.529
 11
202.197
 21
133.462
  0
LINE
  8
0
 10
202.197
 20
133.462
 11
202.305
 21
133.391
  0
LINE
  8
0
 10
202.305
 20
133.391
 11
202.41
 21
133.317
  0
LINE
  8
0
 10
202.41
 20
133.317
 11
202.513
 21
133.24
  0
LINE
  8
0
 10
202.513
 20
133.24
 11
202.613
 21
133.159
  0
LINE
  8
0
 10
202.613
 20
133.159
 11
202.711
 21
133.075
  0
LINE
  8
0
 10
202.711
 20
133.075
 11
202.807
 21
132.989
  0
LINE
  8
0
 10
202.807
 20
132.989
 11
202.899
 21
132.899
  0
LINE
  8
0
 10
202.899
 20
132.899
 11
202.989
 21
132.807
  0
LINE
  8
0
 10
202.989
 20
132.807
 11
203.075
 21
132.711
  0
LINE
  8
0
 10
203.075
 20
132.711
 11
203.159
 21
132.613
  0
LINE
  8
0
 10
203.159
 20
132.613
 11
203.24
 21
132.513
  0
LINE
  8
0
 10
203.24
 20
132.513
 11
203.317
 21
132.41
  0
LINE
  8
0
 10
203.317
 20
132.41
 11
203.391
 21
132.305
  0
LINE
  8
0
 10
203.391
 20
132.305
 11
203.462
 21
132.197
  0
LINE
  8
0
 10
203.462
 20
132.197
 11
203.529
 21
132.087
  0
LINE
  8
0
 10
203.529
 20
132.087
 11
203.593
 21
131.975
  0
LINE
  8
0
 10
203.593
 20
131.975
 11
203.653
 21
131.861
  0
LINE
  8
0
 10
203.653
 20
131.861
 11
203.71
 21
131.746
  0
LINE
  8
0
 10
203.71
 20
131.746
 11
203.763
 21
131.628
  0
LINE
  8
0
 10
203.763
 20
131.628
 11
203.812
 21
131.509
  0
LINE
  8
0
 10
203.812
 20
131.509
 11
203.858
 21
131.389
  0
LINE
  8
0
 10
203.858
 20
131.389
 11
203.899
 21
131.267
  0
LINE
  8
0
 10
203.899
 20
131.267
 11
203.937
 21
131.144
  0
LINE
  8
0
 10
203.937
 20
131.144
 11
203.971
 21
131.02
  0
LINE
  8
0
 10
203.971
 20
131.02
 11
204.001
 21
130.894
  0
LINE
  8
0
 10
204.001
 20
130.894
 11
204.027
 21
130.768
  0
LINE
  8
0
 10
204.027
 20
130.768
 11
204.05
 21
130.641
  0
LINE
  8
0
 10
204.05
 20
130.641
 11
204.068
 21
130.514
  0
LINE
  8
0
 10
204.068
 20
130.514
 11
204.082
 21
130.386
  0
LINE
  8
0
 10
204.082
 20
130.386
 11
204.092
 21
130.257
  0
LINE
  8
0
 10
204.092
 20
130.257
 11
204.098
 21
130.129
  0
LINE
  8
0
 10
204.098
 20
130.129
 11
204.1
 21
130
  0
LINE
  8
0
 10
204.1
 20
130
 11
204.098
 21
129.871
  0
LINE
  8
0
 10
204.098
 20
129.871
 11
204.092
 21
129.743
  0
LINE
  8
0
 10
204.092
 20
129.743
 11
204.082
 21
129.614
  0
LINE
  8
0
 10
204.082
 20
129.614
 11
204.068
 21
129.486
  0
LINE
  8
0
 10
204.068
 20
129.486
 11
204.05
 21
129.359
  0
LINE
  8
0
 10
204.05
 20
129.359
 11
204.027
 21
129.232
  0
LINE
  8
0
 10
204.027
 20
129.232
 11
204.001
 21
129.106
  0
LINE
  8
0
 10
204.001
 20
129.106
 11
203.971
 21
128.98
  0
LINE
  8
0
 10
203.971
 20
128.98
 11
203.937
 21
128.856
  0
LINE
  8
0
 10
203.937
 20
128.856
 11
203.899
 21
128.733
  0
LINE
  8
0
 10
203.899
 20
128.733
 11
203.858
 21
128.611
  0
LINE
  8
0
 10
203.858
 20
128.611
 11
203.812
 21
128.491
  0
LINE
  8
0
 10
203.812
 20
128.491
 11
203.763
 21
128.372
  0
LINE
  8
0
 10
203.763
 20
128.372
 11
203.71
 21
128.254
  0
LINE
  8
0
 10
203.71
 20
128.254
 11
203.653
 21
128.139
  0
LINE
  8
0
 10
203.653
 20
128.139
 11
203.593
 21
128.025
  0
LINE
  8
0
 10
203.593
 20
128.025
 11
203.529
 21
127.913
  0
LINE
  8
0
 10
203.529
 20
127.913
 11
203.462
 21
127.803
  0
LINE
  8
0
 10
203.462
 20
127.803
 11
203.391
 21
127.695
  0
LINE
  8
0
 10
203.391
 20
127.695
 11
203.317
 21
127.59
  0
LINE
  8
0
 10
203.317
 20
127.59
 11
203.24
 21
127.487
  0
LINE
  8
0
 10
203.24
 20
127.487
 11
203.159
 21
127.387
  0
LINE
  8
0
 10
203.159
 20
127.387
 11
203.075
 21
127.289
  0
LINE
  8
0
 10
203.075
 20
127.289
 11
202.989
 21
127.193
  0
LINE
  8
0
 10
202.989
 20
127.193
 11
202.899
 21
127.101
  0
LINE
  8
0
 10
202.899
 20
127.101
 11
202.807
 21
127.011
  0
LINE
  8
0
 10
202.807
 20
127.011
 11
202.711
 21
126.925
  0
LINE
  8
0
 10
202.711
 20
126.925
 11
202.613
 21
126.841
  0
LINE
  8
0
 10
202.613
 20
126.841
 11
202.513
 21
126.76
  0
LINE
  8
0
 10
202.513
 20
126.76
 11
202.41
 21
126.683
  0
LINE
  8
0
 10
202.41
 20
126.683
 11
202.305
 21
126.609
  0
LINE
  8
0
 10
202.305
 20
126.609
 11
202.197
 21
126.538
  0
LINE
  8
0
 10
202.197
 20
126.538
 11
202.087
 21
126.471
  0
LINE
  8
0
 10
202.087
 20
126.471
 11
201.975
 21
126.407
  0
LINE
  8
0
 10
201.975
 20
126.407
 11
201.861
 21
126.347
  0
LINE
  8
0
 10
201.861
 20
126.347
 11
201.746
 21
126.29
  0
LINE
  8
0
 10
201.746
 20
126.29
 11
201.628
 21
126.237
  0
LINE
  8
0
 10
201.628
 20
126.237
 11
201.509
 21
126.188
  0
LINE
  8
0
 10
201.509
 20
126.188
 11
201.389
 21
126.142
  0
LINE
  8
0
 10
201.389
 20
126.142
 11
201.267
 21
126.101
  0
LINE
  8
0
 10
201.267
 20
126.101
 11
201.144
 21
126.063
  0
LINE
  8
0
 10
201.144
 20
126.063
 11
201.02
 21
126.029
  0
LINE
  8
0
 10
201.02
 20
126.029
 11
200.894
 21
125.999
  0
LINE
  8
0
 10
200.894
 20
125.999
 11
200.768
 21
125.973
  0
LINE
  8
0
 10
200.768
 20
125.973
 11
200.641
 21
125.95
  0
LINE
  8
0
 10
200.641
 20
125.95
 11
200.514
 21
125.932
  0
LINE
  8
0
 10
200.514
 20
125.932
 11
200.386
 21
125.918
  0
LINE
  8
0
 10
200.386
 20
125.918
 11
200.257
 21
125.908
  0
LINE
  8
0
 10
200.257
 20
125.908
 11
200.129
 21
125.902
  0
LINE
  8
0
 10
200.129
 20
125.902
 11
200
 21
125.9
  0
LINE
  8
0
 10
200
 20
125.9
 11
199.871
 21
125.902
  0
LINE
  8
0
 10
249.95
 20
118.401
 11
249.849
 21
118.407
  0
LINE
  8
0
 10
249.849
 20
118.407
 11
249.75
 21
118.42
  0
LINE
  8
0
 10
249.75
 20
118.42
 11
249.651
 21
118.439
  0
LINE
  8
0
 10
249.651
 20
118.439
 11
249.554
 21
118.464
  0
LINE
  8
0
 10
249.554
 20
118.464
 11
249.458
 21
118.495
  0
LINE
  8
0
 10
249.458
 20
118.495
 11
249.365
 21
118.532
  0
LINE
  8
0
 10
249.365
 20
118.532
 11
249.274
 21
118.574
  0
LINE
  8
0
 10
249.274
 20
118.574
 11
249.186
 21
118.623
  0
LINE
  8
0
 10
249.186
 20
118.623
 11
249.101
 21
118.677
  0
LINE
  8
0
 10
249.101
 20
118.677
 11
249.019
 21
118.736
  0
LINE
  8
0
 10
249.019
 20
118.736
 11
248.942
 21
118.8
  0
LINE
  8
0
 10
248.942
 20
118.8
 11
248.869
 21
118.869
  0
LINE
  8
0
 10
248.869
 20
118.869
 11
248.8
 21
118.942
  0
LINE
  8
0
 10
248.8
 20
118.942
 11
248.736
 21
119.019
  0
LINE
  8
0
 10
248.736
 20
119.019
 11
248.677
 21
119.101
  0
LINE
  8
0
 10
248.677
 20
119.101
 11
248.623
 21
119.186
  0
LINE
  8
0
 10
248.623
 20
119.186
 11
248.574
 21
119.274
  0
LINE
  8
0
 10
248.574
 20
119.274
 11
248.532
 21
119.365
  0
LINE
  8
0
 10
248.532
 20
119.365
 11
248.495
 21
119.458
  0
LINE
  8
0
 10
248.495
 20
119.458
 11
248.464
 21
119.554
  0
LINE
  8
0
 10
248.464
 20
119.554
 11
248.439
 21
119.651
  0
LINE
  8
0
 10
248.439
 20
119.651
 11
248.42
 21
119.75
  0
LINE
  8
0
 10
248.42
 20
119.75
 11
248.407
 21
119.849
  0
LINE
  8
0
 10
248.407
 20
119.849
 11
248.401
 21
119.95
  0
LINE
  8
0
 10
248.401
 20
119.95
 11
248.401
 21
120.05
  0
LINE
  8
0
 10
248.401
 20
120.05
 11
248.407
 21
120.151
  0
LINE
  8
0
 10
248.407
 20
120.151
 11
248.42
 21
120.25
  0
LINE
  8
0
 10
248.42
 20
120.25
 11
248.439
 21
120.349
  0
LINE
  8
0
 10
248.439
 20
120.349
 11
248.464
 21
120.446
  0
LINE
  8
0
 10
248.464
 20
120.446
 11
248.495
 21
120.542
  0
LINE
  8
0
 10
248.495
 20
120.542
 11
248.532
 21
120.635
  0
LINE
  8
0
 10
248.532
 20
120.635
 11
248.574
 21
120.726
  0
LINE
  8
0
 10
248.574
 20
120.726
 11
248.623
 21
120.814
  0
LINE
  8
0
 10
248.623
 20
120.814
 11
248.677
 21
120.899
  0
LINE
  8
0
 10
248.677
 20
120.899
 11
248.736
 21
120.981
  0
LINE
  8
0
 10
248.736
 20
120.981
 11
248.8
 21
121.058
  0
LINE
  8
0
 10
248.8
 20
121.058
 11
248.869
 21
121.131
  0
LINE
  8
0
 10
248.869
 20
121.131
 11
248.942
 21
121.2
  0
LINE
  8
0
 10
248.942
 20
121.2
 11
249.019
 21
121.264
  0
LINE
  8
0
 10
249.019
 20
121.264
 11
249.101
 21
121.323
  0
LINE
  8
0
 10
249.101
 20
121.323
 11
249.186
 21
121.377
  0
LINE
  8
0
 10
249.186
 20
121.377
 11
249.274
 21
121.426
  0
LINE
  8
0
 10
249.274
 20
121.426
 11
249.365
 21
121.468
  0
LINE
  8
0
 10
249.365
 20
121.468
 11
249.458
 21
121.505
  0
LINE
  8
0
 10
249.458
 20
121.505
 11
249.554
 21
121.536
  0
LINE
  8
0
 10
249.554
 20
121.536
 11
249.651
 21
121.561
  0
LINE
  8
0
 10
249.651
 20
121.561
 11
249.75
 21
121.58
  0
LINE
  8
0
 10
249.75
 20
121.58
 11
249.849
 21
121.593
  0
LINE
  8
0
 10
249.849
 20
121.593
 11
249.95
 21
121.599
  0
LINE
  8
0
 10
249.95
 20
121.599
 11
390
 21
121.6
  0
LINE
  8
0
 10
390
 20
121.6
 11
390.1
 21
121.597
  0
LINE
  8
0
 10
390.1
 20
121.597
 11
390.201
 21
121.587
  0
LINE
  8
0
 10
390.201
 20
121.587
 11
390.3
 21
121.572
  0
LINE
  8
0
 10
390.3
 20
121.572
 11
390.398
 21
121.55
  0
LINE
  8
0
 10
390.398
 20
121.55
 11
390.494
 21
121.522
  0
LINE
  8
0
 10
390.494
 20
121.522
 11
390.589
 21
121.488
  0
LINE
  8
0
 10
390.589
 20
121.488
 11
390.681
 21
121.448
  0
LINE
  8
0
 10
390.681
 20
121.448
 11
390.771
 21
121.402
  0
LINE
  8
0
 10
390.771
 20
121.402
 11
390.857
 21
121.351
  0
LINE
  8
0
 10
390.857
 20
121.351
 11
390.94
 21
121.294
  0
LINE
  8
0
 10
390.94
 20
121.294
 11
391.02
 21
121.233
  0
LINE
  8
0
 10
391.02
 20
121.233
 11
391.095
 21
121.166
  0
LINE
  8
0
 10
391.095
 20
121.166
 11
391.166
 21
121.095
  0
LINE
  8
0
 10
391.166
 20
121.095
 11
391.233
 21
121.02
  0
LINE
  8
0
 10
391.233
 20
121.02
 11
391.294
 21
120.94
  0
LINE
  8
0
 10
391.294
 20
120.94
 11
391.351
 21
120.857
  0
LINE
  8
0
 10
391.351
 20
120.857
 11
391.402
 21
120.771
  0
LINE
  8
0
 10
391.402
 20
120.771
 11
391.448
 21
120.681
  0
LINE
  8
0
 10
391.448
 20
120.681
 11
391.488
 21
120.589
  0
LINE
  8
0
 10
391.488
 20
120.589
 11
391.522
 21
120.494
  0
LINE
  8
0
 10
391.522
 20
120.494
 11
391.55
 21
120.398
  0
LINE
  8
0
 10
391.55
 20
120.398
 11
391.572
 21
120.3
  0
LINE
  8
0
 10
391.572
 20
120.3
 11
391.587
 21
120.201
  0
LINE
  8
0
 10
391.587
 20
120.201
 11
391.597
 21
120.1
  0
LINE
  8
0
 10
391.597
 20
120.1
 11
391.6
 21
120
  0
LINE
  8
0
 10
391.6
 20
120
 11
391.597
 21
119.9
  0
LINE
  8
0
 10
391.597
 20
119.9
 11
391.587
 21
119.799
  0
LINE
  8
0
 10
391.587
 20
119.799
 11
391.572
 21
119.7
  0
LINE
  8
0
 10
391.572
 20
119.7
 11
391.55
 21
119.602
  0
LINE
  8
0
 10
391.55
 20
119.602
 11
391.522
 21
119.506
  0
LINE
  8
0
 10
391.522
 20
119.506
 11
391.488
 21
119.411
  0
LINE
  8
0
 10
391.488
 20
119.411
 11
391.448
 21
119.319
  0
LINE
  8
0
 10
391.448
 20
119.319
 11
391.402
 21
119.229
  0
LINE
  8
0
 10
391.402
 20
119.229
 11
391.351
 21
119.143
  0
LINE
  8
0
 10
391.351
 20
119.143
 11
391.294
 21
119.06
  0
LINE
  8
0
 10
391.294
 20
119.06
 11
391.233
 21
118.98
  0
LINE
  8
0
 10
391.233
 20
118.98
 11
391.166
 21
118.905
  0
LINE
  8
0
 10
391.166
 20
118.905
 11
391.095
 21
118.834
  0
LINE
  8
0
 10
391.095
 20
118.834
 11
391.02
 21
118.767
  0
LINE
  8
0
 10
391.02
 20
118.767
 11
390.94
 21
118.706
  0
LINE
  8
0
 10
390.94
 20
118.706
 11
390.857
 21
118.649
  0
LINE
  8
0
 10
390.857
 20
118.649
 11
390.771
 21
118.598
  0
LINE
  8
0
 10
390.771
 20
118.598
 11
390.681
 21
118.552
  0
LINE
  8
0
 10
390.681
 20
118.552
 11
390.589
 21
118.512
  0
LINE
  8
0
 10
390.589
 20
118.512
 11
390.494
 21
118.478
  0
LINE
  8
0
 10
390.494
 20
118.478
 11
390.398
 21
118.45
  0
LINE
  8
0
 10
390.398
 20
118.45
 11
390.3
 21
118.428
  0
LINE
  8
0
 10
390.3
 20
118.428
 11
390.201
 21
118.413
  0
LINE
  8
0
 10
390.201
 20
118.413
 11
390.1
 21
118.403
  0
LINE
  8
0
 10
390.1
 20
118.403
 11
390
 21
118.4
  0
LINE
  8
0
 10
390
 20
118.4
 11
249.95
 21
118.401
  0
LINE
  8
0
 10
239.871
 20
111.902
 11
239.743
 21
111.908
  0
LINE
  8
0
 10
239.743
 20
111.908
 11
239.614
 21
111.918
  0
LINE
  8
0
 10
239.614
 20
111.918
 11
239.486
 21
111.932
  0
LINE
  8
0
 10
239.486
 20
111.932
 11
239.359
 21
111.95
  0
LINE
  8
0
 10
239.359
 20
111.95
 11
239.232
 21
111.973
  0
LINE
  8
0
 10
239.232
 20
111.973
 11
239.106
 21
111.999
  0
LINE
  8
0
 10
239.106
 20
111.999
 11
238.98
 21
112.029
  0
LINE
  8
0
 10
238.98
 20
112.029
 11
238.856
 21
112.063
  0
LINE
  8
0
 10
238.856
 20
112.063
 11
238.733
 21
112.101
  0
LINE
  8
0
 10
238.733
 20
112.101
 11
238.611
 21
112.142
  0
LINE
  8
0
 10
238.611
 20
112.142
 11
238.491
 21
112.188
  0
LINE
  8
0
 10
238.491
 20
112.188
 11
238.372
 21
112.237
  0
LINE
  8
0
 10
238.372
 20
112.237
 11
238.254
 21
112.29
  0
LINE
  8
0
 10
238.254
 20
112.29
 11
238.139
 21
112.347
  0
LINE
  8
0
 10
238.139
 20
112.347
 11
238.025
 21
112.407
  0
LINE
  8
0
 10
238.025
 20
112.407
 11
237.913
 21
112.471
  0
LINE
  8
0
 10
237.913
 20
112.471
 11
237.803
 21
112.538
  0
LINE
  8
0
 10
237.803
 20
112.538
 11
237.695
 21
112.609
  0
LINE
  8
0
 10
237.695
 20
112.609
 11
237.59
 21
112.683
  0
LINE
  8
0
 10
237.59
 20
112.683
 11
237.487
 21
112.76
  0
LINE
  8
0
 10
237.487
 20
112.76
 11
237.387
 21
112.841
  0
LINE
  8
0
 10
237.387
 20
112.841
 11
237.289
 21
112.925
  0
LINE
  8
0
 10
237.289
 20
112.925
 11
237.193
 21
113.011
  0
LINE
  8
0
 10
237.193
 20
113.011
 11
237.101
 21
113.101
  0
LINE
  8
0
 10
237.101
 20
113.101
 11
237.011
 21
113.193
  0
LINE
  8
0
 10
237.011
 20
113.193
 11
236.925
 21
113.289
  0
LINE
  8
0
 10
236.925
 20
113.289
 11
236.841
 21
113.387
  0
LINE
  8
0
 10
236.841
 20
113.387
 11
236.76
 21
113.487
  0
LINE
  8
0
 10
236.76
 20
113.487
 11
236.683
 21
113.59
  0
LINE
  8
0
 10
236.683
 20
113.59
 11
236.609
 21
113.695
  0
LINE
  8
0
 10
236.609
 20
113.695
 11
236.538
 21
113.803
  0
LINE
  8
0
 10
236.538
 20
113.803
 11
236.471
 21
113.913
  0
LINE
  8
0
 10
236.471
 20
113.913
 11
236.407
 21
114.025
  0
LINE
  8
0
 10
236.407
 20
114.025
 11
236.347
 21
114.139
  0
LINE
  8
0
 10
236.347
 20
114.139
 11
236.29
 21
114.254
  0
LINE
  8
0
 10
236.29
 20
114.254
 11
236.237
 21
114.372
  0
LINE
  8
0
 10
236.237
 20
114.372
 11
236.188
 21
114.491
  0
LINE
  8
0
 10
236.188
 20
114.491
 11
236.142
 21
114.611
  0
LINE
  8
0
 10
236.142
 20
114.611
 11
236.101
 21
114.733
  0
LINE
  8
0
 10
236.101
 20
114.733
 11
236.063
 21
114.856
  0
LINE
  8
0
 10
236.063
 20
114.856
 11
236.029
 21
114.98
  0
LINE
  8
0
 10
236.029
 20
114.98
 11
235.999
 21
115.106
  0
LINE
  8
0
 10
235.999
 20
115.106
 11
235.973
 21
115.232
  0
LINE
  8
0
 10
235.973
 20
115.232
 11
235.95
 21
115.359
  0
LINE
  8
0
 10
235.95
 20
115.359
 11
235.932
 21
115.486
  0
LINE
  8
0
 10
235.932
 20
115.486
 11
235.918
 21
115.614
  0
LINE
  8
0
 10
235.918
 20
115.614
 11
235.908
 21
115.743
  0
LINE
  8
0
 10
235.908
 20
115.743
 11
235.902
 21
115.871
  0
LINE
  8
0
 10
235.902
 20
115.871
 11
235.9
 21
116
  0
LINE
  8
0
 10
235.9
 20
116
 11
235.902
 21
116.129
  0
LINE
  8
0
 10
235.902
 20
116.129
 11
235.908
 21
116.257
  0
LINE
  8
0
 10
235.908
 20
116.257
 11
235.918
 21
116.386
  0
LINE
  8
0
 10
235.918
 20
116.386
 11
235.932
 21
116.514
  0
LINE
  8
0
 10
235.932
 20
116.514
 11
235.95
 21
116.641
  0
LINE
  8
0
 10
235.95
 20
116.641
 11
235.973
 21
116.768
  0
LINE
  8
0
 10
235.973
 20
116.768
 11
235.999
 21
116.894
  0
LINE
  8
0
 10
235.999
 20
116.894
 11
236.029
 21
117.02
  0
LINE
  8
0
 10
236.029
 20
117.02
 11
236.063
 21
117.144
  0
LINE
  8
0
 10
236.063
 20
117.144
 11
236.101
 21
117.267
  0
LINE
  8
0
 10
236.101
 20
117.267
 11
236.142
 21
117.389
  0
LINE
  8
0
 10
236.142
 20
117.389
 11
236.188
 21
117.509
  0
LINE
  8
0
 10
236.188
 20
117.509
 11
236.237
 21
117.628
  0
LINE
  8
0
 10
236.237
 20
117.628
 11
236.29
 21
117.746
  0
LINE
  8
0
 10
236.29
 20
117.746
 11
236.347
 21
117.861
  0
LINE
  8
0
 10
236.347
 20
117.861
 11
236.407
 21
117.975
  0
LINE
  8
0
 10
236.407
 20
117.975
 11
236.471
 21
118.087
  0
LINE
  8
0
 10
236.471
 20
118.087
 11
236.538
 21
118.197
  0
LINE
  8
0
 10
236.538
 20
118.197
 11
236.609
 21
118.305
  0
LINE
  8
0
 10
236.609
 20
118.305
 11
236.683
 21
118.41
  0
LINE
  8
0
 10
236.683
 20
118.41
 11
236.76
 21
118.513
  0
LINE
  8
0
 10
236.76
 20
118.513
 11
236.841
 21
118.613
  0
LINE
  8
0
 10
236.841
 20
118.613
 11
236.925
 21
118.711
  0
LINE
  8
0
 10
236.925
 20
118.711
 11
237.011
 21
118.807
  0
LINE
  8
0
 10
237.011
 20
118.807
 11
237.101
 21
118.899
  0
LINE
  8
0
 10
237.101
 20
118.899
 11
237.193
 21
118.989
  0
LINE
  8
0
 10
237.193
 20
118.989
 11
237.289
 21
119.075
  0
LINE
  8
0
 10
237.289
 20
119.075
 11
237.387
 21
119.159
  0
LINE
  8
0
 10
237.387
 20
119.159
 11
237.487
 21
119.24
  0
LINE
  8
0
 10
237.487
 20
119.24
 11
237.59
 21
119.317
  0
LINE
  8
0
 10
237.59
 20
119.317
 11
237.695
 21
119.391
  0
LINE
  8
0
 10
237.695
 20
119.391
 11
237.803
 21
119.462
  0
LINE
  8
0
 10
237.803
 20
119.462
 11
237.913
 21
119.529
  0
LINE
  8
0
 10
237.913
 20
119.529
 11
238.025
 21
119.593
  0
LINE
  8
0
 10
238.025
 20
119.593
 11
238.139
 21
119.653
  0
LINE
  8
0
 10
238.139
 20
119.653
 11
238.254
 21
119.71
  0
LINE
  8
0
 10
238.254
 20
119.71
 11
238.372
 21
119.763
  0
LINE
  8
0
 10
238.372
 20
119.763
 11
238.491
 21
119.812
  0
LINE
  8
0
 10
238.491
 20
119.812
 11
238.611
 21
119.858
  0
LINE
  8
0
 10
238.611
 20
119.858
 11
238.733
 21
119.899
  0
LINE
  8
0
 10
238.733
 20
119.899
 11
238.856
 21
119.937
  0
LINE
  8
0
 10
238.856
 20
119.937
 11
238.98
 21
119.971
  0
LINE
  8
0
 10
238.98
 20
119.971
 11
239.106
 21
120.001
  0
LINE
  8
0
 10
239.106
 20
120.001
 11
239.232
 21
120.027
  0
LINE
  8
0
 10
239.232
 20
120.027
 11
239.359
 21
120.05
  0
LINE
  8
0
 10
239.359
 20
120.05
 11
239.486
 21
120.068
  0
LINE
  8
0
 10
239.486
 20
120.068
 11
239.614
 21
120.082
  0
LINE
  8
0
 10
239.614
 20
120.082
 11
239.743
 21
120.092
  0
LINE
  8
0
 10
239.743
 20
120.092
 11
239.871
 21
120.098
  0
LINE
  8
0
 10
239.871
 20
120.098
 11
240
 21
120.1
  0
LINE
  8
0
 10
240
 20
120.1
 11
240.129
 21
120.098
  0
LINE
  8
0
 10
240.129
 20
120.098
 11
240.257
 21
120.092
  0
LINE
  8
0
 10
240.257
 20
120.092
 11
240.386
 21
120.082
  0
LINE
  8
0
 10
240.386
 20
120.082
 11
240.514
 21
120.068
  0
LINE
  8
0
 10
240.514
 20
120.068
 11
240.641
 21
120.05
  0
LINE
  8
0
 10
240.641
 20
120.05
 11
240.768
 21
120.027
  0
LINE
  8
0
 10
240.768
 20
120.027
 11
240.894
 21
120.001
  0
LINE
  8
0
 10
240.894
 20
120.001
 11
241.02
 21
119.971
  0
LINE
  8
0
 10
241.02
 20
119.971
 11
241.144
 21
119.937
  0
LINE
  8
0
 10
241.144
 20
119.937
 11
241.267
 21
119.899
  0
LINE
  8
0
 10
241.267
 20
119.899
 11
241.389
 21
119.858
  0
LINE
  8
0
 10
241.389
 20
119.858
 11
241.509
 21
119.812
  0
LINE
  8
0
 10
241.509
 20
119.812
 11
241.628
 21
119.763
  0
LINE
  8
0
 10
241.628
 20
119.763
 11
241.746
 21
119.71
  0
LINE
  8
0
 10
241.746
 20
119.71
 11
241.861
 21
119.653
  0
LINE
  8
0
 10
241.861
 20
119.653
 11
241.975
 21
119.593
  0
LINE
  8
0
 10
241.975
 20
119.593
 11
242.087
 21
119.529
  0
LINE
  8
0
 10
242.087
 20
119.529
 11
242.197
 21
119.462
  0
LINE
  8
0
 10
242.197
 20
119.462
 11
242.305
 21
119.391
  0
LINE
  8
0
 10
242.305
 20
119.391
 11
242.41
 21
119.317
  0
LINE
  8
0
 10
242.41
 20
119.317
 11
242.513
 21
119.24
  0
LINE
  8
0
 10
242.513
 20
119.24
 11
242.613
 21
119.159
  0
LINE
  8
0
 10
242.613
 20
119.159
 11
242.711
 21
119.075
  0
LINE
  8
0
 10
242.711
 20
119.075
 11
242.807
 21
118.989
  0
LINE
  8
0
 10
242.807
 20
118.989
 11
242.899
 21
118.899
  0
LINE
  8
0
 10
242.899
 20
118.899
 11
242.989
 21
118.807
  0
LINE
  8
0
 10
242.989
 20
118.807
 11
243.075
 21
118.711
  0
LINE
  8
0
 10
243.075
 20
118.711
 11
243.159
 21
118.613
  0
LINE
  8
0
 10
243.159
 20
118.613
 11
243.24
 21
118.513
  0
LINE
  8
0
 10
243.24
 20
118.513
 11
243.317
 21
118.41
  0
LINE
  8
0
 10
243.317
 20
118.41
 11
243.391
 21
118.305
  0
LINE
  8
0
 10
243.391
 20
118.305
 11
243.462
 21
118.197
  0
LINE
  8
0
 10
243.462
 20
118.197
 11
243.529
 21
118.087
  0
LINE
  8
0
 10
243.529
 20
118.087
 11
243.593
 21
117.975
  0
LINE
  8
0
 10
243.593
 20
117.975
 11
243.653
 21
117.861
  0
LINE
  8
0
 10
243.653
 20
117.861
 11
243.71
 21
117.746
  0
LINE
  8
0
 10
243.71
 20
117.746
 11
243.763
 21
117.628
  0
LINE
  8
0
 10
243.763
 20
117.628
 11
243.812
 21
117.509
  0
LINE
  8
0
 10
243.812
 20
117.509
 11
243.858
 21
117.389
  0
LINE
  8
0
 10
243.858
 20
117.389
 11
243.899
 21
117.267
  0
LINE
  8
0
 10
243.899
 20
117.267
 11
243.937
 21
117.144
  0
LINE
  8
0
 10
243.937
 20
117.144
 11
243.971
 21
117.02
  0
LINE
  8
0
 10
243.971
 20
117.02
 11
244.001
 21
116.894
  0
LINE
  8
0
 10
244.001
 20
116.894
 11
244.027
 21
116.768
  0
LINE
  8
0
 10
244.027
 20
116.768
 11
244.05
 21
116.641
  0
LINE
  8
0
 10
244.05
 20
116.641
 11
244.068
 21
116.514
  0
LINE
  8
0
 10
244.068
 20
116.514
 11
244.082
 21
116.386
  0
LINE
  8
0
 10
244.082
 20
116.386
 11
244.092
 21
116.257
  0
LINE
  8
0
 10
244.092
 20
116.257
 11
244.098
 21
116.129
  0
LINE
  8
0
 10
244.098
 20
116.129
 11
244.1
 21
116
  0
LINE
  8
0
 10
244.1
 20
116
 11
244.098
 21
115.871
  0
LINE
  8
0
 10
244.098
 20
115.871
 11
244.092
 21
115.743
  0
LINE
  8
0
 10
244.092
 20
115.743
 11
244.082
 21
115.614
  0
LINE
  8
0
 10
244.082
 20
115.614
 11
244.068
 21
115.486
  0
LINE
  8
0
 10
244.068
 20
115.486
 11
244.05
 21
115.359
  0
LINE
  8
0
 10
244.05
 20
115.359
 11
244.027
 21
115.232
  0
LINE
  8
0
 10
244.027
 20
115.232
 11
244.001
 21
115.106
  0
LINE
  8
0
 10
244.001
 20
115.106
 11
243.971
 21
114.98
  0
LINE
  8
0
 10
243.971
 20
114.98
 11
243.937
 21
114.856
  0
LINE
  8
0
 10
243.937
 20
114.856
 11
243.899
 21
114.733
  0
LINE
  8
0
 10
243.899
 20
114.733
 11
243.858
 21
114.611
  0
LINE
  8
0
 10
243.858
 20
114.611
 11
243.812
 21
114.491
  0
LINE
  8
0
 10
243.812
 20
114.491
 11
243.763
 21
114.372
  0
LINE
  8
0
 10
243.763
 20
114.372
 11
243.71
 21
114.254
  0
LINE
  8
0
 10
243.71
 20
114.254
 11
243.653
 21
114.139
  0
LINE
  8
0
 10
243.653
 20
114.139
 11
243.593
 21
114.025
  0
LINE
  8
0
 10
243.593
 20
114.025
 11
243.529
 21
113.913
  0
LINE
  8
0
 10
243.529
 20
113.913
 11
243.462
 21
113.803
  0
LINE
  8
0
 10
243.462
 20
113.803
 11
243.391
 21
113.695
  0
LINE
  8
0
 10
243.391
 20
113.695
 11
243.317
 21
113.59
  0
LINE
  8
0
 10
243.317
 20
113.59
 11
243.24
 21
113.487
  0
LINE
  8
0
 10
243.24
 20
113.487
 11
243.159
 21
113.387
  0
LINE
  8
0
 10
243.159
 20
113.387
 11
243.075
 21
113.289
  0
LINE
  8
0
 10
243.075
 20
113.289
 11
242.989
 21
113.193
  0
LINE
  8
0
 10
242.989
 20
113.193
 11
242.899
 21
113.101
  0
LINE
  8
0
 10
242.899
 20
113.101
 11
242.807
 21
113.011
  0
LINE
  8
0
 10
242.807
 20
113.011
 11
242.711
 21
112.925
  0
LINE
  8
0
 10
242.711
 20
112.925
 11
242.613
 21
112.841
  0
LINE
  8
0
 10
242.613
 20
112.841
 11
242.513
 21
112.76
  0
LINE
  8
0
 10
242.513
 20
112.76
 11
242.41
 21
112.683
  0
LINE
  8
0
 10
242.41
 20
112.683
 11
242.305
 21
112.609
  0
LINE
  8
0
 10
242.305
 20
112.609
 11
242.197
 21
112.538
  0
LINE
  8
0
 10
242.197
 20
112.538
 11
242.087
 21
112.471
  0
LINE
  8
0
 10
242.087
 20
112.471
 11
241.975
 21
112.407
  0
LINE
  8
0
 10
241.975
 20
112.407
 11
241.861
 21
112.347
  0
LINE
  8
0
 10
241.861
 20
112.347
 11
241.746
 21
112.29
  0
LINE
  8
0
 10
241.746
 20
112.29
 11
241.628
 21
112.237
  0
LINE
  8
0
 10
241.628
 20
112.237
 11
241.509
 21
112.188
  0
LINE
  8
0
 10
241.509
 20
112.188
 11
241.389
 21
112.142
  0
LINE
  8
0
 10
241.389
 20
112.142
 11
241.267
 21
112.101
  0
LINE
  8
0
 10
241.267
 20
112.101
 11
241.144
 21
112.063
  0
LINE
  8
0
 10
241.144
 20
112.063
 11
241.02
 21
112.029
  0
LINE
  8
0
 10
241.02
 20
112.029
 11
240.894
 21
111.999
  0
LINE
  8
0
 10
240.894
 20
111.999
 11
240.768
 21
111.973
  0
LINE
  8
0
 10
240.768
 20
111.973
 11
240.641
 21
111.95
  0
LINE
  8
0
 10
240.641
 20
111.95
 11
240.514
 21
111.932
  0
LINE
  8
0
 10
240.514
 20
111.932
 11
240.386
 21
111.918
  0
LINE
  8
0
 10
240.386
 20
111.918
 11
240.257
 21
111.908
  0
LINE
  8
0
 10
240.257
 20
111.908
 11
240.129
 21
111.902
  0
LINE
  8
0
 10
240.129
 20
111.902
 11
240
 21
111.9
  0
LINE
  8
0
 10
240
 20
111.9
 11
239.871
 21
111.902
  0
LINE
  8
0
 10
379.871
 20
95.902
 11
379.743
 21
95.9081
  0
LINE
  8
0
 10
379.743
 20
95.9081
 11
379.614
 21
95.9182
  0
LINE
  8
0
 10
379.614
 20
95.9182
 11
379.486
 21
95.9323
  0
LINE
  8
0
 10
379.486
 20
95.9323
 11
379.359
 21
95.9505
  0
LINE
  8
0
 10
379.359
 20
95.9505
 11
379.232
 21
95.9726
  0
LINE
  8
0
 10
379.232
 20
95.9726
 11
379.106
 21
95.9987
  0
LINE
  8
0
 10
379.106
 20
95.9987
 11
378.98
 21
96.0288
  0
LINE
  8
0
 10
378.98
 20
96.0288
 11
378.856
 21
96.0628
  0
LINE
  8
0
 10
378.856
 20
96.0628
 11
378.733
 21
96.1007
  0
LINE
  8
0
 10
378.733
 20
96.1007
 11
378.611
 21
96.1424
  0
LINE
  8
0
 10
378.611
 20
96.1424
 11
378.491
 21
96.1879
  0
LINE
  8
0
 10
378.491
 20
96.1879
 11
378.372
 21
96.2372
  0
LINE
  8
0
 10
378.372
 20
96.2372
 11
378.254
 21
96.2902
  0
LINE
  8
0
 10
378.254
 20
96.2902
 11
378.139
 21
96.3469
  0
LINE
  8
0
 10
378.139
 20
96.3469
 11
378.025
 21
96.4071
  0
LINE
  8
0
 10
378.025
 20
96.4071
 11
377.913
 21
96.4709
  0
LINE
  8
0
 10
377.913
 20
96.4709
 11
377.803
 21
96.5383
  0
LINE
  8
0
 10
377.803
 20
96.5383
 11
377.695
 21
96.609
  0
LINE
  8
0
 10
377.695
 20
96.609
 11
377.59
 21
96.683
  0
LINE
  8
0
 10
377.59
 20
96.683
 11
377.487
 21
96.7604
  0
LINE
  8
0
 10
377.487
 20
96.7604
 11
377.387
 21
96.8409
  0
LINE
  8
0
 10
377.387
 20
96.8409
 11
377.289
 21
96.9245
  0
LINE
  8
0
 10
377.289
 20
96.9245
 11
377.193
 21
97.0112
  0
LINE
  8
0
 10
377.193
 20
97.0112
 11
377.101
 21
97.1009
  0
LINE
  8
0
 10
377.101
 20
97.1009
 11
377.011
 21
97.1933
  0
LINE
  8
0
 10
377.011
 20
97.1933
 11
376.925
 21
97.2886
  0
LINE
  8
0
 10
376.925
 20
97.2886
 11
376.841
 21
97.3866
  0
LINE
  8
0
 10
376.841
 20
97.3866
 11
376.76
 21
97.4871
  0
LINE
  8
0
 10
376.76
 20
97.4871
 11
376.683
 21
97.5901
  0
LINE
  8
0
 10
376.683
 20
97.5901
 11
376.609
 21
97.6954
  0
LINE
  8
0
 10
376.609
 20
97.6954
 11
376.538
 21
97.8031
  0
LINE
  8
0
 10
376.538
 20
97.8031
 11
376.471
 21
97.9129
  0
LINE
  8
0
 10
376.471
 20
97.9129
 11
376.407
 21
98.0248
  0
LINE
  8
0
 10
376.407
 20
98.0248
 11
376.347
 21
98.1386
  0
LINE
  8
0
 10
376.347
 20
98.1386
 11
376.29
 21
98.2543
  0
LINE
  8
0
 10
376.29
 20
98.2543
 11
376.237
 21
98.3717
  0
LINE
  8
0
 10
376.237
 20
98.3717
 11
376.188
 21
98.4907
  0
LINE
  8
0
 10
376.188
 20
98.4907
 11
376.142
 21
98.6112
  0
LINE
  8
0
 10
376.142
 20
98.6112
 11
376.101
 21
98.733
  0
LINE
  8
0
 10
376.101
 20
98.733
 11
376.063
 21
98.8561
  0
LINE
  8
0
 10
376.063
 20
98.8561
 11
376.029
 21
98.9804
  0
LINE
  8
0
 10
376.029
 20
98.9804
 11
375.999
 21
99.1056
  0
LINE
  8
0
 10
375.999
 20
99.1056
 11
375.973
 21
99.2317
  0
LINE
  8
0
 10
375.973
 20
99.2317
 11
375.95
 21
99.3586
  0
LINE
  8
0
 10
375.95
 20
99.3586
 11
375.932
 21
99.4861
  0
LINE
  8
0
 10
375.932
 20
99.4861
 11
375.918
 21
99.6142
  0
LINE
  8
0
 10
375.918
 20
99.6142
 11
375.908
 21
99.7426
  0
LINE
  8
0
 10
375.908
 20
99.7426
 11
375.902
 21
99.8712
  0
LINE
  8
0
 10
375.902
 20
99.8712
 11
375.9
 21
100
  0
LINE
  8
0
 10
375.9
 20
100
 11
375.902
 21
100.129
  0
LINE
  8
0
 10
375.902
 20
100.129
 11
375.908
 21
100.257
  0
LINE
  8
0
 10
375.908
 20
100.257
 11
375.918
 21
100.386
  0
LINE
  8
0
 10
375.918
 20
100.386
 11
375.932
 21
100.514
  0
LINE
  8
0
 10
375.932
 20
100.514
 11
375.95
 21
100.641
  0
LINE
  8
0
 10
375.95
 20
100.641
 11
375.973
 21
100.768
  0
LINE
  8
0
 10
375.973
 20
100.768
 11
375.999
 21
100.894
  0
LINE
  8
0
 10
375.999
 20
100.894
 11
376.029
 21
101.02
  0
LINE
  8
0
 10
376.029
 20
101.02
 11
376.063
 21
101.144
  0
LINE
  8
0
 10
376.063
 20
101.144
 11
376.101
 21
101.267
  0
LINE
  8
0
 10
376.101
 20
101.267
 11
376.142
 21
101.389
  0
LINE
  8
0
 10
376.142
 20
101.389
 11
376.188
 21
101.509
  0
LINE
  8
0
 10
376.188
 20
101.509
 11
376.237
 21
101.628
  0
LINE
  8
0
 10
376.237
 20
101.628
 11
376.29
 21
101.746
  0
LINE
  8
0
 10
376.29
 20
101.746
 11
376.347
 21
101.861
  0
LINE
  8
0
 10
376.347
 20
101.861
 11
376.407
 21
101.975
  0
LINE
  8
0
 10
376.407
 20
101.975
 11
376.471
 21
102.087
  0
LINE
  8
0
 10
376.471
 20
102.087
 11
376.538
 21
102.197
  0
LINE
  8
0
 10
376.538
 20
102.197
 11
376.609
 21
102.305
  0
LINE
  8
0
 10
376.609
 20
102.305
 11
376.683
 21
102.41
  0
LINE
  8
0
 10
376.683
 20
102.41
 11
376.76
 21
102.513
  0
LINE
  8
0
 10
376.76
 20
102.513
 11
376.841
 21
102.613
  0
LINE
  8
0
 10
376.841
 20
102.613
 11
376.925
 21
102.711
  0
LINE
  8
0
 10
376.925
 20
102.711
 11
377.011
 21
102.807
  0
LINE
  8
0
 10
377.011
 20
102.807
 11
377.101
 21
102.899
  0
LINE
  8
0
 10
377.101
 20
102.899
 11
377.193
 21
102.989
  0
LINE
  8
0
 10
377.193
 20
102.989
 11
377.289
 21
103.075
  0
LINE
  8
0
 10
377.289
 20
103.075
 11
377.387
 21
103.159
  0
LINE
  8
0
 10
377.387
 20
103.159
 11
377.487
 21
103.24
  0
LINE
  8
0
 10
377.487
 20
103.24
 11
377.59
 21
103.317
  0
LINE
  8
0
 10
377.59
 20
103.317
 11
377.695
 21
103.391
  0
LINE
  8
0
 10
377.695
 20
103.391
 11
377.803
 21
103.462
  0
LINE
  8
0
 10
377.803
 20
103.462
 11
377.913
 21
103.529
  0
LINE
  8
0
 10
377.913
 20
103.529
 11
378.025
 21
103.593
  0
LINE
  8
0
 10
378.025
 20
103.593
 11
378.139
 21
103.653
  0
LINE
  8
0
 10
378.139
 20
103.653
 11
378.254
 21
103.71
  0
LINE
  8
0
 10
378.254
 20
103.71
 11
378.372
 21
103.763
  0
LINE
  8
0
 10
378.372
 20
103.763
 11
378.491
 21
103.812
  0
LINE
  8
0
 10
378.491
 20
103.812
 11
378.611
 21
103.858
  0
LINE
  8
0
 10
378.611
 20
103.858
 11
378.733
 21
103.899
  0
LINE
  8
0
 10
378.733
 20
103.899
 11
378.856
 21
103.937
  0
LINE
  8
0
 10
378.856
 20
103.937
 11
378.98
 21
103.971
  0
LINE
  8
0
 10
378.98
 20
103.971
 11
379.106
 21
104.001
  0
LINE
  8
0
 10
379.106
 20
104.001
 11
379.232
 21
104.027
  0
LINE
  8
0
 10
379.232
 20
104.027
 11
379.359
 21
104.05
  0
LINE
  8
0
 10
379.359
 20
104.05
 11
379.486
 21
104.068
  0
LINE
  8
0
 10
379.486
 20
104.068
 11
379.614
 21
104.082
  0
LINE
  8
0
 10
379.614
 20
104.082
 11
379.743
 21
104.092
  0
LINE
  8
0
 10
379.743
 20
104.092
 11
379.871
 21
104.098
  0
LINE
  8
0
 10
379.871
 20
104.098
 11
380
 21
104.1
  0
LINE
  8
0
 10
380
 20
104.1
 11
380.129
 21
104.098
  0
LINE
  8
0
 10
380.129
 20
104.098
 11
380.257
 21
104.092
  0
LINE
  8
0
 10
380.257
 20
104.092
 11
380.386
 21
104.082
  0
LINE
  8
0
 10
380.386
 20
104.082
 11
380.514
 21
104.068
  0
LINE
  8
0
 10
380.514
 20
104.068
 11
380.641
 21
104.05
  0
LINE
  8
0
 10
380.641
 20
104.05
 11
380.768
 21
104.027
  0
LINE
  8
0
 10
380.768
 20
104.027
 11
380.894
 21
104.001
  0
LINE
  8
0
 10
380.894
 20
104.001
 11
381.02
 21
103.971
  0
LINE
  8
0
 10
381.02
 20
103.971
 11
381.144
 21
103.937
  0
LINE
  8
0
 10
381.144
 20
103.937
 11
381.267
 21
103.899
  0
LINE
  8
0
 10
381.267
 20
103.899
 11
381.389
 21
103.858
  0
LINE
  8
0
 10
381.389
 20
103.858
 11
381.509
 21
103.812
  0
LINE
  8
0
 10
381.509
 20
103.812
 11
381.628
 21
103.763
  0
LINE
  8
0
 10
381.628
 20
103.763
 11
381.746
 21
103.71
  0
LINE
  8
0
 10
381.746
 20
103.71
 11
381.861
 21
103.653
  0
LINE
  8
0
 10
381.861
 20
103.653
 11
381.975
 21
103.593
  0
LINE
  8
0
 10
381.975
 20
103.593
 11
382.087
 21
103.529
  0
LINE
  8
0
 10
382.087
 20
103.529
 11
382.197
 21
103.462
  0
LINE
  8
0
 10
382.197
 20
103.462
 11
382.305
 21
103.391
  0
LINE
  8
0
 10
382.305
 20
103.391
 11
382.41
 21
103.317
  0
LINE
  8
0
 10
382.41
 20
103.317
 11
382.513
 21
103.24
  0
LINE
  8
0
 10
382.513
 20
103.24
 11
382.613
 21
103.159
  0
LINE
  8
0
 10
382.613
 20
103.159
 11
382.711
 21
103.075
  0
LINE
  8
0
 10
382.711
 20
103.075
 11
382.807
 21
102.989
  0
LINE
  8
0
 10
382.807
 20
102.989
 11
382.899
 21
102.899
  0
LINE
  8
0
 10
382.899
 20
102.899
 11
382.989
 21
102.807
  0
LINE
  8
0
 10
382.989
 20
102.807
 11
383.075
 21
102.711
  0
LINE
  8
0
 10
383.075
 20
102.711
 11
383.159
 21
102.613
  0
LINE
  8
0
 10
383.159
 20
102.613
 11
383.24
 21
102.513
  0
LINE
  8
0
 10
383.24
 20
102.513
 11
383.317
 21
102.41
  0
LINE
  8
0
 10
383.317
 20
102.41
 11
383.391
 21
102.305
  0
LINE
  8
0
 10
383.391
 20
102.305
 11
383.462
 21
102.197
  0
LINE
  8
0
 10
383.462
 20
102.197
 11
383.529
 21
102.087
  0
LINE
  8
0
 10
383.529
 20
102.087
 11
383.593
 21
101.975
  0
LINE
  8
0
 10
383.593
 20
101.975
 11
383.653
 21
101.861
  0
LINE
  8
0
 10
383.653
 20
101.861
 11
383.71
 21
101.746
  0
LINE
  8
0
 10
383.71
 20
101.746
 11
383.763
 21
101.628
  0
LINE
  8
0
 10
383.763
 20
101.628
 11
383.812
 21
101.509
  0
LINE
  8
0
 10
383.812
 20
101.509
 11
383.858
 21
101.389
  0
LINE
  8
0
 10
383.858
 20
101.389
 11
383.899
 21
101.267
  0
LINE
  8
0
 10
383.899
 20
101.267
 11
383.937
 21
101.144
  0
LINE
  8
0
 10
383.937
 20
101.144
 11
383.971
 21
101.02
  0
LINE
  8
0
 10
383.971
 20
101.02
 11
384.001
 21
100.894
  0
LINE
  8
0
 10
384.001
 20
100.894
 11
384.027
 21
100.768
  0
LINE
  8
0
 10
384.027
 20
100.768
 11
384.05
 21
100.641
  0
LINE
  8
0
 10
384.05
 20
100.641
 11
384.068
 21
100.514
  0
LINE
  8
0
 10
384.068
 20
100.514
 11
384.082
 21
100.386
  0
LINE
  8
0
 10
384.082
 20
100.386
 11
384.092
 21
100.257
  0
LINE
  8
0
 10
384.092
 20
100.257
 11
384.098
 21
100.129
  0
LINE
  8
0
 10
384.098
 20
100.129
 11
384.1
 21
100
  0
LINE
  8
0
 10
384.1
 20
100
 11
384.098
 21
99.8712
  0
LINE
  8
0
 10
384.098
 20
99.8712
 11
384.092
 21
99.7426
  0
LINE
  8
0
 10
384.092
 20
99.7426
 11
384.082
 21
99.6142
  0
LINE
  8
0
 10
384.082
 20
99.6142
 11
384.068
 21
99.4861
  0
LINE
  8
0
 10
384.068
 20
99.4861
 11
384.05
 21
99.3586
  0
LINE
  8
0
 10
384.05
 20
99.3586
 11
384.027
 21
99.2317
  0
LINE
  8
0
 10
384.027
 20
99.2317
 11
384.001
 21
99.1056
  0
LINE
  8
0
 10
384.001
 20
99.1056
 11
383.971
 21
98.9804
  0
LINE
  8
0
 10
383.971
 20
98.9804
 11
383.937
 21
98.8561
  0
LINE
  8
0
 10
383.937
 20
98.8561
 11
383.899
 21
98.733
  0
LINE
  8
0
 10
383.899
 20
98.733
 11
383.858
 21
98.6112
  0
LINE
  8
0
 10
383.858
 20
98.6112
 11
383.812
 21
98.4907
  0
LINE
  8
0
 10
383.812
 20
98.4907
 11
383.763
 21
98.3717
  0
LINE
  8
0
 10
383.763
 20
98.3717
 11
383.71
 21
98.2543
  0
LINE
  8
0
 10
383.71
 20
98.2543
 11
383.653
 21
98.1386
  0
LINE
  8
0
 10
383.653
 20
98.1386
 11
383.593
 21
98.0248
  0
LINE
  8
0
 10
383.593
 20
98.0248
 11
383.529
 21
97.9129
  0
LINE
  8
0
 10
383.529
 20
97.9129
 11
383.462
 21
97.8031
  0
LINE
  8
0
 10
383.462
 20
97.8031
 11
383.391
 21
97.6954
  0
LINE
  8
0
 10
383.391
 20
97.6954
 11
383.317
 21
97.5901
  0
LINE
  8
0
 10
383.317
 20
97.5901
 11
383.24
 21
97.4871
  0
LINE
  8
0
 10
383.24
 20
97.4871
 11
383.159
 21
97.3866
  0
LINE
  8
0
 10
383.159
 20
97.3866
 11
383.075
 21
97.2886
  0
LINE
  8
0
 10
383.075
 20
97.2886
 11
382.989
 21
97.1933
  0
LINE
  8
0
 10
382.989
 20
97.1933
 11
382.899
 21
97.1009
  0
LINE
  8
0
 10
382.899
 20
97.1009
 11
382.807
 21
97.0112
  0
LINE
  8
0
 10
382.807
 20
97.0112
 11
382.711
 21
96.9245
  0
LINE
  8
0
 10
382.711
 20
96.9245
 11
382.613
 21
96.8409
  0
LINE
  8
0
 10
382.613
 20
96.8409
 11
382.513
 21
96.7604
  0
LINE
  8
0
 10
382.513
 20
96.7604
 11
382.41
 21
96.683
  0
LINE
  8
0
 10
382.41
 20
96.683
 11
382.305
 21
96.609
  0
LINE
  8
0
 10
382.305
 20
96.609
 11
382.197
 21
96.5383
  0
LINE
  8
0
 10
382.197
 20
96.5383
 11
382.087
 21
96.4709
  0
LINE
  8
0
 10
382.087
 20
96.4709
 11
381.975
 21
96.4071
  0
LINE
  8
0
 10
381.975
 20
96.4071
 11
381.861
 21
96.3469
  0
LINE
  8
0
 10
381.861
 20
96.3469
 11
381.746
 21
96.2902
  0
LINE
  8
0
 10
381.746
 20
96.2902
 11
381.628
 21
96.2372
  0
LINE
  8
0
 10
381.628
 20
96.2372
 11
381.509
 21
96.1879
  0
LINE
  8
0
 10
381.509
 20
96.1879
 11
381.389
 21
96.1424
  0
LINE
  8
0
 10
381.389
 20
96.1424
 11
381.267
 21
96.1007
  0
LINE
  8
0
 10
381.267
 20
96.1007
 11
381.144
 21
96.0628
  0
LINE
  8
0
 10
381.144
 20
96.0628
 11
381.02
 21
96.0288
  0
LINE
  8
0
 10
381.02
 20
96.0288
 11
380.894
 21
95.9987
  0
LINE
  8
0
 10
380.894
 20
95.9987
 11
380.768
 21
95.9726
  0
LINE
  8
0
 10
380.768
 20
95.9726
 11
380.641
 21
95.9505
  0
LINE
  8
0
 10
380.641
 20
95.9505
 11
380.514
 21
95.9323
  0
LINE
  8
0
 10
380.514
 20
95.9323
 11
380.386
 21
95.9182
  0
LINE
  8
0
 10
380.386
 20
95.9182
 11
380.257
 21
95.9081
  0
LINE
  8
0
 10
380.257
 20
95.9081
 11
380.129
 21
95.902
  0
LINE
  8
0
 10
380.129
 20
95.902
 11
380
 21
95.9
  0
LINE
  8
0
 10
380
 20
95.9
 11
379.871
 21
95.902
  0
LINE
  8
0
 10
259.871
 20
95.902
 11
259.743
 21
95.9081
  0
LINE
  8
0
 10
259.743
 20
95.9081
 11
259.614
 21
95.9182
  0
LINE
  8
0
 10
259.614
 20
95.9182
 11
259.486
 21
95.9323
  0
LINE
  8
0
 10
259.486
 20
95.9323
 11
259.359
 21
95.9505
  0
LINE
  8
0
 10
259.359
 20
95.9505
 11
259.232
 21
95.9726
  0
LINE
  8
0
 10
259.232
 20
95.9726
 11
259.106
 21
95.9987
  0
LINE
  8
0
 10
259.106
 20
95.9987
 11
258.98
 21
96.0288
  0
LINE
  8
0
 10
258.98
 20
96.0288
 11
258.856
 21
96.0628
  0
LINE
  8
0
 10
258.856
 20
96.0628
 11
258.733
 21
96.1007
  0
LINE
  8
0
 10
258.733
 20
96.1007
 11
258.611
 21
96.1424
  0
LINE
  8
0
 10
258.611
 20
96.1424
 11
258.491
 21
96.1879
  0
LINE
  8
0
 10
258.491
 20
96.1879
 11
258.372
 21
96.2372
  0
LINE
  8
0
 10
258.372
 20
96.2372
 11
258.254
 21
96.2902
  0
LINE
  8
0
 10
258.254
 20
96.2902
 11
258.139
 21
96.3469
  0
LINE
  8
0
 10
258.139
 20
96.3469
 11
258.025
 21
96.4071
  0
LINE
  8
0
 10
258.025
 20
96.4071
 11
257.913
 21
96.4709
  0
LINE
  8
0
 10
257.913
 20
96.4709
 11
257.803
 21
96.5383
  0
LINE
  8
0
 10
257.803
 20
96.5383
 11
257.695
 21
96.609
  0
LINE
  8
0
 10
257.695
 20
96.609
 11
257.59
 21
96.683
  0
LINE
  8
0
 10
257.59
 20
96.683
 11
257.487
 21
96.7604
  0
LINE
  8
0
 10
257.487
 20
96.7604
 11
257.387
 21
96.8409
  0
LINE
  8
0
 10
257.387
 20
96.8409
 11
257.289
 21
96.9245
  0
LINE
  8
0
 10
257.289
 20
96.9245
 11
257.193
 21
97.0112
  0
LINE
  8
0
 10
257.193
 20
97.0112
 11
257.101
 21
97.1009
  0
LINE
  8
0
 10
257.101
 20
97.1009
 11
257.011
 21
97.1933
  0
LINE
  8
0
 10
257.011
 20
97.1933
 11
256.925
 21
97.2886
  0
LINE
  8
0
 10
256.925
 20
97.2886
 11
256.841
 21
97.3866
  0
LINE
  8
0
 10
256.841
 20
97.3866
 11
256.76
 21
97.4871
  0
LINE
  8
0
 10
256.76
 20
97.4871
 11
256.683
 21
97.5901
  0
LINE
  8
0
 10
256.683
 20
97.5901
 11
256.609
 21
97.6954
  0
LINE
  8
0
 10
256.609
 20
97.6954
 11
256.538
 21
97.8031
  0
LINE
  8
0
 10
256.538
 20
97.8031
 11
256.471
 21
97.9129
  0
LINE
  8
0
 10
256.471
 20
97.9129
 11
256.407
 21
98.0248
  0
LINE
  8
0
 10
256.407
 20
98.0248
 11
256.347
 21
98.1386
  0
LINE
  8
0
 10
256.347
 20
98.1386
 11
256.29
 21
98.2543
  0
LINE
  8
0
 10
256.29
 20
98.2543
 11
256.237
 21
98.3717
  0
LINE
  8
0
 10
256.237
 20
98.3717
 11
256.188
 21
98.4907
  0
LINE
  8
0
 10
256.188
 20
98.4907
 11
256.142
 21
98.6112
  0
LINE
  8
0
 10
256.142
 20
98.6112
 11
256.101
 21
98.733
  0
LINE
  8
0
 10
256.101
 20
98.733
 11
256.063
 21
98.8561
  0
LINE
  8
0
 10
256.063
 20
98.8561
 11
256.029
 21
98.9804
  0
LINE
  8
0
 10
256.029
 20
98.9804
 11
255.999
 21
99.1056
  0
LINE
  8
0
 10
255.999
 20
99.1056
 11
255.973
 21
99.2317
  0
LINE
  8
0
 10
255.973
 20
99.2317
 11
255.95
 21
99.3586
  0
LINE
  8
0
 10
255.95
 20
99.3586
 11
255.932
 21
99.4861
  0
LINE
  8
0
 10
255.932
 20
99.4861
 11
255.918
 21
99.6142
  0
LINE
  8
0
 10
255.918
 20
99.6142
 11
255.908
 21
99.7426
  0
LINE
  8
0
 10
255.908
 20
99.7426
 11
255.902
 21
99.8712
  0
LINE
  8
0
 10
255.902
 20
99.8712
 11
255.9
 21
100
  0
LINE
  8
0
 10
255.9
 20
100
 11
255.902
 21
100.129
  0
LINE
  8
0
 10
255.902
 20
100.129
 11
255.908
 21
100.257
  0
LINE
  8
0
 10
255.908
 20
100.257
 11
255.918
 21
100.386
  0
LINE
  8
0
 10
255.918
 20
100.386
 11
255.932
 21
100.514
  0
LINE
  8
0
 10
255.932
 20
100.514
 11
255.95
 21
100.641
  0
LINE
  8
0
 10
255.95
 20
100.641
 11
255.973
 21
100.768
  0
LINE
  8
0
 10
255.973
 20
100.768
 11
255.999
 21
100.894
  0
LINE
  8
0
 10
255.999
 20
100.894
 11
256.029
 21
101.02
  0
LINE
  8
0
 10
256.029
 20
101.02
 11
256.063
 21
101.144
  0
LINE
  8
0
 10
256.063
 20
101.144
 11
256.101
 21
101.267
  0
LINE
  8
0
 10
256.101
 20
101.267
 11
256.142
 21
101.389
  0
LINE
  8
0
 10
256.142
 20
101.389
 11
256.188
 21
101.509
  0
LINE
  8
0
 10
256.188
 20
101.509
 11
256.237
 21
101.628
  0
LINE
  8
0
 10
256.237
 20
101.628
 11
256.29
 21
101.746
  0
LINE
  8
0
 10
256.29
 20
101.746
 11
256.347
 21
101.861
  0
LINE
  8
0
 10
256.347
 20
101.861
 11
256.407
 21
101.975
  0
LINE
  8
0
 10
256.407
 20
101.975
 11
256.471
 21
102.087
  0
LINE
  8
0
 10
256.471
 20
102.087
 11
256.538
 21
102.197
  0
LINE
  8
0
 10
256.538
 20
102.197
 11
256.609
 21
102.305
  0
LINE
  8
0
 10
256.609
 20
102.305
 11
256.683
 21
102.41
  0
LINE
  8
0
 10
256.683
 20
102.41
 11
256.76
 21
102.513
  0
LINE
  8
0
 10
256.76
 20
102.513
 11
256.841
 21
102.613
  0
LINE
  8
0
 10
256.841
 20
102.613
 11
256.925
 21
102.711
  0
LINE
  8
0
 10
256.925
 20
102.711
 11
257.011
 21
102.807
  0
LINE
  8
0
 10
257.011
 20
102.807
 11
257.101
 21
102.899
  0
LINE
  8
0
 10
257.101
 20
102.899
 11
257.193
 21
102.989
  0
LINE
  8
0
 10
257.193
 20
102.989
 11
257.289
 21
103.075
  0
LINE
  8
0
 10
257.289
 20
103.075
 11
257.387
 21
103.159
  0
LINE
  8
0
 10
257.387
 20
103.159
 11
257.487
 21
103.24
  0
LINE
  8
0
 10
257.487
 20
103.24
 11
257.59
 21
103.317
  0
LINE
  8
0
 10
257.59
 20
103.317
 11
257.695
 21
103.391
  0
LINE
  8
0
 10
257.695
 20
103.391
 11
257.803
 21
103.462
  0
LINE
  8
0
 10
257.803
 20
103.462
 11
257.913
 21
103.529
  0
LINE
  8
0
 10
257.913
 20
103.529
 11
258.025
 21
103.593
  0
LINE
  8
0
 10
258.025
 20
103.593
 11
258.139
 21
103.653
  0
LINE
  8
0
 10
258.139
 20
103.653
 11
258.254
 21
103.71
  0
LINE
  8
0
 10
258.254
 20
103.71
 11
258.372
 21
103.763
  0
LINE
  8
0
 10
258.372
 20
103.763
 11
258.491
 21
103.812
  0
LINE
  8
0
 10
258.491
 20
103.812
 11
258.611
 21
103.858
  0
LINE
  8
0
 10
258.611
 20
103.858
 11
258.733
 21
103.899
  0
LINE
  8
0
 10
258.733
 20
103.899
 11
258.856
 21
103.937
  0
LINE
  8
0
 10
258.856
 20
103.937
 11
258.98
 21
103.971
  0
LINE
  8
0
 10
258.98
 20
103.971
 11
259.106
 21
104.001
  0
LINE
  8
0
 10
259.106
 20
104.001
 11
259.232
 21
104.027
  0
LINE
  8
0
 10
259.232
 20
104.027
 11
259.359
 21
104.05
  0
LINE
  8
0
 10
259.359
 20
104.05
 11
259.486
 21
104.068
  0
LINE
  8
0
 10
259.486
 20
104.068
 11
259.614
 21
104.082
  0
LINE
  8
0
 10
259.614
 20
104.082
 11
259.743
 21
104.092
  0
LINE
  8
0
 10
259.743
 20
104.092
 11
259.871
 21
104.098
  0
LINE
  8
0
 10
259.871
 20
104.098
 11
260
 21
104.1
  0
LINE
  8
0
 10
260
 20
104.1
 11
260.129
 21
104.098
  0
LINE
  8
0
 10
260.129
 20
104.098
 11
260.257
 21
104.092
  0
LINE
  8
0
 10
260.257
 20
104.092
 11
260.386
 21
104.082
  0
LINE
  8
0
 10
260.386
 20
104.082
 11
260.514
 21
104.068
  0
LINE
  8
0
 10
260.514
 20
104.068
 11
260.641
 21
104.05
  0
LINE
  8
0
 10
260.641
 20
104.05
 11
260.768
 21
104.027
  0
LINE
  8
0
 10
260.768
 20
104.027
 11
260.894
 21
104.001
  0
LINE
  8
0
 10
260.894
 20
104.001
 11
261.02
 21
103.971
  0
LINE
  8
0
 10
261.02
 20
103.971
 11
261.144
 21
103.937
  0
LINE
  8
0
 10
261.144
 20
103.937
 11
261.267
 21
103.899
  0
LINE
  8
0
 10
261.267
 20
103.899
 11
261.389
 21
103.858
  0
LINE
  8
0
 10
261.389
 20
103.858
 11
261.509
 21
103.812
  0
LINE
  8
0
 10
261.509
 20
103.812
 11
261.628
 21
103.763
  0
LINE
  8
0
 10
261.628
 20
103.763
 11
261.746
 21
103.71
  0
LINE
  8
0
 10
261.746
 20
103.71
 11
261.861
 21
103.653
  0
LINE
  8
0
 10
261.861
 20
103.653
 11
261.975
 21
103.593
  0
LINE
  8
0
 10
261.975
 20
103.593
 11
262.087
 21
103.529
  0
LINE
  8
0
 10
262.087
 20
103.529
 11
262.197
 21
103.462
  0
LINE
  8
0
 10
262.197
 20
103.462
 11
262.305
 21
103.391
  0
LINE
  8
0
 10
262.305
 20
103.391
 11
262.41
 21
103.317
  0
LINE
  8
0
 10
262.41
 20
103.317
 11
262.513
 21
103.24
  0
LINE
  8
0
 10
262.513
 20
103.24
 11
262.613
 21
103.159
  0
LINE
  8
0
 10
262.613
 20
103.159
 11
262.711
 21
103.075
  0
LINE
  8
0
 10
262.711
 20
103.075
 11
262.807
 21
102.989
  0
LINE
  8
0
 10
262.807
 20
102.989
 11
262.899
 21
102.899
  0
LINE
  8
0
 10
262.899
 20
102.899
 11
262.989
 21
102.807
  0
LINE
  8
0
 10
262.989
 20
102.807
 11
263.075
 21
102.711
  0
LINE
  8
0
 10
263.075
 20
102.711
 11
263.159
 21
102.613
  0
LINE
  8
0
 10
263.159
 20
102.613
 11
263.24
 21
102.513
  0
LINE
  8
0
 10
263.24
 20
102.513
 11
263.317
 21
102.41
  0
LINE
  8
0
 10
263.317
 20
102.41
 11
263.391
 21
102.305
  0
LINE
  8
0
 10
263.391
 20
102.305
 11
263.462
 21
102.197
  0
LINE
  8
0
 10
263.462
 20
102.197
 11
263.529
 21
102.087
  0
LINE
  8
0
 10
263.529
 20
102.087
 11
263.593
 21
101.975
  0
LINE
  8
0
 10
263.593
 20
101.975
 11
263.653
 21
101.861
  0
LINE
  8
0
 10
263.653
 20
101.861
 11
263.71
 21
101.746
  0
LINE
  8
0
 10
263.71
 20
101.746
 11
263.763
 21
101.628
  0
LINE
  8
0
 10
263.763
 20
101.628
 11
263.812
 21
101.509
  0
LINE
  8
0
 10
263.812
 20
101.509
 11
263.858
 21
101.389
  0
LINE
  8
0
 10
263.858
 20
101.389
 11
263.899
 21
101.267
  0
LINE
  8
0
 10
263.899
 20
101.267
 11
263.937
 21
101.144
  0
LINE
  8
0
 10
263.937
 20
101.144
 11
263.971
 21
101.02
  0
LINE
  8
0
 10
263.971
 20
101.02
 11
264.001
 21
100.894
  0
LINE
  8
0
 10
264.001
 20
100.894
 11
264.027
 21
100.768
  0
LINE
  8
0
 10
264.027
 20
100.768
 11
264.05
 21
100.641
  0
LINE
  8
0
 10
264.05
 20
100.641
 11
264.068
 21
100.514
  0
LINE
  8
0
 10
264.068
 20
100.514
 11
264.082
 21
100.386
  0
LINE
  8
0
 10
264.082
 20
100.386
 11
264.092
 21
100.257
  0
LINE
  8
0
 10
264.092
 20
100.257
 11
264.098
 21
100.129
  0
LINE
  8
0
 10
264.098
 20
100.129
 11
264.1
 21
100
  0
LINE
  8
0
 10
264.1
 20
100
 11
264.098
 21
99.8712
  0
LINE
  8
0
 10
264.098
 20
99.8712
 11
264.092
 21
99.7426
  0
LINE
  8
0
 10
264.092
 20
99.7426
 11
264.082
 21
99.6142
  0
LINE
  8
0
 10
264.082
 20
99.6142
 11
264.068
 21
99.4861
  0
LINE
  8
0
 10
264.068
 20
99.4861
 11
264.05
 21
99.3586
  0
LINE
  8
0
 10
264.05
 20
99.3586
 11
264.027
 21
99.2317
  0
LINE
  8
0
 10
264.027
 20
99.2317
 11
264.001
 21
99.1056
  0
LINE
  8
0
 10
264.001
 20
99.1056
 11
263.971
 21
98.9804
  0
LINE
  8
0
 10
263.971
 20
98.9804
 11
263.937
 21
98.8561
  0
LINE
  8
0
 10
263.937
 20
98.8561
 11
263.899
 21
98.733
  0
LINE
  8
0
 10
263.899
 20
98.733
 11
263.858
 21
98.6112
  0
LINE
  8
0
 10
263.858
 20
98.6112
 11
263.812
 21
98.4907
  0
LINE
  8
0
 10
263.812
 20
98.4907
 11
263.763
 21
98.3717
  0
LINE
  8
0
 10
263.763
 20
98.3717
 11
263.71
 21
98.2543
  0
LINE
  8
0
 10
263.71
 20
98.2543
 11
263.653
 21
98.1386
  0
LINE
  8
0
 10
263.653
 20
98.1386
 11
263.593
 21
98.0248
  0
LINE
  8
0
 10
263.593
 20
98.0248
 11
263.529
 21
97.9129
  0
LINE
  8
0
 10
263.529
 20
97.9129
 11
263.462
 21
97.8031
  0
LINE
  8
0
 10
263.462
 20
97.8031
 11
263.391
 21
97.6954
  0
LINE
  8
0
 10
263.391
 20
97.6954
 11
263.317
 21
97.5901
  0
LINE
  8
0
 10
263.317
 20
97.5901
 11
263.24
 21
97.4871
  0
LINE
  8
0
 10
263.24
 20
97.4871
 11
263.159
 21
97.3866
  0
LINE
  8
0
 10
263.159
 20
97.3866
 11
263.075
 21
97.2886
  0
LINE
  8
0
 10
263.075
 20
97.2886
 11
262.989
 21
97.1933
  0
LINE
  8
0
 10
262.989
 20
97.1933
 11
262.899
 21
97.1009
  0
LINE
  8
0
 10
262.899
 20
97.1009
 11
262.807
 21
97.0112
  0
LINE
  8
0
 10
262.807
 20
97.0112
 11
262.711
 21
96.9245
  0
LINE
  8
0
 10
262.711
 20
96.9245
 11
262.613
 21
96.8409
  0
LINE
  8
0
 10
262.613
 20
96.8409
 11
262.513
 21
96.7604
  0
LINE
  8
0
 10
262.513
 20
96.7604
 11
262.41
 21
96.683
  0
LINE
  8
0
 10
262.41
 20
96.683
 11
262.305
 21
96.609
  0
LINE
  8
0
 10
262.305
 20
96.609
 11
262.197
 21
96.5383
  0
LINE
  8
0
 10
262.197
 20
96.5383
 11
262.087
 21
96.4709
  0
LINE
  8
0
 10
262.087
 20
96.4709
 11
261.975
 21
96.4071
  0
LINE
  8
0
 10
261.975
 20
96.4071
 11
261.861
 21
96.3469
  0
LINE
  8
0
 10
261.861
 20
96.3469
 11
261.746
 21
96.2902
  0
LINE
  8
0
 10
261.746
 20
96.2902
 11
261.628
 21
96.2372
  0
LINE
  8
0
 10
261.628
 20
96.2372
 11
261.509
 21
96.1879
  0
LINE
  8
0
 10
261.509
 20
96.1879
 11
261.389
 21
96.1424
  0
LINE
  8
0
 10
261.389
 20
96.1424
 11
261.267
 21
96.1007
  0
LINE
  8
0
 10
261.267
 20
96.1007
 11
261.144
 21
96.0628
  0
LINE
  8
0
 10
261.144
 20
96.0628
 11
261.02
 21
96.0288
  0
LINE
  8
0
 10
261.02
 20
96.0288
 11
260.894
 21
95.9987
  0
LINE
  8
0
 10
260.894
 20
95.9987
 11
260.768
 21
95.9726
  0
LINE
  8
0
 10
260.768
 20
95.9726
 11
260.641
 21
95.9505
  0
LINE
  8
0
 10
260.641
 20
95.9505
 11
260.514
 21
95.9323
  0
LINE
  8
0
 10
260.514
 20
95.9323
 11
260.386
 21
95.9182
  0
LINE
  8
0
 10
260.386
 20
95.9182
 11
260.257
 21
95.9081
  0
LINE
  8
0
 10
260.257
 20
95.9081
 11
260.129
 21
95.902
  0
LINE
  8
0
 10
260.129
 20
95.902
 11
260
 21
95.9
  0
LINE
  8
0
 10
260
 20
95.9
 11
259.871
 21
95.902
  0
LINE
  8
0
 10
299.918
 20
67.4013
 11
299.837
 21
67.4051
  0
LINE
  8
0
 10
299.837
 20
67.4051
 11
299.755
 21
67.4115
  0
LINE
  8
0
 10
299.755
 20
67.4115
 11
299.674
 21
67.4205
  0
LINE
  8
0
 10
299.674
 20
67.4205
 11
299.593
 21
67.432
  0
LINE
  8
0
 10
299.593
 20
67.432
 11
299.513
 21
67.446
  0
LINE
  8
0
 10
299.513
 20
67.446
 11
299.433
 21
67.4626
  0
LINE
  8
0
 10
299.433
 20
67.4626
 11
299.353
 21
67.4817
  0
LINE
  8
0
 10
299.353
 20
67.4817
 11
299.275
 21
67.5032
  0
LINE
  8
0
 10
299.275
 20
67.5032
 11
299.197
 21
67.5273
  0
LINE
  8
0
 10
299.197
 20
67.5273
 11
299.119
 21
67.5537
  0
LINE
  8
0
 10
299.119
 20
67.5537
 11
299.043
 21
67.5826
  0
LINE
  8
0
 10
299.043
 20
67.5826
 11
298.967
 21
67.6138
  0
LINE
  8
0
 10
298.967
 20
67.6138
 11
298.893
 21
67.6474
  0
LINE
  8
0
 10
298.893
 20
67.6474
 11
298.82
 21
67.6834
  0
LINE
  8
0
 10
298.82
 20
67.6834
 11
298.747
 21
67.7216
  0
LINE
  8
0
 10
298.747
 20
67.7216
 11
298.676
 21
67.7621
  0
LINE
  8
0
 10
298.676
 20
67.7621
 11
298.607
 21
67.8047
  0
LINE
  8
0
 10
298.607
 20
67.8047
 11
298.539
 21
67.8496
  0
LINE
  8
0
 10
298.539
 20
67.8496
 11
298.472
 21
67.8965
  0
LINE
  8
0
 10
298.472
 20
67.8965
 11
298.406
 21
67.9456
  0
LINE
  8
0
 10
298.406
 20
67.9456
 11
298.343
 21
67.9967
  0
LINE
  8
0
 10
298.343
 20
67.9967
 11
298.281
 21
68.0497
  0
LINE
  8
0
 10
298.281
 20
68.0497
 11
298.22
 21
68.1047
  0
LINE
  8
0
 10
298.22
 20
68.1047
 11
298.162
 21
68.1615
  0
LINE
  8
0
 10
298.162
 20
68.1615
 11
298.105
 21
68.2202
  0
LINE
  8
0
 10
298.105
 20
68.2202
 11
298.05
 21
68.2806
  0
LINE
  8
0
 10
298.05
 20
68.2806
 11
297.997
 21
68.3427
  0
LINE
  8
0
 10
297.997
 20
68.3427
 11
297.946
 21
68.4064
  0
LINE
  8
0
 10
297.946
 20
68.4064
 11
297.897
 21
68.4718
  0
LINE
  8
0
 10
297.897
 20
68.4718
 11
297.85
 21
68.5386
  0
LINE
  8
0
 10
297.85
 20
68.5386
 11
297.805
 21
68.6068
  0
LINE
  8
0
 10
297.805
 20
68.6068
 11
297.762
 21
68.6765
  0
LINE
  8
0
 10
297.762
 20
68.6765
 11
297.722
 21
68.7474
  0
LINE
  8
0
 10
297.722
 20
68.7474
 11
297.683
 21
68.8196
  0
LINE
  8
0
 10
297.683
 20
68.8196
 11
297.647
 21
68.893
  0
LINE
  8
0
 10
297.647
 20
68.893
 11
297.614
 21
68.9674
  0
LINE
  8
0
 10
297.614
 20
68.9674
 11
297.583
 21
69.0429
  0
LINE
  8
0
 10
297.583
 20
69.0429
 11
297.554
 21
69.1193
  0
LINE
  8
0
 10
297.554
 20
69.1193
 11
297.527
 21
69.1965
  0
LINE
  8
0
 10
297.527
 20
69.1965
 11
297.503
 21
69.2746
  0
LINE
  8
0
 10
297.503
 20
69.2746
 11
297.482
 21
69.3534
  0
LINE
  8
0
 10
297.482
 20
69.3534
 11
297.463
 21
69.4328
  0
LINE
  8
0
 10
297.463
 20
69.4328
 11
297.446
 21
69.5128
  0
LINE
  8
0
 10
297.446
 20
69.5128
 11
297.432
 21
69.5933
  0
LINE
  8
0
 10
297.432
 20
69.5933
 11
297.421
 21
69.6741
  0
LINE
  8
0
 10
297.421
 20
69.6741
 11
297.412
 21
69.7553
  0
LINE
  8
0
 10
297.412
 20
69.7553
 11
297.405
 21
69.8367
  0
LINE
  8
0
 10
297.405
 20
69.8367
 11
297.401
 21
69.9183
  0
LINE
  8
0
 10
297.401
 20
69.9183
 11
297.4
 21
70
  0
LINE
  8
0
 10
297.4
 20
70
 11
297.401
 21
70.0817
  0
LINE
  8
0
 10
297.401
 20
70.0817
 11
297.405
 21
70.1633
  0
LINE
  8
0
 10
297.405
 20
70.1633
 11
297.412
 21
70.2447
  0
LINE
  8
0
 10
297.412
 20
70.2447
 11
297.421
 21
70.3259
  0
LINE
  8
0
 10
297.421
 20
70.3259
 11
297.432
 21
70.4067
  0
LINE
  8
0
 10
297.432
 20
70.4067
 11
297.446
 21
70.4872
  0
LINE
  8
0
 10
297.446
 20
70.4872
 11
297.463
 21
70.5672
  0
LINE
  8
0
 10
297.463
 20
70.5672
 11
297.482
 21
70.6466
  0
LINE
  8
0
 10
297.482
 20
70.6466
 11
297.503
 21
70.7254
  0
LINE
  8
0
 10
297.503
 20
70.7254
 11
297.527
 21
70.8034
  0
LINE
  8
0
 10
297.527
 20
70.8034
 11
297.554
 21
70.8807
  0
LINE
  8
0
 10
297.554
 20
70.8807
 11
297.583
 21
70.9571
  0
LINE
  8
0
 10
297.583
 20
70.9571
 11
297.614
 21
71.0326
  0
LINE
  8
0
 10
297.614
 20
71.0326
 11
297.647
 21
71.107
  0
LINE
  8
0
 10
297.647
 20
71.107
 11
297.683
 21
71.1804
  0
LINE
  8
0
 10
297.683
 20
71.1804
 11
297.722
 21
71.2525
  0
LINE
  8
0
 10
297.722
 20
71.2525
 11
297.762
 21
71.3235
  0
LINE
  8
0
 10
297.762
 20
71.3235
 11
297.805
 21
71.3931
  0
LINE
  8
0
 10
297.805
 20
71.3931
 11
297.85
 21
71.4614
  0
LINE
  8
0
 10
297.85
 20
71.4614
 11
297.897
 21
71.5282
  0
LINE
  8
0
 10
297.897
 20
71.5282
 11
297.946
 21
71.5936
  0
LINE
  8
0
 10
297.946
 20
71.5936
 11
297.997
 21
71.6573
  0
LINE
  8
0
 10
297.997
 20
71.6573
 11
298.05
 21
71.7194
  0
LINE
  8
0
 10
298.05
 20
71.7194
 11
298.105
 21
71.7798
  0
LINE
  8
0
 10
298.105
 20
71.7798
 11
298.162
 21
71.8385
  0
LINE
  8
0
 10
298.162
 20
71.8385
 11
298.22
 21
71.8953
  0
LINE
  8
0
 10
298.22
 20
71.8953
 11
298.281
 21
71.9503
  0
LINE
  8
0
 10
298.281
 20
71.9503
 11
298.343
 21
72.0033
  0
LINE
  8
0
 10
298.343
 20
72.0033
 11
298.406
 21
72.0544
  0
LINE
  8
0
 10
298.406
 20
72.0544
 11
298.472
 21
72.1034
  0
LINE
  8
0
 10
298.472
 20
72.1034
 11
298.539
 21
72.1504
  0
LINE
  8
0
 10
298.539
 20
72.1504
 11
298.607
 21
72.1953
  0
LINE
  8
0
 10
298.607
 20
72.1953
 11
298.676
 21
72.2379
  0
LINE
  8
0
 10
298.676
 20
72.2379
 11
298.747
 21
72.2784
  0
LINE
  8
0
 10
298.747
 20
72.2784
 11
298.82
 21
72.3166
  0
LINE
  8
0
 10
298.82
 20
72.3166
 11
298.893
 21
72.3525
  0
LINE
  8
0
 10
298.893
 20
72.3525
 11
298.967
 21
72.3862
  0
LINE
  8
0
 10
298.967
 20
72.3862
 11
299.043
 21
72.4174
  0
LINE
  8
0
 10
299.043
 20
72.4174
 11
299.119
 21
72.4463
  0
LINE
  8
0
 10
299.119
 20
72.4463
 11
299.197
 21
72.4727
  0
LINE
  8
0
 10
299.197
 20
72.4727
 11
299.275
 21
72.4967
  0
LINE
  8
0
 10
299.275
 20
72.4967
 11
299.353
 21
72.5183
  0
LINE
  8
0
 10
299.353
 20
72.5183
 11
299.433
 21
72.5374
  0
LINE
  8
0
 10
299.433
 20
72.5374
 11
299.513
 21
72.5539
  0
LINE
  8
0
 10
299.513
 20
72.5539
 11
299.593
 21
72.568
  0
LINE
  8
0
 10
299.593
 20
72.568
 11
299.674
 21
72.5795
  0
LINE
  8
0
 10
299.674
 20
72.5795
 11
299.755
 21
72.5885
  0
LINE
  8
0
 10
299.755
 20
72.5885
 11
299.837
 21
72.5949
  0
LINE
  8
0
 10
299.837
 20
72.5949
 11
299.918
 21
72.5987
  0
LINE
  8
0
 10
299.918
 20
72.5987
 11
300
 21
72.6
  0
LINE
  8
0
 10
300
 20
72.6
 11
300.082
 21
72.5987
  0
LINE
  8
0
 10
300.082
 20
72.5987
 11
300.163
 21
72.5949
  0
LINE
  8
0
 10
300.163
 20
72.5949
 11
300.245
 21
72.5885
  0
LINE
  8
0
 10
300.245
 20
72.5885
 11
300.326
 21
72.5795
  0
LINE
  8
0
 10
300.326
 20
72.5795
 11
300.407
 21
72.568
  0
LINE
  8
0
 10
300.407
 20
72.568
 11
300.487
 21
72.5539
  0
LINE
  8
0
 10
300.487
 20
72.5539
 11
300.567
 21
72.5374
  0
LINE
  8
0
 10
300.567
 20
72.5374
 11
300.647
 21
72.5183
  0
LINE
  8
0
 10
300.647
 20
72.5183
 11
300.725
 21
72.4967
  0
LINE
  8
0
 10
300.725
 20
72.4967
 11
300.803
 21
72.4727
  0
LINE
  8
0
 10
300.803
 20
72.4727
 11
300.881
 21
72.4463
  0
LINE
  8
0
 10
300.881
 20
72.4463
 11
300.957
 21
72.4174
  0
LINE
  8
0
 10
300.957
 20
72.4174
 11
301.033
 21
72.3862
  0
LINE
  8
0
 10
301.033
 20
72.3862
 11
301.107
 21
72.3525
  0
LINE
  8
0
 10
301.107
 20
72.3525
 11
301.18
 21
72.3166
  0
LINE
  8
0
 10
301.18
 20
72.3166
 11
301.253
 21
72.2784
  0
LINE
  8
0
 10
301.253
 20
72.2784
 11
301.324
 21
72.2379
  0
LINE
  8
0
 10
301.324
 20
72.2379
 11
301.393
 21
72.1953
  0
LINE
  8
0
 10
301.393
 20
72.1953
 11
301.461
 21
72.1504
  0
LINE
  8
0
 10
301.461
 20
72.1504
 11
301.528
 21
72.1034
  0
LINE
  8
0
 10
301.528
 20
72.1034
 11
301.594
 21
72.0544
  0
LINE
  8
0
 10
301.594
 20
72.0544
 11
301.657
 21
72.0033
  0
LINE
  8
0
 10
301.657
 20
72.0033
 11
301.719
 21
71.9503
  0
LINE
  8
0
 10
301.719
 20
71.9503
 11
301.78
 21
71.8953
  0
LINE
  8
0
 10
301.78
 20
71.8953
 11
301.838
 21
71.8385
  0
LINE
  8
0
 10
301.838
 20
71.8385
 11
301.895
 21
71.7798
  0
LINE
  8
0
 10
301.895
 20
71.7798
 11
301.95
 21
71.7194
  0
LINE
  8
0
 10
301.95
 20
71.7194
 11
302.003
 21
71.6573
  0
LINE
  8
0
 10
302.003
 20
71.6573
 11
302.054
 21
71.5936
  0
LINE
  8
0
 10
302.054
 20
71.5936
 11
302.103
 21
71.5282
  0
LINE
  8
0
 10
302.103
 20
71.5282
 11
302.15
 21
71.4614
  0
LINE
  8
0
 10
302.15
 20
71.4614
 11
302.195
 21
71.3931
  0
LINE
  8
0
 10
302.195
 20
71.3931
 11
302.238
 21
71.3235
  0
LINE
  8
0
 10
302.238
 20
71.3235
 11
302.278
 21
71.2525
  0
LINE
  8
0
 10
302.278
 20
71.2525
 11
302.317
 21
71.1804
  0
LINE
  8
0
 10
302.317
 20
71.1804
 11
302.353
 21
71.107
  0
LINE
  8
0
 10
302.353
 20
71.107
 11
302.386
 21
71.0326
  0
LINE
  8
0
 10
302.386
 20
71.0326
 11
302.417
 21
70.9571
  0
LINE
  8
0
 10
302.417
 20
70.9571
 11
302.446
 21
70.8807
  0
LINE
  8
0
 10
302.446
 20
70.8807
 11
302.473
 21
70.8034
  0
LINE
  8
0
 10
302.473
 20
70.8034
 11
302.497
 21
70.7254
  0
LINE
  8
0
 10
302.497
 20
70.7254
 11
302.518
 21
70.6466
  0
LINE
  8
0
 10
302.518
 20
70.6466
 11
302.537
 21
70.5672
  0
LINE
  8
0
 10
302.537
 20
70.5672
 11
302.554
 21
70.4872
  0
LINE
  8
0
 10
302.554
 20
70.4872
 11
302.568
 21
70.4067
  0
LINE
  8
0
 10
302.568
 20
70.4067
 11
302.579
 21
70.3259
  0
LINE
  8
0
 10
302.579
 20
70.3259
 11
302.588
 21
70.2447
  0
LINE
  8
0
 10
302.588
 20
70.2447
 11
302.595
 21
70.1633
  0
LINE
  8
0
 10
302.595
 20
70.1633
 11
302.599
 21
70.0817
  0
LINE
  8
0
 10
302.599
 20
70.0817
 11
302.6
 21
70
  0
LINE
  8
0
 10
302.6
 20
70
 11
302.599
 21
69.9183
  0
LINE
  8
0
 10
302.599
 20
69.9183
 11
302.595
 21
69.8367
  0
LINE
  8
0
 10
302.595
 20
69.8367
 11
302.588
 21
69.7553
  0
LINE
  8
0
 10
302.588
 20
69.7553
 11
302.579
 21
69.6741
  0
LINE
  8
0
 10
302.579
 20
69.6741
 11
302.568
 21
69.5933
  0
LINE
  8
0
 10
302.568
 20
69.5933
 11
302.554
 21
69.5128
  0
LINE
  8
0
 10
302.554
 20
69.5128
 11
302.537
 21
69.4328
  0
LINE
  8
0
 10
302.537
 20
69.4328
 11
302.518
 21
69.3534
  0
LINE
  8
0
 10
302.518
 20
69.3534
 11
302.497
 21
69.2746
  0
LINE
  8
0
 10
302.497
 20
69.2746
 11
302.473
 21
69.1965
  0
LINE
  8
0
 10
302.473
 20
69.1965
 11
302.446
 21
69.1193
  0
LINE
  8
0
 10
302.446
 20
69.1193
 11
302.417
 21
69.0429
  0
LINE
  8
0
 10
302.417
 20
69.0429
 11
302.386
 21
68.9674
  0
LINE
  8
0
 10
302.386
 20
68.9674
 11
302.353
 21
68.893
  0
LINE
  8
0
 10
302.353
 20
68.893
 11
302.317
 21
68.8196
  0
LINE
  8
0
 10
302.317
 20
68.8196
 11
302.278
 21
68.7474
  0
LINE
  8
0
 10
302.278
 20
68.7474
 11
302.238
 21
68.6765
  0
LINE
  8
0
 10
302.238
 20
68.6765
 11
302.195
 21
68.6068
  0
LINE
  8
0
 10
302.195
 20
68.6068
 11
302.15
 21
68.5386
  0
LINE
  8
0
 10
302.15
 20
68.5386
 11
302.103
 21
68.4718
  0
LINE
  8
0
 10
302.103
 20
68.4718
 11
302.054
 21
68.4064
  0
LINE
  8
0
 10
302.054
 20
68.4064
 11
302.003
 21
68.3427
  0
LINE
  8
0
 10
302.003
 20
68.3427
 11
301.95
 21
68.2806
  0
LINE
  8
0
 10
301.95
 20
68.2806
 11
301.895
 21
68.2202
  0
LINE
  8
0
 10
301.895
 20
68.2202
 11
301.838
 21
68.1615
  0
LINE
  8
0
 10
301.838
 20
68.1615
 11
301.78
 21
68.1047
  0
LINE
  8
0
 10
301.78
 20
68.1047
 11
301.719
 21
68.0497
  0
LINE
  8
0
 10
301.719
 20
68.0497
 11
301.657
 21
67.9967
  0
LINE
  8
0
 10
301.657
 20
67.9967
 11
301.594
 21
67.9456
  0
LINE
  8
0
 10
301.594
 20
67.9456
 11
301.528
 21
67.8965
  0
LINE
  8
0
 10
301.528
 20
67.8965
 11
301.461
 21
67.8496
  0
LINE
  8
0
 10
301.461
 20
67.8496
 11
301.393
 21
67.8047
  0
LINE
  8
0
 10
301.393
 20
67.8047
 11
301.324
 21
67.7621
  0
LINE
  8
0
 10
301.324
 20
67.7621
 11
301.253
 21
67.7216
  0
LINE
  8
0
 10
301.253
 20
67.7216
 11
301.18
 21
67.6834
  0
LINE
  8
0
 10
301.18
 20
67.6834
 11
301.107
 21
67.6474
  0
LINE
  8
0
 10
301.107
 20
67.6474
 11
301.033
 21
67.6138
  0
LINE
  8
0
 10
301.033
 20
67.6138
 11
300.957
 21
67.5826
  0
LINE
  8
0
 10
300.957
 20
67.5826
 11
300.881
 21
67.5537
  0
LINE
  8
0
 10
300.881
 20
67.5537
 11
300.803
 21
67.5273
  0
LINE
  8
0
 10
300.803
 20
67.5273
 11
300.725
 21
67.5032
  0
LINE
  8
0
 10
300.725
 20
67.5032
 11
300.647
 21
67.4817
  0
LINE
  8
0
 10
300.647
 20
67.4817
 11
300.567
 21
67.4626
  0
LINE
  8
0
 10
300.567
 20
67.4626
 11
300.487
 21
67.446
  0
LINE
  8
0
 10
300.487
 20
67.446
 11
300.407
 21
67.432
  0
LINE
  8
0
 10
300.407
 20
67.432
 11
300.326
 21
67.4205
  0
LINE
  8
0
 10
300.326
 20
67.4205
 11
300.245
 21
67.4115
  0
LINE
  8
0
 10
300.245
 20
67.4115
 11
300.163
 21
67.4051
  0
LINE
  8
0
 10
300.163
 20
67.4051
 11
300.082
 21
67.4013
  0
LINE
  8
0
 10
300.082
 20
67.4013
 11
300
 21
67.4
  0
LINE
  8
0
 10
300
 20
67.4
 11
299.918
 21
67.4013
  0
LINE
  8
0
 10
389.918
 20
67.4013
 11
389.837
 21
67.4051
  0
LINE
  8
0
 10
389.837
 20
67.4051
 11
389.755
 21
67.4115
  0
LINE
  8
0
 10
389.755
 20
67.4115
 11
389.674
 21
67.4205
  0
LINE
  8
0
 10
389.674
 20
67.4205
 11
389.593
 21
67.432
  0
LINE
  8
0
 10
389.593
 20
67.432
 11
389.513
 21
67.446
  0
LINE
  8
0
 10
389.513
 20
67.446
 11
389.433
 21
67.4626
  0
LINE
  8
0
 10
389.433
 20
67.4626
 11
389.353
 21
67.4817
  0
LINE
  8
0
 10
389.353
 20
67.4817
 11
389.275
 21
67.5032
  0
LINE
  8
0
 10
389.275
 20
67.5032
 11
389.197
 21
67.5273
  0
LINE
  8
0
 10
389.197
 20
67.5273
 11
389.119
 21
67.5537
  0
LINE
  8
0
 10
389.119
 20
67.5537
 11
389.043
 21
67.5826
  0
LINE
  8
0
 10
389.043
 20
67.5826
 11
388.967
 21
67.6138
  0
LINE
  8
0
 10
388.967
 20
67.6138
 11
388.893
 21
67.6474
  0
LINE
  8
0
 10
388.893
 20
67.6474
 11
388.82
 21
67.6834
  0
LINE
  8
0
 10
388.82
 20
67.6834
 11
388.747
 21
67.7216
  0
LINE
  8
0
 10
388.747
 20
67.7216
 11
388.676
 21
67.7621
  0
LINE
  8
0
 10
388.676
 20
67.7621
 11
388.607
 21
67.8047
  0
LINE
  8
0
 10
388.607
 20
67.8047
 11
388.539
 21
67.8496
  0
LINE
  8
0
 10
388.539
 20
67.8496
 11
388.472
 21
67.8965
  0
LINE
  8
0
 10
388.472
 20
67.8965
 11
388.406
 21
67.9456
  0
LINE
  8
0
 10
388.406
 20
67.9456
 11
388.343
 21
67.9967
  0
LINE
  8
0
 10
388.343
 20
67.9967
 11
388.281
 21
68.0497
  0
LINE
  8
0
 10
388.281
 20
68.0497
 11
388.22
 21
68.1047
  0
LINE
  8
0
 10
388.22
 20
68.1047
 11
388.162
 21
68.1615
  0
LINE
  8
0
 10
388.162
 20
68.1615
 11
388.105
 21
68.2202
  0
LINE
  8
0
 10
388.105
 20
68.2202
 11
388.05
 21
68.2806
  0
LINE
  8
0
 10
388.05
 20
68.2806
 11
387.997
 21
68.3427
  0
LINE
  8
0
 10
387.997
 20
68.3427
 11
387.946
 21
68.4064
  0
LINE
  8
0
 10
387.946
 20
68.4064
 11
387.897
 21
68.4718
  0
LINE
  8
0
 10
387.897
 20
68.4718
 11
387.85
 21
68.5386
  0
LINE
  8
0
 10
387.85
 20
68.5386
 11
387.805
 21
68.6068
  0
LINE
  8
0
 10
387.805
 20
68.6068
 11
387.762
 21
68.6765
  0
LINE
  8
0
 10
387.762
 20
68.6765
 11
387.722
 21
68.7474
  0
LINE
  8
0
 10
387.722
 20
68.7474
 11
387.683
 21
68.8196
  0
LINE
  8
0
 10
387.683
 20
68.8196
 11
387.647
 21
68.893
  0
LINE
  8
0
 10
387.647
 20
68.893
 11
387.614
 21
68.9674
  0
LINE
  8
0
 10
387.614
 20
68.9674
 11
387.583
 21
69.0429
  0
LINE
  8
0
 10
387.583
 20
69.0429
 11
387.554
 21
69.1193
  0
LINE
  8
0
 10
387.554
 20
69.1193
 11
387.527
 21
69.1965
  0
LINE
  8
0
 10
387.527
 20
69.1965
 11
387.503
 21
69.2746
  0
LINE
  8
0
 10
387.503
 20
69.2746
 11
387.482
 21
69.3534
  0
LINE
  8
0
 10
387.482
 20
69.3534
 11
387.463
 21
69.4328
  0
LINE
  8
0
 10
387.463
 20
69.4328
 11
387.446
 21
69.5128
  0
LINE
  8
0
 10
387.446
 20
69.5128
 11
387.432
 21
69.5933
  0
LINE
  8
0
 10
387.432
 20
69.5933
 11
387.421
 21
69.6741
  0
LINE
  8
0
 10
387.421
 20
69.6741
 11
387.412
 21
69.7553
  0
LINE
  8
0
 10
387.412
 20
69.7553
 11
387.405
 21
69.8367
  0
LINE
  8
0
 10
387.405
 20
69.8367
 11
387.401
 21
69.9183
  0
LINE
  8
0
 10
387.401
 20
69.9183
 11
387.4
 21
70
  0
LINE
  8
0
 10
387.4
 20
70
 11
387.401
 21
70.0817
  0
LINE
  8
0
 10
387.401
 20
70.0817
 11
387.405
 21
70.1633
  0
LINE
  8
0
 10
387.405
 20
70.1633
 11
387.412
 21
70.2447
  0
LINE
  8
0
 10
387.412
 20
70.2447
 11
387.421
 21
70.3259
  0
LINE
  8
0
 10
387.421
 20
70.3259
 11
387.432
 21
70.4067
  0
LINE
  8
0
 10
387.432
 20
70.4067
 11
387.446
 21
70.4872
  0
LINE
  8
0
 10
387.446
 20
70.4872
 11
387.463
 21
70.5672
  0
LINE
  8
0
 10
387.463
 20
70.5672
 11
387.482
 21
70.6466
  0
LINE
  8
0
 10
387.482
 20
70.6466
 11
387.503
 21
70.7254
  0
LINE
  8
0
 10
387.503
 20
70.7254
 11
387.527
 21
70.8034
  0
LINE
  8
0
 10
387.527
 20
70.8034
 11
387.554
 21
70.8807
  0
LINE
  8
0
 10
387.554
 20
70.8807
 11
387.583
 21
70.9571
  0
LINE
  8
0
 10
387.583
 20
70.9571
 11
387.614
 21
71.0326
  0
LINE
  8
0
 10
387.614
 20
71.0326
 11
387.647
 21
71.107
  0
LINE
  8
0
 10
387.647
 20
71.107
 11
387.683
 21
71.1804
  0
LINE
  8
0
 10
387.683
 20
71.1804
 11
387.722
 21
71.2525
  0
LINE
  8
0
 10
387.722
 20
71.2525
 11
387.762
 21
71.3235
  0
LINE
  8
0
 10
387.762
 20
71.3235
 11
387.805
 21
71.3931
  0
LINE
  8
0
 10
387.805
 20
71.3931
 11
387.85
 21
71.4614
  0
LINE
  8
0
 10
387.85
 20
71.4614
 11
387.897
 21
71.5282
  0
LINE
  8
0
 10
387.897
 20
71.5282
 11
387.946
 21
71.5936
  0
LINE
  8
0
 10
387.946
 20
71.5936
 11
387.997
 21
71.6573
  0
LINE
  8
0
 10
387.997
 20
71.6573
 11
388.05
 21
71.7194
  0
LINE
  8
0
 10
388.05
 20
71.7194
 11
388.105
 21
71.7798
  0
LINE
  8
0
 10
388.105
 20
71.7798
 11
388.162
 21
71.8385
  0
LINE
  8
0
 10
388.162
 20
71.8385
 11
388.22
 21
71.8953
  0
LINE
  8
0
 10
388.22
 20
71.8953
 11
388.281
 21
71.9503
  0
LINE
  8
0
 10
388.281
 20
71.9503
 11
388.343
 21
72.0033
  0
LINE
  8
0
 10
388.343
 20
72.0033
 11
388.406
 21
72.0544
  0
LINE
  8
0
 10
388.406
 20
72.0544
 11
388.472
 21
72.1034
  0
LINE
  8
0
 10
388.472
 20
72.1034
 11
388.539
 21
72.1504
  0
LINE
  8
0
 10
388.539
 20
72.1504
 11
388.607
 21
72.1953
  0
LINE
  8
0
 10
388.607
 20
72.1953
 11
388.676
 21
72.2379
  0
LINE
  8
0
 10
388.676
 20
72.2379
 11
388.747
 21
72.2784
  0
LINE
  8
0
 10
388.747
 20
72.2784
 11
388.82
 21
72.3166
  0
LINE
  8
0
 10
388.82
 20
72.3166
 11
388.893
 21
72.3525
  0
LINE
  8
0
 10
388.893
 20
72.3525
 11
388.967
 21
72.3862
  0
LINE
  8
0
 10
388.967
 20
72.3862
 11
389.043
 21
72.4174
  0
LINE
  8
0
 10
389.043
 20
72.4174
 11
389.119
 21
72.4463
  0
LINE
  8
0
 10
389.119
 20
72.4463
 11
389.197
 21
72.4727
  0
LINE
  8
0
 10
389.197
 20
72.4727
 11
389.275
 21
72.4967
  0
LINE
  8
0
 10
389.275
 20
72.4967
 11
389.353
 21
72.5183
  0
LINE
  8
0
 10
389.353
 20
72.5183
 11
389.433
 21
72.5374
  0
LINE
  8
0
 10
389.433
 20
72.5374
 11
389.513
 21
72.5539
  0
LINE
  8
0
 10
389.513
 20
72.5539
 11
389.593
 21
72.568
  0
LINE
  8
0
 10
389.593
 20
72.568
 11
389.674
 21
72.5795
  0
LINE
  8
0
 10
389.674
 20
72.5795
 11
389.755
 21
72.5885
  0
LINE
  8
0
 10
389.755
 20
72.5885
 11
389.837
 21
72.5949
  0
LINE
  8
0
 10
389.837
 20
72.5949
 11
389.918
 21
72.5987
  0
LINE
  8
0
 10
389.918
 20
72.5987
 11
390
 21
72.6
  0
LINE
  8
0
 10
390
 20
72.6
 11
390.082
 21
72.5987
  0
LINE
  8
0
 10
390.082
 20
72.5987
 11
390.163
 21
72.5949
  0
LINE
  8
0
 10
390.163
 20
72.5949
 11
390.245
 21
72.5885
  0
LINE
  8
0
 10
390.245
 20
72.5885
 11
390.326
 21
72.5795
  0
LINE
  8
0
 10
390.326
 20
72.5795
 11
390.407
 21
72.568
  0
LINE
  8
0
 10
390.407
 20
72.568
 11
390.487
 21
72.5539
  0
LINE
  8
0
 10
390.487
 20
72.5539
 11
390.567
 21
72.5374
  0
LINE
  8
0
 10
390.567
 20
72.5374
 11
390.647
 21
72.5183
  0
LINE
  8
0
 10
390.647
 20
72.5183
 11
390.725
 21
72.4967
  0
LINE
  8
0
 10
390.725
 20
72.4967
 11
390.803
 21
72.4727
  0
LINE
  8
0
 10
390.803
 20
72.4727
 11
390.881
 21
72.4463
  0
LINE
  8
0
 10
390.881
 20
72.4463
 11
390.957
 21
72.4174
  0
LINE
  8
0
 10
390.957
 20
72.4174
 11
391.033
 21
72.3862
  0
LINE
  8
0
 10
391.033
 20
72.3862
 11
391.107
 21
72.3525
  0
LINE
  8
0
 10
391.107
 20
72.3525
 11
391.18
 21
72.3166
  0
LINE
  8
0
 10
391.18
 20
72.3166
 11
391.253
 21
72.2784
  0
LINE
  8
0
 10
391.253
 20
72.2784
 11
391.324
 21
72.2379
  0
LINE
  8
0
 10
391.324
 20
72.2379
 11
391.393
 21
72.1953
  0
LINE
  8
0
 10
391.393
 20
72.1953
 11
391.461
 21
72.1504
  0
LINE
  8
0
 10
391.461
 20
72.1504
 11
391.528
 21
72.1034
  0
LINE
  8
0
 10
391.528
 20
72.1034
 11
391.594
 21
72.0544
  0
LINE
  8
0
 10
391.594
 20
72.0544
 11
391.657
 21
72.0033
  0
LINE
  8
0
 10
391.657
 20
72.0033
 11
391.719
 21
71.9503
  0
LINE
  8
0
 10
391.719
 20
71.9503
 11
391.78
 21
71.8953
  0
LINE
  8
0
 10
391.78
 20
71.8953
 11
391.838
 21
71.8385
  0
LINE
  8
0
 10
391.838
 20
71.8385
 11
391.895
 21
71.7798
  0
LINE
  8
0
 10
391.895
 20
71.7798
 11
391.95
 21
71.7194
  0
LINE
  8
0
 10
391.95
 20
71.7194
 11
392.003
 21
71.6573
  0
LINE
  8
0
 10
392.003
 20
71.6573
 11
392.054
 21
71.5936
  0
LINE
  8
0
 10
392.054
 20
71.5936
 11
392.103
 21
71.5282
  0
LINE
  8
0
 10
392.103
 20
71.5282
 11
392.15
 21
71.4614
  0
LINE
  8
0
 10
392.15
 20
71.4614
 11
392.195
 21
71.3931
  0
LINE
  8
0
 10
392.195
 20
71.3931
 11
392.238
 21
71.3235
  0
LINE
  8
0
 10
392.238
 20
71.3235
 11
392.278
 21
71.2525
  0
LINE
  8
0
 10
392.278
 20
71.2525
 11
392.317
 21
71.1804
  0
LINE
  8
0
 10
392.317
 20
71.1804
 11
392.353
 21
71.107
  0
LINE
  8
0
 10
392.353
 20
71.107
 11
392.386
 21
71.0326
  0
LINE
  8
0
 10
392.386
 20
71.0326
 11
392.417
 21
70.9571
  0
LINE
  8
0
 10
392.417
 20
70.9571
 11
392.446
 21
70.8807
  0
LINE
  8
0
 10
392.446
 20
70.8807
 11
392.473
 21
70.8034
  0
LINE
  8
0
 10
392.473
 20
70.8034
 11
392.497
 21
70.7254
  0
LINE
  8
0
 10
392.497
 20
70.7254
 11
392.518
 21
70.6466
  0
LINE
  8
0
 10
392.518
 20
70.6466
 11
392.537
 21
70.5672
  0
LINE
  8
0
 10
392.537
 20
70.5672
 11
392.554
 21
70.4872
  0
LINE
  8
0
 10
392.554
 20
70.4872
 11
392.568
 21
70.4067
  0
LINE
  8
0
 10
392.568
 20
70.4067
 11
392.579
 21
70.3259
  0
LINE
  8
0
 10
392.579
 20
70.3259
 11
392.588
 21
70.2447
  0
LINE
  8
0
 10
392.588
 20
70.2447
 11
392.595
 21
70.1633
  0
LINE
  8
0
 10
392.595
 20
70.1633
 11
392.599
 21
70.0817
  0
LINE
  8
0
 10
392.599
 20
70.0817
 11
392.6
 21
70
  0
LINE
  8
0
 10
392.6
 20
70
 11
392.599
 21
69.9183
  0
LINE
  8
0
 10
392.599
 20
69.9183
 11
392.595
 21
69.8367
  0
LINE
  8
0
 10
392.595
 20
69.8367
 11
392.588
 21
69.7553
  0
LINE
  8
0
 10
392.588
 20
69.7553
 11
392.579
 21
69.6741
  0
LINE
  8
0
 10
392.579
 20
69.6741
 11
392.568
 21
69.5933
  0
LINE
  8
0
 10
392.568
 20
69.5933
 11
392.554
 21
69.5128
  0
LINE
  8
0
 10
392.554
 20
69.5128
 11
392.537
 21
69.4328
  0
LINE
  8
0
 10
392.537
 20
69.4328
 11
392.518
 21
69.3534
  0
LINE
  8
0
 10
392.518
 20
69.3534
 11
392.497
 21
69.2746
  0
LINE
  8
0
 10
392.497
 20
69.2746
 11
392.473
 21
69.1965
  0
LINE
  8
0
 10
392.473
 20
69.1965
 11
392.446
 21
69.1193
  0
LINE
  8
0
 10
392.446
 20
69.1193
 11
392.417
 21
69.0429
  0
LINE
  8
0
 10
392.417
 20
69.0429
 11
392.386
 21
68.9674
  0
LINE
  8
0
 10
392.386
 20
68.9674
 11
392.353
 21
68.893
  0
LINE
  8
0
 10
392.353
 20
68.893
 11
392.317
 21
68.8196
  0
LINE
  8
0
 10
392.317
 20
68.8196
 11
392.278
 21
68.7474
  0
LINE
  8
0
 10
392.278
 20
68.7474
 11
392.238
 21
68.6765
  0
LINE
  8
0
 10
392.238
 20
68.6765
 11
392.195
 21
68.6068
  0
LINE
  8
0
 10
392.195
 20
68.6068
 11
392.15
 21
68.5386
  0
LINE
  8
0
 10
392.15
 20
68.5386
 11
392.103
 21
68.4718
  0
LINE
  8
0
 10
392.103
 20
68.4718
 11
392.054
 21
68.4064
  0
LINE
  8
0
 10
392.054
 20
68.4064
 11
392.003
 21
68.3427
  0
LINE
  8
0
 10
392.003
 20
68.3427
 11
391.95
 21
68.2806
  0
LINE
  8
0
 10
391.95
 20
68.2806
 11
391.895
 21
68.2202
  0
LINE
  8
0
 10
391.895
 20
68.2202
 11
391.838
 21
68.1615
  0
LINE
  8
0
 10
391.838
 20
68.1615
 11
391.78
 21
68.1047
  0
LINE
  8
0
 10
391.78
 20
68.1047
 11
391.719
 21
68.0497
  0
LINE
  8
0
 10
391.719
 20
68.0497
 11
391.657
 21
67.9967
  0
LINE
  8
0
 10
391.657
 20
67.9967
 11
391.594
 21
67.9456
  0
LINE
  8
0
 10
391.594
 20
67.9456
 11
391.528
 21
67.8965
  0
LINE
  8
0
 10
391.528
 20
67.8965
 11
391.461
 21
67.8496
  0
LINE
  8
0
 10
391.461
 20
67.8496
 11
391.393
 21
67.8047
  0
LINE
  8
0
 10
391.393
 20
67.8047
 11
391.324
 21
67.7621
  0
LINE
  8
0
 10
391.324
 20
67.7621
 11
391.253
 21
67.7216
  0
LINE
  8
0
 10
391.253
 20
67.7216
 11
391.18
 21
67.6834
  0
LINE
  8
0
 10
391.18
 20
67.6834
 11
391.107
 21
67.6474
  0
LINE
  8
0
 10
391.107
 20
67.6474
 11
391.033
 21
67.6138
  0
LINE
  8
0
 10
391.033
 20
67.6138
 11
390.957
 21
67.5826
  0
LINE
  8
0
 10
390.957
 20
67.5826
 11
390.881
 21
67.5537
  0
LINE
  8
0
 10
390.881
 20
67.5537
 11
390.803
 21
67.5273
  0
LINE
  8
0
 10
390.803
 20
67.5273
 11
390.725
 21
67.5032
  0
LINE
  8
0
 10
390.725
 20
67.5032
 11
390.647
 21
67.4817
  0
LINE
  8
0
 10
390.647
 20
67.4817
 11
390.567
 21
67.4626
  0
LINE
  8
0
 10
390.567
 20
67.4626
 11
390.487
 21
67.446
  0
LINE
  8
0
 10
390.487
 20
67.446
 11
390.407
 21
67.432
  0
LINE
  8
0
 10
390.407
 20
67.432
 11
390.326
 21
67.4205
  0
LINE
  8
0
 10
390.326
 20
67.4205
 11
390.245
 21
67.4115
  0
LINE
  8
0
 10
390.245
 20
67.4115
 11
390.163
 21
67.4051
  0
LINE
  8
0
 10
390.163
 20
67.4051
 11
390.082
 21
67.4013
  0
LINE
  8
0
 10
390.082
 20
67.4013
 11
390
 21
67.4
  0
LINE
  8
0
 10
390
 20
67.4
 11
389.918
 21
67.4013
  0
LINE
  8
0
 10
479.918
 20
67.4013
 11
479.837
 21
67.4051
  0
LINE
  8
0
 10
479.837
 20
67.4051
 11
479.755
 21
67.4115
  0
LINE
  8
0
 10
479.755
 20
67.4115
 11
479.674
 21
67.4205
  0
LINE
  8
0
 10
479.674
 20
67.4205
 11
479.593
 21
67.432
  0
LINE
  8
0
 10
479.593
 20
67.432
 11
479.513
 21
67.446
  0
LINE
  8
0
 10
479.513
 20
67.446
 11
479.433
 21
67.4626
  0
LINE
  8
0
 10
479.433
 20
67.4626
 11
479.353
 21
67.4817
  0
LINE
  8
0
 10
479.353
 20
67.4817
 11
479.275
 21
67.5032
  0
LINE
  8
0
 10
479.275
 20
67.5032
 11
479.197
 21
67.5273
  0
LINE
  8
0
 10
479.197
 20
67.5273
 11
479.119
 21
67.5537
  0
LINE
  8
0
 10
479.119
 20
67.5537
 11
479.043
 21
67.5826
  0
LINE
  8
0
 10
479.043
 20
67.5826
 11
478.967
 21
67.6138
  0
LINE
  8
0
 10
478.967
 20
67.6138
 11
478.893
 21
67.6474
  0
LINE
  8
0
 10
478.893
 20
67.6474
 11
478.82
 21
67.6834
  0
LINE
  8
0
 10
478.82
 20
67.6834
 11
478.747
 21
67.7216
  0
LINE
  8
0
 10
478.747
 20
67.7216
 11
478.676
 21
67.7621
  0
LINE
  8
0
 10
478.676
 20
67.7621
 11
478.607
 21
67.8047
  0
LINE
  8
0
 10
478.607
 20
67.8047
 11
478.539
 21
67.8496
  0
LINE
  8
0
 10
478.539
 20
67.8496
 11
478.472
 21
67.8965
  0
LINE
  8
0
 10
478.472
 20
67.8965
 11
478.406
 21
67.9456
  0
LINE
  8
0
 10
478.406
 20
67.9456
 11
478.343
 21
67.9967
  0
LINE
  8
0
 10
478.343
 20
67.9967
 11
478.281
 21
68.0497
  0
LINE
  8
0
 10
478.281
 20
68.0497
 11
478.22
 21
68.1047
  0
LINE
  8
0
 10
478.22
 20
68.1047
 11
478.162
 21
68.1615
  0
LINE
  8
0
 10
478.162
 20
68.1615
 11
478.105
 21
68.2202
  0
LINE
  8
0
 10
478.105
 20
68.2202
 11
478.05
 21
68.2806
  0
LINE
  8
0
 10
478.05
 20
68.2806
 11
477.997
 21
68.3427
  0
LINE
  8
0
 10
477.997
 20
68.3427
 11
477.946
 21
68.4064
  0
LINE
  8
0
 10
477.946
 20
68.4064
 11
477.897
 21
68.4718
  0
LINE
  8
0
 10
477.897
 20
68.4718
 11
477.85
 21
68.5386
  0
LINE
  8
0
 10
477.85
 20
68.5386
 11
477.805
 21
68.6068
  0
LINE
  8
0
 10
477.805
 20
68.6068
 11
477.762
 21
68.6765
  0
LINE
  8
0
 10
477.762
 20
68.6765
 11
477.722
 21
68.7474
  0
LINE
  8
0
 10
477.722
 20
68.7474
 11
477.683
 21
68.8196
  0
LINE
  8
0
 10
477.683
 20
68.8196
 11
477.647
 21
68.893
  0
LINE
  8
0
 10
477.647
 20
68.893
 11
477.614
 21
68.9674
  0
LINE
  8
0
 10
477.614
 20
68.9674
 11
477.583
 21
69.0429
  0
LINE
  8
0
 10
477.583
 20
69.0429
 11
477.554
 21
69.1193
  0
LINE
  8
0
 10
477.554
 20
69.1193
 11
477.527
 21
69.1965
  0
LINE
  8
0
 10
477.527
 20
69.1965
 11
477.503
 21
69.2746
  0
LINE
  8
0
 10
477.503
 20
69.2746
 11
477.482
 21
69.3534
  0
LINE
  8
0
 10
477.482
 20
69.3534
 11
477.463
 21
69.4328
  0
LINE
  8
0
 10
477.463
 20
69.4328
 11
477.446
 21
69.5128
  0
LINE
  8
0
 10
477.446
 20
69.5128
 11
477.432
 21
69.5933
  0
LINE
  8
0
 10
477.432
 20
69.5933
 11
477.421
 21
69.6741
  0
LINE
  8
0
 10
477.421
 20
69.6741
 11
477.412
 21
69.7553
  0
LINE
  8
0
 10
477.412
 20
69.7553
 11
477.405
 21
69.8367
  0
LINE
  8
0
 10
477.405
 20
69.8367
 11
477.401
 21
69.9183
  0
LINE
  8
0
 10
477.401
 20
69.9183
 11
477.4
 21
70
  0
LINE
  8
0
 10
477.4
 20
70
 11
477.401
 21
70.0817
  0
LINE
  8
0
 10
477.401
 20
70.0817
 11
477.405
 21
70.1633
  0
LINE
  8
0
 10
477.405
 20
70.1633
 11
477.412
 21
70.2447
  0
LINE
  8
0
 10
477.412
 20
70.2447
 11
477.421
 21
70.3259
  0
LINE
  8
0
 10
477.421
 20
70.3259
 11
477.432
 21
70.4067
  0
LINE
  8
0
 10
477.432
 20
70.4067
 11
477.446
 21
70.4872
  0
LINE
  8
0
 10
477.446
 20
70.4872
 11
477.463
 21
70.5672
  0
LINE
  8
0
 10
477.463
 20
70.5672
 11
477.482
 21
70.6466
  0
LINE
  8
0
 10
477.482
 20
70.6466
 11
477.503
 21
70.7254
  0
LINE
  8
0
 10
477.503
 20
70.7254
 11
477.527
 21
70.8034
  0
LINE
  8
0
 10
477.527
 20
70.8034
 11
477.554
 21
70.8807
  0
LINE
  8
0
 10
477.554
 20
70.8807
 11
477.583
 21
70.9571
  0
LINE
  8
0
 10
477.583
 20
70.9571
 11
477.614
 21
71.0326
  0
LINE
  8
0
 10
477.614
 20
71.0326
 11
477.647
 21
71.107
  0
LINE
  8
0
 10
477.647
 20
71.107
 11
477.683
 21
71.1804
  0
LINE
  8
0
 10
477.683
 20
71.1804
 11
477.722
 21
71.2525
  0
LINE
  8
0
 10
477.722
 20
71.2525
 11
477.762
 21
71.3235
  0
LINE
  8
0
 10
477.762
 20
71.3235
 11
477.805
 21
71.3931
  0
LINE
  8
0
 10
477.805
 20
71.3931
 11
477.85
 21
71.4614
  0
LINE
  8
0
 10
477.85
 20
71.4614
 11
477.897
 21
71.5282
  0
LINE
  8
0
 10
477.897
 20
71.5282
 11
477.946
 21
71.5936
  0
LINE
  8
0
 10
477.946
 20
71.5936
 11
477.997
 21
71.6573
  0
LINE
  8
0
 10
477.997
 20
71.6573
 11
478.05
 21
71.7194
  0
LINE
  8
0
 10
478.05
 20
71.7194
 11
478.105
 21
71.7798
  0
LINE
  8
0
 10
478.105
 20
71.7798
 11
478.162
 21
71.8385
  0
LINE
  8
0
 10
478.162
 20
71.8385
 11
478.22
 21
71.8953
  0
LINE
  8
0
 10
478.22
 20
71.8953
 11
478.281
 21
71.9503
  0
LINE
  8
0
 10
478.281
 20
71.9503
 11
478.343
 21
72.0033
  0
LINE
  8
0
 10
478.343
 20
72.0033
 11
478.406
 21
72.0544
  0
LINE
  8
0
 10
478.406
 20
72.0544
 11
478.472
 21
72.1034
  0
LINE
  8
0
 10
478.472
 20
72.1034
 11
478.539
 21
72.1504
  0
LINE
  8
0
 10
478.539
 20
72.1504
 11
478.607
 21
72.1953
  0
LINE
  8
0
 10
478.607
 20
72.1953
 11
478.676
 21
72.2379
  0
LINE
  8
0
 10
478.676
 20
72.2379
 11
478.747
 21
72.2784
  0
LINE
  8
0
 10
478.747
 20
72.2784
 11
478.82
 21
72.3166
  0
LINE
  8
0
 10
478.82
 20
72.3166
 11
478.893
 21
72.3525
  0
LINE
  8
0
 10
478.893
 20
72.3525
 11
478.967
 21
72.3862
  0
LINE
  8
0
 10
478.967
 20
72.3862
 11
479.043
 21
72.4174
  0
LINE
  8
0
 10
479.043
 20
72.4174
 11
479.119
 21
72.4463
  0
LINE
  8
0
 10
479.119
 20
72.4463
 11
479.197
 21
72.4727
  0
LINE
  8
0
 10
479.197
 20
72.4727
 11
479.275
 21
72.4967
  0
LINE
  8
0
 10
479.275
 20
72.4967
 11
479.353
 21
72.5183
  0
LINE
  8
0
 10
479.353
 20
72.5183
 11
479.433
 21
72.5374
  0
LINE
  8
0
 10
479.433
 20
72.5374
 11
479.513
 21
72.5539
  0
LINE
  8
0
 10
479.513
 20
72.5539
 11
479.593
 21
72.568
  0
LINE
  8
0
 10
479.593
 20
72.568
 11
479.674
 21
72.5795
  0
LINE
  8
0
 10
479.674
 20
72.5795
 11
479.755
 21
72.5885
  0
LINE
  8
0
 10
479.755
 20
72.5885
 11
479.837
 21
72.5949
  0
LINE
  8
0
 10
479.837
 20
72.5949
 11
479.918
 21
72.5987
  0
LINE
  8
0
 10
479.918
 20
72.5987
 11
480
 21
72.6
  0
LINE
  8
0
 10
480
 20
72.6
 11
480.082
 21
72.5987
  0
LINE
  8
0
 10
480.082
 20
72.5987
 11
480.163
 21
72.5949
  0
LINE
  8
0
 10
480.163
 20
72.5949
 11
480.245
 21
72.5885
  0
LINE
  8
0
 10
480.245
 20
72.5885
 11
480.326
 21
72.5795
  0
LINE
  8
0
 10
480.326
 20
72.5795
 11
480.407
 21
72.568
  0
LINE
  8
0
 10
480.407
 20
72.568
 11
480.487
 21
72.5539
  0
LINE
  8
0
 10
480.487
 20
72.5539
 11
480.567
 21
72.5374
  0
LINE
  8
0
 10
480.567
 20
72.5374
 11
480.647
 21
72.5183
  0
LINE
  8
0
 10
480.647
 20
72.5183
 11
480.725
 21
72.4967
  0
LINE
  8
0
 10
480.725
 20
72.4967
 11
480.803
 21
72.4727
  0
LINE
  8
0
 10
480.803
 20
72.4727
 11
480.881
 21
72.4463
  0
LINE
  8
0
 10
480.881
 20
72.4463
 11
480.957
 21
72.4174
  0
LINE
  8
0
 10
480.957
 20
72.4174
 11
481.033
 21
72.3862
  0
LINE
  8
0
 10
481.033
 20
72.3862
 11
481.107
 21
72.3525
  0
LINE
  8
0
 10
481.107
 20
72.3525
 11
481.18
 21
72.3166
  0
LINE
  8
0
 10
481.18
 20
72.3166
 11
481.253
 21
72.2784
  0
LINE
  8
0
 10
481.253
 20
72.2784
 11
481.324
 21
72.2379
  0
LINE
  8
0
 10
481.324
 20
72.2379
 11
481.393
 21
72.1953
  0
LINE
  8
0
 10
481.393
 20
72.1953
 11
481.461
 21
72.1504
  0
LINE
  8
0
 10
481.461
 20
72.1504
 11
481.528
 21
72.1034
  0
LINE
  8
0
 10
481.528
 20
72.1034
 11
481.594
 21
72.0544
  0
LINE
  8
0
 10
481.594
 20
72.0544
 11
481.657
 21
72.0033
  0
LINE
  8
0
 10
481.657
 20
72.0033
 11
481.719
 21
71.9503
  0
LINE
  8
0
 10
481.719
 20
71.9503
 11
481.78
 21
71.8953
  0
LINE
  8
0
 10
481.78
 20
71.8953
 11
481.838
 21
71.8385
  0
LINE
  8
0
 10
481.838
 20
71.8385
 11
481.895
 21
71.7798
  0
LINE
  8
0
 10
481.895
 20
71.7798
 11
481.95
 21
71.7194
  0
LINE
  8
0
 10
481.95
 20
71.7194
 11
482.003
 21
71.6573
  0
LINE
  8
0
 10
482.003
 20
71.6573
 11
482.054
 21
71.5936
  0
LINE
  8
0
 10
482.054
 20
71.5936
 11
482.103
 21
71.5282
  0
LINE
  8
0
 10
482.103
 20
71.5282
 11
482.15
 21
71.4614
  0
LINE
  8
0
 10
482.15
 20
71.4614
 11
482.195
 21
71.3931
  0
LINE
  8
0
 10
482.195
 20
71.3931
 11
482.238
 21
71.3235
  0
LINE
  8
0
 10
482.238
 20
71.3235
 11
482.278
 21
71.2525
  0
LINE
  8
0
 10
482.278
 20
71.2525
 11
482.317
 21
71.1804
  0
LINE
  8
0
 10
482.317
 20
71.1804
 11
482.353
 21
71.107
  0
LINE
  8
0
 10
482.353
 20
71.107
 11
482.386
 21
71.0326
  0
LINE
  8
0
 10
482.386
 20
71.0326
 11
482.417
 21
70.9571
  0
LINE
  8
0
 10
482.417
 20
70.9571
 11
482.446
 21
70.8807
  0
LINE
  8
0
 10
482.446
 20
70.8807
 11
482.473
 21
70.8034
  0
LINE
  8
0
 10
482.473
 20
70.8034
 11
482.497
 21
70.7254
  0
LINE
  8
0
 10
482.497
 20
70.7254
 11
482.518
 21
70.6466
  0
LINE
  8
0
 10
482.518
 20
70.6466
 11
482.537
 21
70.5672
  0
LINE
  8
0
 10
482.537
 20
70.5672
 11
482.554
 21
70.4872
  0
LINE
  8
0
 10
482.554
 20
70.4872
 11
482.568
 21
70.4067
  0
LINE
  8
0
 10
482.568
 20
70.4067
 11
482.579
 21
70.3259
  0
LINE
  8
0
 10
482.579
 20
70.3259
 11
482.588
 21
70.2447
  0
LINE
  8
0
 10
482.588
 20
70.2447
 11
482.595
 21
70.1633
  0
LINE
  8
0
 10
482.595
 20
70.1633
 11
482.599
 21
70.0817
  0
LINE
  8
0
 10
482.599
 20
70.0817
 11
482.6
 21
70
  0
LINE
  8
0
 10
482.6
 20
70
 11
482.599
 21
69.9183
  0
LINE
  8
0
 10
482.599
 20
69.9183
 11
482.595
 21
69.8367
  0
LINE
  8
0
 10
482.595
 20
69.8367
 11
482.588
 21
69.7553
  0
LINE
  8
0
 10
482.588
 20
69.7553
 11
482.579
 21
69.6741
  0
LINE
  8
0
 10
482.579
 20
69.6741
 11
482.568
 21
69.5933
  0
LINE
  8
0
 10
482.568
 20
69.5933
 11
482.554
 21
69.5128
  0
LINE
  8
0
 10
482.554
 20
69.5128
 11
482.537
 21
69.4328
  0
LINE
  8
0
 10
482.537
 20
69.4328
 11
482.518
 21
69.3534
  0
LINE
  8
0
 10
482.518
 20
69.3534
 11
482.497
 21
69.2746
  0
LINE
  8
0
 10
482.497
 20
69.2746
 11
482.473
 21
69.1965
  0
LINE
  8
0
 10
482.473
 20
69.1965
 11
482.446
 21
69.1193
  0
LINE
  8
0
 10
482.446
 20
69.1193
 11
482.417
 21
69.0429
  0
LINE
  8
0
 10
482.417
 20
69.0429
 11
482.386
 21
68.9674
  0
LINE
  8
0
 10
482.386
 20
68.9674
 11
482.353
 21
68.893
  0
LINE
  8
0
 10
482.353
 20
68.893
 11
482.317
 21
68.8196
  0
LINE
  8
0
 10
482.317
 20
68.8196
 11
482.278
 21
68.7474
  0
LINE
  8
0
 10
482.278
 20
68.7474
 11
482.238
 21
68.6765
  0
LINE
  8
0
 10
482.238
 20
68.6765
 11
482.195
 21
68.6068
  0
LINE
  8
0
 10
482.195
 20
68.6068
 11
482.15
 21
68.5386
  0
LINE
  8
0
 10
482.15
 20
68.5386
 11
482.103
 21
68.4718
  0
LINE
  8
0
 10
482.103
 20
68.4718
 11
482.054
 21
68.4064
  0
LINE
  8
0
 10
482.054
 20
68.4064
 11
482.003
 21
68.3427
  0
LINE
  8
0
 10
482.003
 20
68.3427
 11
481.95
 21
68.2806
  0
LINE
  8
0
 10
481.95
 20
68.2806
 11
481.895
 21
68.2202
  0
LINE
  8
0
 10
481.895
 20
68.2202
 11
481.838
 21
68.1615
  0
LINE
  8
0
 10
481.838
 20
68.1615
 11
481.78
 21
68.1047
  0
LINE
  8
0
 10
481.78
 20
68.1047
 11
481.719
 21
68.0497
  0
LINE
  8
0
 10
481.719
 20
68.0497
 11
481.657
 21
67.9967
  0
LINE
  8
0
 10
481.657
 20
67.9967
 11
481.594
 21
67.9456
  0
LINE
  8
0
 10
481.594
 20
67.9456
 11
481.528
 21
67.8965
  0
LINE
  8
0
 10
481.528
 20
67.8965
 11
481.461
 21
67.8496
  0
LINE
  8
0
 10
481.461
 20
67.8496
 11
481.393
 21
67.8047
  0
LINE
  8
0
 10
481.393
 20
67.8047
 11
481.324
 21
67.7621
  0
LINE
  8
0
 10
481.324
 20
67.7621
 11
481.253
 21
67.7216
  0
LINE
  8
0
 10
481.253
 20
67.7216
 11
481.18
 21
67.6834
  0
LINE
  8
0
 10
481.18
 20
67.6834
 11
481.107
 21
67.6474
  0
LINE
  8
0
 10
481.107
 20
67.6474
 11
481.033
 21
67.6138
  0
LINE
  8
0
 10
481.033
 20
67.6138
 11
480.957
 21
67.5826
  0
LINE
  8
0
 10
480.957
 20
67.5826
 11
480.881
 21
67.5537
  0
LINE
  8
0
 10
480.881
 20
67.5537
 11
480.803
 21
67.5273
  0
LINE
  8
0
 10
480.803
 20
67.5273
 11
480.725
 21
67.5032
  0
LINE
  8
0
 10
480.725
 20
67.5032
 11
480.647
 21
67.4817
  0
LINE
  8
0
 10
480.647
 20
67.4817
 11
480.567
 21
67.4626
  0
LINE
  8
0
 10
480.567
 20
67.4626
 11
480.487
 21
67.446
  0
LINE
  8
0
 10
480.487
 20
67.446
 11
480.407
 21
67.432
  0
LINE
  8
0
 10
480.407
 20
67.432
 11
480.326
 21
67.4205
  0
LINE
  8
0
 10
480.326
 20
67.4205
 11
480.245
 21
67.4115
  0
LINE
  8
0
 10
480.245
 20
67.4115
 11
480.163
 21
67.4051
  0
LINE
  8
0
 10
480.163
 20
67.4051
 11
480.082
 21
67.4013
  0
LINE
  8
0
 10
480.082
 20
67.4013
 11
480
 21
67.4
  0
LINE
  8
0
 10
480
 20
67.4
 11
479.918
 21
67.4013
  0
LINE
  8
0
 10
569.918
 20
67.4013
 11
569.837
 21
67.4051
  0
LINE
  8
0
 10
569.837
 20
67.4051
 11
569.755
 21
67.4115
  0
LINE
  8
0
 10
569.755
 20
67.4115
 11
569.674
 21
67.4205
  0
LINE
  8
0
 10
569.674
 20
67.4205
 11
569.593
 21
67.432
  0
LINE
  8
0
 10
569.593
 20
67.432
 11
569.513
 21
67.446
  0
LINE
  8
0
 10
569.513
 20
67.446
 11
569.433
 21
67.4626
  0
LINE
  8
0
 10
569.433
 20
67.4626
 11
569.353
 21
67.4817
  0
LINE
  8
0
 10
569.353
 20
67.4817
 11
569.275
 21
67.5032
  0
LINE
  8
0
 10
569.275
 20
67.5032
 11
569.197
 21
67.5273
  0
LINE
  8
0
 10
569.197
 20
67.5273
 11
569.119
 21
67.5537
  0
LINE
  8
0
 10
569.119
 20
67.5537
 11
569.043
 21
67.5826
  0
LINE
  8
0
 10
569.043
 20
67.5826
 11
568.967
 21
67.6138
  0
LINE
  8
0
 10
568.967
 20
67.6138
 11
568.893
 21
67.6474
  0
LINE
  8
0
 10
568.893
 20
67.6474
 11
568.82
 21
67.6834
  0
LINE
  8
0
 10
568.82
 20
67.6834
 11
568.747
 21
67.7216
  0
LINE
  8
0
 10
568.747
 20
67.7216
 11
568.676
 21
67.7621
  0
LINE
  8
0
 10
568.676
 20
67.7621
 11
568.607
 21
67.8047
  0
LINE
  8
0
 10
568.607
 20
67.8047
 11
568.539
 21
67.8496
  0
LINE
  8
0
 10
568.539
 20
67.8496
 11
568.472
 21
67.8965
  0
LINE
  8
0
 10
568.472
 20
67.8965
 11
568.406
 21
67.9456
  0
LINE
  8
0
 10
568.406
 20
67.9456
 11
568.343
 21
67.9967
  0
LINE
  8
0
 10
568.343
 20
67.9967
 11
568.281
 21
68.0497
  0
LINE
  8
0
 10
568.281
 20
68.0497
 11
568.22
 21
68.1047
  0
LINE
  8
0
 10
568.22
 20
68.1047
 11
568.162
 21
68.1615
  0
LINE
  8
0
 10
568.162
 20
68.1615
 11
568.105
 21
68.2202
  0
LINE
  8
0
 10
568.105
 20
68.2202
 11
568.05
 21
68.2806
  0
LINE
  8
0
 10
568.05
 20
68.2806
 11
567.997
 21
68.3427
  0
LINE
  8
0
 10
567.997
 20
68.3427
 11
567.946
 21
68.4064
  0
LINE
  8
0
 10
567.946
 20
68.4064
 11
567.897
 21
68.4718
  0
LINE
  8
0
 10
567.897
 20
68.4718
 11
567.85
 21
68.5386
  0
LINE
  8
0
 10
567.85
 20
68.5386
 11
567.805
 21
68.6068
  0
LINE
  8
0
 10
567.805
 20
68.6068
 11
567.762
 21
68.6765
  0
LINE
  8
0
 10
567.762
 20
68.6765
 11
567.722
 21
68.7474
  0
LINE
  8
0
 10
567.722
 20
68.7474
 11
567.683
 21
68.8196
  0
LINE
  8
0
 10
567.683
 20
68.8196
 11
567.647
 21
68.893
  0
LINE
  8
0
 10
567.647
 20
68.893
 11
567.614
 21
68.9674
  0
LINE
  8
0
 10
567.614
 20
68.9674
 11
567.583
 21
69.0429
  0
LINE
  8
0
 10
567.583
 20
69.0429
 11
567.554
 21
69.1193
  0
LINE
  8
0
 10
567.554
 20
69.1193
 11
567.527
 21
69.1965
  0
LINE
  8
0
 10
567.527
 20
69.1965
 11
567.503
 21
69.2746
  0
LINE
  8
0
 10
567.503
 20
69.2746
 11
567.482
 21
69.3534
  0
LINE
  8
0
 10
567.482
 20
69.3534
 11
567.463
 21
69.4328
  0
LINE
  8
0
 10
567.463
 20
69.4328
 11
567.446
 21
69.5128
  0
LINE
  8
0
 10
567.446
 20
69.5128
 11
567.432
 21
69.5933
  0
LINE
  8
0
 10
567.432
 20
69.5933
 11
567.421
 21
69.6741
  0
LINE
  8
0
 10
567.421
 20
69.6741
 11
567.412
 21
69.7553
  0
LINE
  8
0
 10
567.412
 20
69.7553
 11
567.405
 21
69.8367
  0
LINE
  8
0
 10
567.405
 20
69.8367
 11
567.401
 21
69.9183
  0
LINE
  8
0
 10
567.401
 20
69.9183
 11
567.4
 21
70
  0
LINE
  8
0
 10
567.4
 20
70
 11
567.401
 21
70.0817
  0
LINE
  8
0
 10
567.401
 20
70.0817
 11
567.405
 21
70.1633
  0
LINE
  8
0
 10
567.405
 20
70.1633
 11
567.412
 21
70.2447
  0
LINE
  8
0
 10
567.412
 20
70.2447
 11
567.421
 21
70.3259
  0
LINE
  8
0
 10
567.421
 20
70.3259
 11
567.432
 21
70.4067
  0
LINE
  8
0
 10
567.432
 20
70.4067
 11
567.446
 21
70.4872
  0
LINE
  8
0
 10
567.446
 20
70.4872
 11
567.463
 21
70.5672
  0
LINE
  8
0
 10
567.463
 20
70.5672
 11
567.482
 21
70.6466
  0
LINE
  8
0
 10
567.482
 20
70.6466
 11
567.503
 21
70.7254
  0
LINE
  8
0
 10
567.503
 20
70.7254
 11
567.527
 21
70.8034
  0
LINE
  8
0
 10
567.527
 20
70.8034
 11
567.554
 21
70.8807
  0
LINE
  8
0
 10
567.554
 20
70.8807
 11
567.583
 21
70.9571
  0
LINE
  8
0
 10
567.583
 20
70.9571
 11
567.614
 21
71.0326
  0
LINE
  8
0
 10
567.614
 20
71.0326
 11
567.647
 21
71.107
  0
LINE
  8
0
 10
567.647
 20
71.107
 11
567.683
 21
71.1804
  0
LINE
  8
0
 10
567.683
 20
71.1804
 11
567.722
 21
71.2525
  0
LINE
  8
0
 10
567.722
 20
71.2525
 11
567.762
 21
71.3235
  0
LINE
  8
0
 10
567.762
 20
71.3235
 11
567.805
 21
71.3931
  0
LINE
  8
0
 10
567.805
 20
71.3931
 11
567.85
 21
71.4614
  0
LINE
  8
0
 10
567.85
 20
71.4614
 11
567.897
 21
71.5282
  0
LINE
  8
0
 10
567.897
 20
71.5282
 11
567.946
 21
71.5936
  0
LINE
  8
0
 10
567.946
 20
71.5936
 11
567.997
 21
71.6573
  0
LINE
  8
0
 10
567.997
 20
71.6573
 11
568.05
 21
71.7194
  0
LINE
  8
0
 10
568.05
 20
71.7194
 11
568.105
 21
71.7798
  0
LINE
  8
0
 10
568.105
 20
71.7798
 11
568.162
 21
71.8385
  0
LINE
  8
0
 10
568.162
 20
71.8385
 11
568.22
 21
71.8953
  0
LINE
  8
0
 10
568.22
 20
71.8953
 11
568.281
 21
71.9503
  0
LINE
  8
0
 10
568.281
 20
71.9503
 11
568.343
 21
72.0033
  0
LINE
  8
0
 10
568.343
 20
72.0033
 11
568.406
 21
72.0544
  0
LINE
  8
0
 10
568.406
 20
72.0544
 11
568.472
 21
72.1034
  0
LINE
  8
0
 10
568.472
 20
72.1034
 11
568.539
 21
72.1504
  0
LINE
  8
0
 10
568.539
 20
72.1504
 11
568.607
 21
72.1953
  0
LINE
  8
0
 10
568.607
 20
72.1953
 11
568.676
 21
72.2379
  0
LINE
  8
0
 10
568.676
 20
72.2379
 11
568.747
 21
72.2784
  0
LINE
  8
0
 10
568.747
 20
72.2784
 11
568.82
 21
72.3166
  0
LINE
  8
0
 10
568.82
 20
72.3166
 11
568.893
 21
72.3525
  0
LINE
  8
0
 10
568.893
 20
72.3525
 11
568.967
 21
72.3862
  0
LINE
  8
0
 10
568.967
 20
72.3862
 11
569.043
 21
72.4174
  0
LINE
  8
0
 10
569.043
 20
72.4174
 11
569.119
 21
72.4463
  0
LINE
  8
0
 10
569.119
 20
72.4463
 11
569.197
 21
72.4727
  0
LINE
  8
0
 10
569.197
 20
72.4727
 11
569.275
 21
72.4967
  0
LINE
  8
0
 10
569.275
 20
72.4967
 11
569.353
 21
72.5183
  0
LINE
  8
0
 10
569.353
 20
72.5183
 11
569.433
 21
72.5374
  0
LINE
  8
0
 10
569.433
 20
72.5374
 11
569.513
 21
72.5539
  0
LINE
  8
0
 10
569.513
 20
72.5539
 11
569.593
 21
72.568
  0
LINE
  8
0
 10
569.593
 20
72.568
 11
569.674
 21
72.5795
  0
LINE
  8
0
 10
569.674
 20
72.5795
 11
569.755
 21
72.5885
  0
LINE
  8
0
 10
569.755
 20
72.5885
 11
569.837
 21
72.5949
  0
LINE
  8
0
 10
569.837
 20
72.5949
 11
569.918
 21
72.5987
  0
LINE
  8
0
 10
569.918
 20
72.5987
 11
570
 21
72.6
  0
LINE
  8
0
 10
570
 20
72.6
 11
570.082
 21
72.5987
  0
LINE
  8
0
 10
570.082
 20
72.5987
 11
570.163
 21
72.5949
  0
LINE
  8
0
 10
570.163
 20
72.5949
 11
570.245
 21
72.5885
  0
LINE
  8
0
 10
570.245
 20
72.5885
 11
570.326
 21
72.5795
  0
LINE
  8
0
 10
570.326
 20
72.5795
 11
570.407
 21
72.568
  0
LINE
  8
0
 10
570.407
 20
72.568
 11
570.487
 21
72.5539
  0
LINE
  8
0
 10
570.487
 20
72.5539
 11
570.567
 21
72.5374
  0
LINE
  8
0
 10
570.567
 20
72.5374
 11
570.647
 21
72.5183
  0
LINE
  8
0
 10
570.647
 20
72.5183
 11
570.725
 21
72.4967
  0
LINE
  8
0
 10
570.725
 20
72.4967
 11
570.803
 21
72.4727
  0
LINE
  8
0
 10
570.803
 20
72.4727
 11
570.881
 21
72.4463
  0
LINE
  8
0
 10
570.881
 20
72.4463
 11
570.957
 21
72.4174
  0
LINE
  8
0
 10
570.957
 20
72.4174
 11
571.033
 21
72.3862
  0
LINE
  8
0
 10
571.033
 20
72.3862
 11
571.107
 21
72.3525
  0
LINE
  8
0
 10
571.107
 20
72.3525
 11
571.18
 21
72.3166
  0
LINE
  8
0
 10
571.18
 20
72.3166
 11
571.253
 21
72.2784
  0
LINE
  8
0
 10
571.253
 20
72.2784
 11
571.324
 21
72.2379
  0
LINE
  8
0
 10
571.324
 20
72.2379
 11
571.393
 21
72.1953
  0
LINE
  8
0
 10
571.393
 20
72.1953
 11
571.461
 21
72.1504
  0
LINE
  8
0
 10
571.461
 20
72.1504
 11
571.528
 21
72.1034
  0
LINE
  8
0
 10
571.528
 20
72.1034
 11
571.594
 21
72.0544
  0
LINE
  8
0
 10
571.594
 20
72.0544
 11
571.657
 21
72.0033
  0
LINE
  8
0
 10
571.657
 20
72.0033
 11
571.719
 21
71.9503
  0
LINE
  8
0
 10
571.719
 20
71.9503
 11
571.78
 21
71.8953
  0
LINE
  8
0
 10
571.78
 20
71.8953
 11
571.838
 21
71.8385
  0
LINE
  8
0
 10
571.838
 20
71.8385
 11
571.895
 21
71.7798
  0
LINE
  8
0
 10
571.895
 20
71.7798
 11
571.95
 21
71.7194
  0
LINE
  8
0
 10
571.95
 20
71.7194
 11
572.003
 21
71.6573
  0
LINE
  8
0
 10
572.003
 20
71.6573
 11
572.054
 21
71.5936
  0
LINE
  8
0
 10
572.054
 20
71.5936
 11
572.103
 21
71.5282
  0
LINE
  8
0
 10
572.103
 20
71.5282
 11
572.15
 21
71.4614
  0
LINE
  8
0
 10
572.15
 20
71.4614
 11
572.195
 21
71.3931
  0
LINE
  8
0
 10
572.195
 20
71.3931
 11
572.238
 21
71.3235
  0
LINE
  8
0
 10
572.238
 20
71.3235
 11
572.278
 21
71.2525
  0
LINE
  8
0
 10
572.278
 20
71.2525
 11
572.317
 21
71.1804
  0
LINE
  8
0
 10
572.317
 20
71.1804
 11
572.353
 21
71.107
  0
LINE
  8
0
 10
572.353
 20
71.107
 11
572.386
 21
71.0326
  0
LINE
  8
0
 10
572.386
 20
71.0326
 11
572.417
 21
70.9571
  0
LINE
  8
0
 10
572.417
 20
70.9571
 11
572.446
 21
70.8807
  0
LINE
  8
0
 10
572.446
 20
70.8807
 11
572.473
 21
70.8034
  0
LINE
  8
0
 10
572.473
 20
70.8034
 11
572.497
 21
70.7254
  0
LINE
  8
0
 10
572.497
 20
70.7254
 11
572.518
 21
70.6466
  0
LINE
  8
0
 10
572.518
 20
70.6466
 11
572.537
 21
70.5672
  0
LINE
  8
0
 10
572.537
 20
70.5672
 11
572.554
 21
70.4872
  0
LINE
  8
0
 10
572.554
 20
70.4872
 11
572.568
 21
70.4067
  0
LINE
  8
0
 10
572.568
 20
70.4067
 11
572.579
 21
70.3259
  0
LINE
  8
0
 10
572.579
 20
70.3259
 11
572.588
 21
70.2447
  0
LINE
  8
0
 10
572.588
 20
70.2447
 11
572.595
 21
70.1633
  0
LINE
  8
0
 10
572.595
 20
70.1633
 11
572.599
 21
70.0817
  0
LINE
  8
0
 10
572.599
 20
70.0817
 11
572.6
 21
70
  0
LINE
  8
0
 10
572.6
 20
70
 11
572.599
 21
69.9183
  0
LINE
  8
0
 10
572.599
 20
69.9183
 11
572.595
 21
69.8367
  0
LINE
  8
0
 10
572.595
 20
69.8367
 11
572.588
 21
69.7553
  0
LINE
  8
0
 10
572.588
 20
69.7553
 11
572.579
 21
69.6741
  0
LINE
  8
0
 10
572.579
 20
69.6741
 11
572.568
 21
69.5933
  0
LINE
  8
0
 10
572.568
 20
69.5933
 11
572.554
 21
69.5128
  0
LINE
  8
0
 10
572.554
 20
69.5128
 11
572.537
 21
69.4328
  0
LINE
  8
0
 10
572.537
 20
69.4328
 11
572.518
 21
69.3534
  0
LINE
  8
0
 10
572.518
 20
69.3534
 11
572.497
 21
69.2746
  0
LINE
  8
0
 10
572.497
 20
69.2746
 11
572.473
 21
69.1965
  0
LINE
  8
0
 10
572.473
 20
69.1965
 11
572.446
 21
69.1193
  0
LINE
  8
0
 10
572.446
 20
69.1193
 11
572.417
 21
69.0429
  0
LINE
  8
0
 10
572.417
 20
69.0429
 11
572.386
 21
68.9674
  0
LINE
  8
0
 10
572.386
 20
68.9674
 11
572.353
 21
68.893
  0
LINE
  8
0
 10
572.353
 20
68.893
 11
572.317
 21
68.8196
  0
LINE
  8
0
 10
572.317
 20
68.8196
 11
572.278
 21
68.7474
  0
LINE
  8
0
 10
572.278
 20
68.7474
 11
572.238
 21
68.6765
  0
LINE
  8
0
 10
572.238
 20
68.6765
 11
572.195
 21
68.6068
  0
LINE
  8
0
 10
572.195
 20
68.6068
 11
572.15
 21
68.5386
  0
LINE
  8
0
 10
572.15
 20
68.5386
 11
572.103
 21
68.4718
  0
LINE
  8
0
 10
572.103
 20
68.4718
 11
572.054
 21
68.4064
  0
LINE
  8
0
 10
572.054
 20
68.4064
 11
572.003
 21
68.3427
  0
LINE
  8
0
 10
572.003
 20
68.3427
 11
571.95
 21
68.2806
  0
LINE
  8
0
 10
571.95
 20
68.2806
 11
571.895
 21
68.2202
  0
LINE
  8
0
 10
571.895
 20
68.2202
 11
571.838
 21
68.1615
  0
LINE
  8
0
 10
571.838
 20
68.1615
 11
571.78
 21
68.1047
  0
LINE
  8
0
 10
571.78
 20
68.1047
 11
571.719
 21
68.0497
  0
LINE
  8
0
 10
571.719
 20
68.0497
 11
571.657
 21
67.9967
  0
LINE
  8
0
 10
571.657
 20
67.9967
 11
571.594
 21
67.9456
  0
LINE
  8
0
 10
571.594
 20
67.9456
 11
571.528
 21
67.8965
  0
LINE
  8
0
 10
571.528
 20
67.8965
 11
571.461
 21
67.8496
  0
LINE
  8
0
 10
571.461
 20
67.8496
 11
571.393
 21
67.8047
  0
LINE
  8
0
 10
571.393
 20
67.8047
 11
571.324
 21
67.7621
  0
LINE
  8
0
 10
571.324
 20
67.7621
 11
571.253
 21
67.7216
  0
LINE
  8
0
 10
571.253
 20
67.7216
 11
571.18
 21
67.6834
  0
LINE
  8
0
 10
571.18
 20
67.6834
 11
571.107
 21
67.6474
  0
LINE
  8
0
 10
571.107
 20
67.6474
 11
571.033
 21
67.6138
  0
LINE
  8
0
 10
571.033
 20
67.6138
 11
570.957
 21
67.5826
  0
LINE
  8
0
 10
570.957
 20
67.5826
 11
570.881
 21
67.5537
  0
LINE
  8
0
 10
570.881
 20
67.5537
 11
570.803
 21
67.5273
  0
LINE
  8
0
 10
570.803
 20
67.5273
 11
570.725
 21
67.5032
  0
LINE
  8
0
 10
570.725
 20
67.5032
 11
570.647
 21
67.4817
  0
LINE
  8
0
 10
570.647
 20
67.4817
 11
570.567
 21
67.4626
  0
LINE
  8
0
 10
570.567
 20
67.4626
 11
570.487
 21
67.446
  0
LINE
  8
0
 10
570.487
 20
67.446
 11
570.407
 21
67.432
  0
LINE
  8
0
 10
570.407
 20
67.432
 11
570.326
 21
67.4205
  0
LINE
  8
0
 10
570.326
 20
67.4205
 11
570.245
 21
67.4115
  0
LINE
  8
0
 10
570.245
 20
67.4115
 11
570.163
 21
67.4051
  0
LINE
  8
0
 10
570.163
 20
67.4051
 11
570.082
 21
67.4013
  0
LINE
  8
0
 10
570.082
 20
67.4013
 11
570
 21
67.4
  0
LINE
  8
0
 10
570
 20
67.4
 11
569.918
 21
67.4013
  0
LINE
  8
0
 10
489.871
 20
35.902
 11
489.743
 21
35.9081
  0
LINE
  8
0
 10
489.743
 20
35.9081
 11
489.614
 21
35.9182
  0
LINE
  8
0
 10
489.614
 20
35.9182
 11
489.486
 21
35.9323
  0
LINE
  8
0
 10
489.486
 20
35.9323
 11
489.359
 21
35.9505
  0
LINE
  8
0
 10
489.359
 20
35.9505
 11
489.232
 21
35.9726
  0
LINE
  8
0
 10
489.232
 20
35.9726
 11
489.106
 21
35.9987
  0
LINE
  8
0
 10
489.106
 20
35.9987
 11
488.98
 21
36.0288
  0
LINE
  8
0
 10
488.98
 20
36.0288
 11
488.856
 21
36.0628
  0
LINE
  8
0
 10
488.856
 20
36.0628
 11
488.733
 21
36.1007
  0
LINE
  8
0
 10
488.733
 20
36.1007
 11
488.611
 21
36.1424
  0
LINE
  8
0
 10
488.611
 20
36.1424
 11
488.491
 21
36.1879
  0
LINE
  8
0
 10
488.491
 20
36.1879
 11
488.372
 21
36.2372
  0
LINE
  8
0
 10
488.372
 20
36.2372
 11
488.254
 21
36.2902
  0
LINE
  8
0
 10
488.254
 20
36.2902
 11
488.139
 21
36.3469
  0
LINE
  8
0
 10
488.139
 20
36.3469
 11
488.025
 21
36.4071
  0
LINE
  8
0
 10
488.025
 20
36.4071
 11
487.913
 21
36.4709
  0
LINE
  8
0
 10
487.913
 20
36.4709
 11
487.803
 21
36.5383
  0
LINE
  8
0
 10
487.803
 20
36.5383
 11
487.695
 21
36.609
  0
LINE
  8
0
 10
487.695
 20
36.609
 11
487.59
 21
36.683
  0
LINE
  8
0
 10
487.59
 20
36.683
 11
487.487
 21
36.7604
  0
LINE
  8
0
 10
487.487
 20
36.7604
 11
487.387
 21
36.8409
  0
LINE
  8
0
 10
487.387
 20
36.8409
 11
487.289
 21
36.9245
  0
LINE
  8
0
 10
487.289
 20
36.9245
 11
487.193
 21
37.0112
  0
LINE
  8
0
 10
487.193
 20
37.0112
 11
487.101
 21
37.1009
  0
LINE
  8
0
 10
487.101
 20
37.1009
 11
487.011
 21
37.1933
  0
LINE
  8
0
 10
487.011
 20
37.1933
 11
486.925
 21
37.2886
  0
LINE
  8
0
 10
486.925
 20
37.2886
 11
486.841
 21
37.3866
  0
LINE
  8
0
 10
486.841
 20
37.3866
 11
486.76
 21
37.4871
  0
LINE
  8
0
 10
486.76
 20
37.4871
 11
486.683
 21
37.5901
  0
LINE
  8
0
 10
486.683
 20
37.5901
 11
486.609
 21
37.6954
  0
LINE
  8
0
 10
486.609
 20
37.6954
 11
486.538
 21
37.8031
  0
LINE
  8
0
 10
486.538
 20
37.8031
 11
486.471
 21
37.9129
  0
LINE
  8
0
 10
486.471
 20
37.9129
 11
486.407
 21
38.0248
  0
LINE
  8
0
 10
486.407
 20
38.0248
 11
486.347
 21
38.1386
  0
LINE
  8
0
 10
486.347
 20
38.1386
 11
486.29
 21
38.2543
  0
LINE
  8
0
 10
486.29
 20
38.2543
 11
486.237
 21
38.3717
  0
LINE
  8
0
 10
486.237
 20
38.3717
 11
486.188
 21
38.4907
  0
LINE
  8
0
 10
486.188
 20
38.4907
 11
486.142
 21
38.6112
  0
LINE
  8
0
 10
486.142
 20
38.6112
 11
486.101
 21
38.733
  0
LINE
  8
0
 10
486.101
 20
38.733
 11
486.063
 21
38.8561
  0
LINE
  8
0
 10
486.063
 20
38.8561
 11
486.029
 21
38.9804
  0
LINE
  8
0
 10
486.029
 20
38.9804
 11
485.999
 21
39.1056
  0
LINE
  8
0
 10
485.999
 20
39.1056
 11
485.973
 21
39.2317
  0
LINE
  8
0
 10
485.973
 20
39.2317
 11
485.95
 21
39.3586
  0
LINE
  8
0
 10
485.95
 20
39.3586
 11
485.932
 21
39.4861
  0
LINE
  8
0
 10
485.932
 20
39.4861
 11
485.918
 21
39.6142
  0
LINE
  8
0
 10
485.918
 20
39.6142
 11
485.908
 21
39.7426
  0
LINE
  8
0
 10
485.908
 20
39.7426
 11
485.902
 21
39.8712
  0
LINE
  8
0
 10
485.902
 20
39.8712
 11
485.9
 21
40
  0
LINE
  8
0
 10
485.9
 20
40
 11
485.902
 21
40.1288
  0
LINE
  8
0
 10
485.902
 20
40.1288
 11
485.908
 21
40.2574
  0
LINE
  8
0
 10
485.908
 20
40.2574
 11
485.918
 21
40.3858
  0
LINE
  8
0
 10
485.918
 20
40.3858
 11
485.932
 21
40.5139
  0
LINE
  8
0
 10
485.932
 20
40.5139
 11
485.95
 21
40.6414
  0
LINE
  8
0
 10
485.95
 20
40.6414
 11
485.973
 21
40.7682
  0
LINE
  8
0
 10
485.973
 20
40.7682
 11
485.999
 21
40.8944
  0
LINE
  8
0
 10
485.999
 20
40.8944
 11
486.029
 21
41.0196
  0
LINE
  8
0
 10
486.029
 20
41.0196
 11
486.063
 21
41.1439
  0
LINE
  8
0
 10
486.063
 20
41.1439
 11
486.101
 21
41.267
  0
LINE
  8
0
 10
486.101
 20
41.267
 11
486.142
 21
41.3888
  0
LINE
  8
0
 10
486.142
 20
41.3888
 11
486.188
 21
41.5093
  0
LINE
  8
0
 10
486.188
 20
41.5093
 11
486.237
 21
41.6283
  0
LINE
  8
0
 10
486.237
 20
41.6283
 11
486.29
 21
41.7457
  0
LINE
  8
0
 10
486.29
 20
41.7457
 11
486.347
 21
41.8614
  0
LINE
  8
0
 10
486.347
 20
41.8614
 11
486.407
 21
41.9752
  0
LINE
  8
0
 10
486.407
 20
41.9752
 11
486.471
 21
42.0871
  0
LINE
  8
0
 10
486.471
 20
42.0871
 11
486.538
 21
42.1969
  0
LINE
  8
0
 10
486.538
 20
42.1969
 11
486.609
 21
42.3045
  0
LINE
  8
0
 10
486.609
 20
42.3045
 11
486.683
 21
42.4099
  0
LINE
  8
0
 10
486.683
 20
42.4099
 11
486.76
 21
42.5129
  0
LINE
  8
0
 10
486.76
 20
42.5129
 11
486.841
 21
42.6134
  0
LINE
  8
0
 10
486.841
 20
42.6134
 11
486.925
 21
42.7114
  0
LINE
  8
0
 10
486.925
 20
42.7114
 11
487.011
 21
42.8066
  0
LINE
  8
0
 10
487.011
 20
42.8066
 11
487.101
 21
42.8991
  0
LINE
  8
0
 10
487.101
 20
42.8991
 11
487.193
 21
42.9888
  0
LINE
  8
0
 10
487.193
 20
42.9888
 11
487.289
 21
43.0755
  0
LINE
  8
0
 10
487.289
 20
43.0755
 11
487.387
 21
43.1591
  0
LINE
  8
0
 10
487.387
 20
43.1591
 11
487.487
 21
43.2396
  0
LINE
  8
0
 10
487.487
 20
43.2396
 11
487.59
 21
43.317
  0
LINE
  8
0
 10
487.59
 20
43.317
 11
487.695
 21
43.391
  0
LINE
  8
0
 10
487.695
 20
43.391
 11
487.803
 21
43.4617
  0
LINE
  8
0
 10
487.803
 20
43.4617
 11
487.913
 21
43.529
  0
LINE
  8
0
 10
487.913
 20
43.529
 11
488.025
 21
43.5928
  0
LINE
  8
0
 10
488.025
 20
43.5928
 11
488.139
 21
43.6531
  0
LINE
  8
0
 10
488.139
 20
43.6531
 11
488.254
 21
43.7098
  0
LINE
  8
0
 10
488.254
 20
43.7098
 11
488.372
 21
43.7628
  0
LINE
  8
0
 10
488.372
 20
43.7628
 11
488.491
 21
43.8121
  0
LINE
  8
0
 10
488.491
 20
43.8121
 11
488.611
 21
43.8576
  0
LINE
  8
0
 10
488.611
 20
43.8576
 11
488.733
 21
43.8993
  0
LINE
  8
0
 10
488.733
 20
43.8993
 11
488.856
 21
43.9372
  0
LINE
  8
0
 10
488.856
 20
43.9372
 11
488.98
 21
43.9712
  0
LINE
  8
0
 10
488.98
 20
43.9712
 11
489.106
 21
44.0013
  0
LINE
  8
0
 10
489.106
 20
44.0013
 11
489.232
 21
44.0274
  0
LINE
  8
0
 10
489.232
 20
44.0274
 11
489.359
 21
44.0495
  0
LINE
  8
0
 10
489.359
 20
44.0495
 11
489.486
 21
44.0677
  0
LINE
  8
0
 10
489.486
 20
44.0677
 11
489.614
 21
44.0818
  0
LINE
  8
0
 10
489.614
 20
44.0818
 11
489.743
 21
44.0919
  0
LINE
  8
0
 10
489.743
 20
44.0919
 11
489.871
 21
44.098
  0
LINE
  8
0
 10
489.871
 20
44.098
 11
490
 21
44.1
  0
LINE
  8
0
 10
490
 20
44.1
 11
490.129
 21
44.098
  0
LINE
  8
0
 10
490.129
 20
44.098
 11
490.257
 21
44.0919
  0
LINE
  8
0
 10
490.257
 20
44.0919
 11
490.386
 21
44.0818
  0
LINE
  8
0
 10
490.386
 20
44.0818
 11
490.514
 21
44.0677
  0
LINE
  8
0
 10
490.514
 20
44.0677
 11
490.641
 21
44.0495
  0
LINE
  8
0
 10
490.641
 20
44.0495
 11
490.768
 21
44.0274
  0
LINE
  8
0
 10
490.768
 20
44.0274
 11
490.894
 21
44.0013
  0
LINE
  8
0
 10
490.894
 20
44.0013
 11
491.02
 21
43.9712
  0
LINE
  8
0
 10
491.02
 20
43.9712
 11
491.144
 21
43.9372
  0
LINE
  8
0
 10
491.144
 20
43.9372
 11
491.267
 21
43.8993
  0
LINE
  8
0
 10
491.267
 20
43.8993
 11
491.389
 21
43.8576
  0
LINE
  8
0
 10
491.389
 20
43.8576
 11
491.509
 21
43.8121
  0
LINE
  8
0
 10
491.509
 20
43.8121
 11
491.628
 21
43.7628
  0
LINE
  8
0
 10
491.628
 20
43.7628
 11
491.746
 21
43.7098
  0
LINE
  8
0
 10
491.746
 20
43.7098
 11
491.861
 21
43.6531
  0
LINE
  8
0
 10
491.861
 20
43.6531
 11
491.975
 21
43.5928
  0
LINE
  8
0
 10
491.975
 20
43.5928
 11
492.087
 21
43.529
  0
LINE
  8
0
 10
492.087
 20
43.529
 11
492.197
 21
43.4617
  0
LINE
  8
0
 10
492.197
 20
43.4617
 11
492.305
 21
43.391
  0
LINE
  8
0
 10
492.305
 20
43.391
 11
492.41
 21
43.317
  0
LINE
  8
0
 10
492.41
 20
43.317
 11
492.513
 21
43.2396
  0
LINE
  8
0
 10
492.513
 20
43.2396
 11
492.613
 21
43.1591
  0
LINE
  8
0
 10
492.613
 20
43.1591
 11
492.711
 21
43.0755
  0
LINE
  8
0
 10
492.711
 20
43.0755
 11
492.807
 21
42.9888
  0
LINE
  8
0
 10
492.807
 20
42.9888
 11
492.899
 21
42.8991
  0
LINE
  8
0
 10
492.899
 20
42.8991
 11
492.989
 21
42.8066
  0
LINE
  8
0
 10
492.989
 20
42.8066
 11
493.075
 21
42.7114
  0
LINE
  8
0
 10
493.075
 20
42.7114
 11
493.159
 21
42.6134
  0
LINE
  8
0
 10
493.159
 20
42.6134
 11
493.24
 21
42.5129
  0
LINE
  8
0
 10
493.24
 20
42.5129
 11
493.317
 21
42.4099
  0
LINE
  8
0
 10
493.317
 20
42.4099
 11
493.391
 21
42.3045
  0
LINE
  8
0
 10
493.391
 20
42.3045
 11
493.462
 21
42.1969
  0
LINE
  8
0
 10
493.462
 20
42.1969
 11
493.529
 21
42.0871
  0
LINE
  8
0
 10
493.529
 20
42.0871
 11
493.593
 21
41.9752
  0
LINE
  8
0
 10
493.593
 20
41.9752
 11
493.653
 21
41.8614
  0
LINE
  8
0
 10
493.653
 20
41.8614
 11
493.71
 21
41.7457
  0
LINE
  8
0
 10
493.71
 20
41.7457
 11
493.763
 21
41.6283
  0
LINE
  8
0
 10
493.763
 20
41.6283
 11
493.812
 21
41.5093
  0
LINE
  8
0
 10
493.812
 20
41.5093
 11
493.858
 21
41.3888
  0
LINE
  8
0
 10
493.858
 20
41.3888
 11
493.899
 21
41.267
  0
LINE
  8
0
 10
493.899
 20
41.267
 11
493.937
 21
41.1439
  0
LINE
  8
0
 10
493.937
 20
41.1439
 11
493.971
 21
41.0196
  0
LINE
  8
0
 10
493.971
 20
41.0196
 11
494.001
 21
40.8944
  0
LINE
  8
0
 10
494.001
 20
40.8944
 11
494.027
 21
40.7682
  0
LINE
  8
0
 10
494.027
 20
40.7682
 11
494.05
 21
40.6414
  0
LINE
  8
0
 10
494.05
 20
40.6414
 11
494.068
 21
40.5139
  0
LINE
  8
0
 10
494.068
 20
40.5139
 11
494.082
 21
40.3858
  0
LINE
  8
0
 10
494.082
 20
40.3858
 11
494.092
 21
40.2574
  0
LINE
  8
0
 10
494.092
 20
40.2574
 11
494.098
 21
40.1288
  0
LINE
  8
0
 10
494.098
 20
40.1288
 11
494.1
 21
40
  0
LINE
  8
0
 10
494.1
 20
40
 11
494.098
 21
39.8712
  0
LINE
  8
0
 10
494.098
 20
39.8712
 11
494.092
 21
39.7426
  0
LINE
  8
0
 10
494.092
 20
39.7426
 11
494.082
 21
39.6142
  0
LINE
  8
0
 10
494.082
 20
39.6142
 11
494.068
 21
39.4861
  0
LINE
  8
0
 10
494.068
 20
39.4861
 11
494.05
 21
39.3586
  0
LINE
  8
0
 10
494.05
 20
39.3586
 11
494.027
 21
39.2317
  0
LINE
  8
0
 10
494.027
 20
39.2317
 11
494.001
 21
39.1056
  0
LINE
  8
0
 10
494.001
 20
39.1056
 11
493.971
 21
38.9804
  0
LINE
  8
0
 10
493.971
 20
38.9804
 11
493.937
 21
38.8561
  0
LINE
  8
0
 10
493.937
 20
38.8561
 11
493.899
 21
38.733
  0
LINE
  8
0
 10
493.899
 20
38.733
 11
493.858
 21
38.6112
  0
LINE
  8
0
 10
493.858
 20
38.6112
 11
493.812
 21
38.4907
  0
LINE
  8
0
 10
493.812
 20
38.4907
 11
493.763
 21
38.3717
  0
LINE
  8
0
 10
493.763
 20
38.3717
 11
493.71
 21
38.2543
  0
LINE
  8
0
 10
493.71
 20
38.2543
 11
493.653
 21
38.1386
  0
LINE
  8
0
 10
493.653
 20
38.1386
 11
493.593
 21
38.0248
  0
LINE
  8
0
 10
493.593
 20
38.0248
 11
493.529
 21
37.9129
  0
LINE
  8
0
 10
493.529
 20
37.9129
 11
493.462
 21
37.8031
  0
LINE
  8
0
 10
493.462
 20
37.8031
 11
493.391
 21
37.6954
  0
LINE
  8
0
 10
493.391
 20
37.6954
 11
493.317
 21
37.5901
  0
LINE
  8
0
 10
493.317
 20
37.5901
 11
493.24
 21
37.4871
  0
LINE
  8
0
 10
493.24
 20
37.4871
 11
493.159
 21
37.3866
  0
LINE
  8
0
 10
493.159
 20
37.3866
 11
493.075
 21
37.2886
  0
LINE
  8
0
 10
493.075
 20
37.2886
 11
492.989
 21
37.1933
  0
LINE
  8
0
 10
492.989
 20
37.1933
 11
492.899
 21
37.1009
  0
LINE
  8
0
 10
492.899
 20
37.1009
 11
492.807
 21
37.0112
  0
LINE
  8
0
 10
492.807
 20
37.0112
 11
492.711
 21
36.9245
  0
LINE
  8
0
 10
492.711
 20
36.9245
 11
492.613
 21
36.8409
  0
LINE
  8
0
 10
492.613
 20
36.8409
 11
492.513
 21
36.7604
  0
LINE
  8
0
 10
492.513
 20
36.7604
 11
492.41
 21
36.683
  0
LINE
  8
0
 10
492.41
 20
36.683
 11
492.305
 21
36.609
  0
LINE
  8
0
 10
492.305
 20
36.609
 11
492.197
 21
36.5383
  0
LINE
  8
0
 10
492.197
 20
36.5383
 11
492.087
 21
36.4709
  0
LINE
  8
0
 10
492.087
 20
36.4709
 11
491.975
 21
36.4071
  0
LINE
  8
0
 10
491.975
 20
36.4071
 11
491.861
 21
36.3469
  0
LINE
  8
0
 10
491.861
 20
36.3469
 11
491.746
 21
36.2902
  0
LINE
  8
0
 10
491.746
 20
36.2902
 11
491.628
 21
36.2372
  0
LINE
  8
0
 10
491.628
 20
36.2372
 11
491.509
 21
36.1879
  0
LINE
  8
0
 10
491.509
 20
36.1879
 11
491.389
 21
36.1424
  0
LINE
  8
0
 10
491.389
 20
36.1424
 11
491.267
 21
36.1007
  0
LINE
  8
0
 10
491.267
 20
36.1007
 11
491.144
 21
36.0628
  0
LINE
  8
0
 10
491.144
 20
36.0628
 11
491.02
 21
36.0288
  0
LINE
  8
0
 10
491.02
 20
36.0288
 11
490.894
 21
35.9987
  0
LINE
  8
0
 10
490.894
 20
35.9987
 11
490.768
 21
35.9726
  0
LINE
  8
0
 10
490.768
 20
35.9726
 11
490.641
 21
35.9505
  0
LINE
  8
0
 10
490.641
 20
35.9505
 11
490.514
 21
35.9323
  0
LINE
  8
0
 10
490.514
 20
35.9323
 11
490.386
 21
35.9182
  0
LINE
  8
0
 10
490.386
 20
35.9182
 11
490.257
 21
35.9081
  0
LINE
  8
0
 10
490.257
 20
35.9081
 11
490.129
 21
35.902
  0
LINE
  8
0
 10
490.129
 20
35.902
 11
490
 21
35.9
  0
LINE
  8
0
 10
490
 20
35.9
 11
489.871
 21
35.902
  0
LINE
  8
0
 10
569.871
 20
25.902
 11
569.743
 21
25.9081
  0
LINE
  8
0
 10
569.743
 20
25.9081
 11
569.614
 21
25.9182
  0
LINE
  8
0
 10
569.614
 20
25.9182
 11
569.486
 21
25.9323
  0
LINE
  8
0
 10
569.486
 20
25.9323
 11
569.359
 21
25.9505
  0
LINE
  8
0
 10
569.359
 20
25.9505
 11
569.232
 21
25.9726
  0
LINE
  8
0
 10
569.232
 20
25.9726
 11
569.106
 21
25.9987
  0
LINE
  8
0
 10
569.106
 20
25.9987
 11
568.98
 21
26.0288
  0
LINE
  8
0
 10
568.98
 20
26.0288
 11
568.856
 21
26.0628
  0
LINE
  8
0
 10
568.856
 20
26.0628
 11
568.733
 21
26.1007
  0
LINE
  8
0
 10
568.733
 20
26.1007
 11
568.611
 21
26.1424
  0
LINE
  8
0
 10
568.611
 20
26.1424
 11
568.491
 21
26.1879
  0
LINE
  8
0
 10
568.491
 20
26.1879
 11
568.372
 21
26.2372
  0
LINE
  8
0
 10
568.372
 20
26.2372
 11
568.254
 21
26.2902
  0
LINE
  8
0
 10
568.254
 20
26.2902
 11
568.139
 21
26.3469
  0
LINE
  8
0
 10
568.139
 20
26.3469
 11
568.025
 21
26.4071
  0
LINE
  8
0
 10
568.025
 20
26.4071
 11
567.913
 21
26.4709
  0
LINE
  8
0
 10
567.913
 20
26.4709
 11
567.803
 21
26.5383
  0
LINE
  8
0
 10
567.803
 20
26.5383
 11
567.695
 21
26.609
  0
LINE
  8
0
 10
567.695
 20
26.609
 11
567.59
 21
26.683
  0
LINE
  8
0
 10
567.59
 20
26.683
 11
567.487
 21
26.7604
  0
LINE
  8
0
 10
567.487
 20
26.7604
 11
567.387
 21
26.8409
  0
LINE
  8
0
 10
567.387
 20
26.8409
 11
567.289
 21
26.9245
  0
LINE
  8
0
 10
567.289
 20
26.9245
 11
567.193
 21
27.0112
  0
LINE
  8
0
 10
567.193
 20
27.0112
 11
567.101
 21
27.1009
  0
LINE
  8
0
 10
567.101
 20
27.1009
 11
567.011
 21
27.1933
  0
LINE
  8
0
 10
567.011
 20
27.1933
 11
566.925
 21
27.2886
  0
LINE
  8
0
 10
566.925
 20
27.2886
 11
566.841
 21
27.3866
  0
LINE
  8
0
 10
566.841
 20
27.3866
 11
566.76
 21
27.4871
  0
LINE
  8
0
 10
566.76
 20
27.4871
 11
566.683
 21
27.5901
  0
LINE
  8
0
 10
566.683
 20
27.5901
 11
566.609
 21
27.6954
  0
LINE
  8
0
 10
566.609
 20
27.6954
 11
566.538
 21
27.8031
  0
LINE
  8
0
 10
566.538
 20
27.8031
 11
566.471
 21
27.9129
  0
LINE
  8
0
 10
566.471
 20
27.9129
 11
566.407
 21
28.0248
  0
LINE
  8
0
 10
566.407
 20
28.0248
 11
566.347
 21
28.1386
  0
LINE
  8
0
 10
566.347
 20
28.1386
 11
566.29
 21
28.2543
  0
LINE
  8
0
 10
566.29
 20
28.2543
 11
566.237
 21
28.3717
  0
LINE
  8
0
 10
566.237
 20
28.3717
 11
566.188
 21
28.4907
  0
LINE
  8
0
 10
566.188
 20
28.4907
 11
566.142
 21
28.6112
  0
LINE
  8
0
 10
566.142
 20
28.6112
 11
566.101
 21
28.733
  0
LINE
  8
0
 10
566.101
 20
28.733
 11
566.063
 21
28.8561
  0
LINE
  8
0
 10
566.063
 20
28.8561
 11
566.029
 21
28.9804
  0
LINE
  8
0
 10
566.029
 20
28.9804
 11
565.999
 21
29.1056
  0
LINE
  8
0
 10
565.999
 20
29.1056
 11
565.973
 21
29.2317
  0
LINE
  8
0
 10
565.973
 20
29.2317
 11
565.95
 21
29.3586
  0
LINE
  8
0
 10
565.95
 20
29.3586
 11
565.932
 21
29.4861
  0
LINE
  8
0
 10
565.932
 20
29.4861
 11
565.918
 21
29.6142
  0
LINE
  8
0
 10
565.918
 20
29.6142
 11
565.908
 21
29.7426
  0
LINE
  8
0
 10
565.908
 20
29.7426
 11
565.902
 21
29.8712
  0
LINE
  8
0
 10
565.902
 20
29.8712
 11
565.9
 21
30
  0
LINE
  8
0
 10
565.9
 20
30
 11
565.902
 21
30.1288
  0
LINE
  8
0
 10
565.902
 20
30.1288
 11
565.908
 21
30.2574
  0
LINE
  8
0
 10
565.908
 20
30.2574
 11
565.918
 21
30.3858
  0
LINE
  8
0
 10
565.918
 20
30.3858
 11
565.932
 21
30.5139
  0
LINE
  8
0
 10
565.932
 20
30.5139
 11
565.95
 21
30.6414
  0
LINE
  8
0
 10
565.95
 20
30.6414
 11
565.973
 21
30.7682
  0
LINE
  8
0
 10
565.973
 20
30.7682
 11
565.999
 21
30.8944
  0
LINE
  8
0
 10
565.999
 20
30.8944
 11
566.029
 21
31.0196
  0
LINE
  8
0
 10
566.029
 20
31.0196
 11
566.063
 21
31.1439
  0
LINE
  8
0
 10
566.063
 20
31.1439
 11
566.101
 21
31.267
  0
LINE
  8
0
 10
566.101
 20
31.267
 11
566.142
 21
31.3888
  0
LINE
  8
0
 10
566.142
 20
31.3888
 11
566.188
 21
31.5093
  0
LINE
  8
0
 10
566.188
 20
31.5093
 11
566.237
 21
31.6283
  0
LINE
  8
0
 10
566.237
 20
31.6283
 11
566.29
 21
31.7457
  0
LINE
  8
0
 10
566.29
 20
31.7457
 11
566.347
 21
31.8614
  0
LINE
  8
0
 10
566.347
 20
31.8614
 11
566.407
 21
31.9752
  0
LINE
  8
0
 10
566.407
 20
31.9752
 11
566.471
 21
32.0871
  0
LINE
  8
0
 10
566.471
 20
32.0871
 11
566.538
 21
32.1969
  0
LINE
  8
0
 10
566.538
 20
32.1969
 11
566.609
 21
32.3045
  0
LINE
  8
0
 10
566.609
 20
32.3045
 11
566.683
 21
32.4099
  0
LINE
  8
0
 10
566.683
 20
32.4099
 11
566.76
 21
32.5129
  0
LINE
  8
0
 10
566.76
 20
32.5129
 11
566.841
 21
32.6134
  0
LINE
  8
0
 10
566.841
 20
32.6134
 11
566.925
 21
32.7114
  0
LINE
  8
0
 10
566.925
 20
32.7114
 11
567.011
 21
32.8066
  0
LINE
  8
0
 10
567.011
 20
32.8066
 11
567.101
 21
32.8991
  0
LINE
  8
0
 10
567.101
 20
32.8991
 11
567.193
 21
32.9888
  0
LINE
  8
0
 10
567.193
 20
32.9888
 11
567.289
 21
33.0755
  0
LINE
  8
0
 10
567.289
 20
33.0755
 11
567.387
 21
33.1591
  0
LINE
  8
0
 10
567.387
 20
33.1591
 11
567.487
 21
33.2396
  0
LINE
  8
0
 10
567.487
 20
33.2396
 11
567.59
 21
33.317
  0
LINE
  8
0
 10
567.59
 20
33.317
 11
567.695
 21
33.391
  0
LINE
  8
0
 10
567.695
 20
33.391
 11
567.803
 21
33.4617
  0
LINE
  8
0
 10
567.803
 20
33.4617
 11
567.913
 21
33.529
  0
LINE
  8
0
 10
567.913
 20
33.529
 11
568.025
 21
33.5928
  0
LINE
  8
0
 10
568.025
 20
33.5928
 11
568.139
 21
33.6531
  0
LINE
  8
0
 10
568.139
 20
33.6531
 11
568.254
 21
33.7098
  0
LINE
  8
0
 10
568.254
 20
33.7098
 11
568.372
 21
33.7628
  0
LINE
  8
0
 10
568.372
 20
33.7628
 11
568.491
 21
33.8121
  0
LINE
  8
0
 10
568.491
 20
33.8121
 11
568.611
 21
33.8576
  0
LINE
  8
0
 10
568.611
 20
33.8576
 11
568.733
 21
33.8993
  0
LINE
  8
0
 10
568.733
 20
33.8993
 11
568.856
 21
33.9372
  0
LINE
  8
0
 10
568.856
 20
33.9372
 11
568.98
 21
33.9712
  0
LINE
  8
0
 10
568.98
 20
33.9712
 11
569.106
 21
34.0013
  0
LINE
  8
0
 10
569.106
 20
34.0013
 11
569.232
 21
34.0274
  0
LINE
  8
0
 10
569.232
 20
34.0274
 11
569.359
 21
34.0495
  0
LINE
  8
0
 10
569.359
 20
34.0495
 11
569.486
 21
34.0677
  0
LINE
  8
0
 10
569.486
 20
34.0677
 11
569.614
 21
34.0818
  0
LINE
  8
0
 10
569.614
 20
34.0818
 11
569.743
 21
34.0919
  0
LINE
  8
0
 10
569.743
 20
34.0919
 11
569.871
 21
34.098
  0
LINE
  8
0
 10
569.871
 20
34.098
 11
570
 21
34.1
  0
LINE
  8
0
 10
570
 20
34.1
 11
570.129
 21
34.098
  0
LINE
  8
0
 10
570.129
 20
34.098
 11
570.257
 21
34.0919
  0
LINE
  8
0
 10
570.257
 20
34.0919
 11
570.386
 21
34.0818
  0
LINE
  8
0
 10
570.386
 20
34.0818
 11
570.514
 21
34.0677
  0
LINE
  8
0
 10
570.514
 20
34.0677
 11
570.641
 21
34.0495
  0
LINE
  8
0
 10
570.641
 20
34.0495
 11
570.768
 21
34.0274
  0
LINE
  8
0
 10
570.768
 20
34.0274
 11
570.894
 21
34.0013
  0
LINE
  8
0
 10
570.894
 20
34.0013
 11
571.02
 21
33.9712
  0
LINE
  8
0
 10
571.02
 20
33.9712
 11
571.144
 21
33.9372
  0
LINE
  8
0
 10
571.144
 20
33.9372
 11
571.267
 21
33.8993
  0
LINE
  8
0
 10
571.267
 20
33.8993
 11
571.389
 21
33.8576
  0
LINE
  8
0
 10
571.389
 20
33.8576
 11
571.509
 21
33.8121
  0
LINE
  8
0
 10
571.509
 20
33.8121
 11
571.628
 21
33.7628
  0
LINE
  8
0
 10
571.628
 20
33.7628
 11
571.746
 21
33.7098
  0
LINE
  8
0
 10
571.746
 20
33.7098
 11
571.861
 21
33.6531
  0
LINE
  8
0
 10
571.861
 20
33.6531
 11
571.975
 21
33.5928
  0
LINE
  8
0
 10
571.975
 20
33.5928
 11
572.087
 21
33.529
  0
LINE
  8
0
 10
572.087
 20
33.529
 11
572.197
 21
33.4617
  0
LINE
  8
0
 10
572.197
 20
33.4617
 11
572.305
 21
33.391
  0
LINE
  8
0
 10
572.305
 20
33.391
 11
572.41
 21
33.317
  0
LINE
  8
0
 10
572.41
 20
33.317
 11
572.513
 21
33.2396
  0
LINE
  8
0
 10
572.513
 20
33.2396
 11
572.613
 21
33.1591
  0
LINE
  8
0
 10
572.613
 20
33.1591
 11
572.711
 21
33.0755
  0
LINE
  8
0
 10
572.711
 20
33.0755
 11
572.807
 21
32.9888
  0
LINE
  8
0
 10
572.807
 20
32.9888
 11
572.899
 21
32.8991
  0
LINE
  8
0
 10
572.899
 20
32.8991
 11
572.989
 21
32.8066
  0
LINE
  8
0
 10
572.989
 20
32.8066
 11
573.075
 21
32.7114
  0
LINE
  8
0
 10
573.075
 20
32.7114
 11
573.159
 21
32.6134
  0
LINE
  8
0
 10
573.159
 20
32.6134
 11
573.24
 21
32.5129
  0
LINE
  8
0
 10
573.24
 20
32.5129
 11
573.317
 21
32.4099
  0
LINE
  8
0
 10
573.317
 20
32.4099
 11
573.391
 21
32.3045
  0
LINE
  8
0
 10
573.391
 20
32.3045
 11
573.462
 21
32.1969
  0
LINE
  8
0
 10
573.462
 20
32.1969
 11
573.529
 21
32.0871
  0
LINE
  8
0
 10
573.529
 20
32.0871
 11
573.593
 21
31.9752
  0
LINE
  8
0
 10
573.593
 20
31.9752
 11
573.653
 21
31.8614
  0
LINE
  8
0
 10
573.653
 20
31.8614
 11
573.71
 21
31.7457
  0
LINE
  8
0
 10
573.71
 20
31.7457
 11
573.763
 21
31.6283
  0
LINE
  8
0
 10
573.763
 20
31.6283
 11
573.812
 21
31.5093
  0
LINE
  8
0
 10
573.812
 20
31.5093
 11
573.858
 21
31.3888
  0
LINE
  8
0
 10
573.858
 20
31.3888
 11
573.899
 21
31.267
  0
LINE
  8
0
 10
573.899
 20
31.267
 11
573.937
 21
31.1439
  0
LINE
  8
0
 10
573.937
 20
31.1439
 11
573.971
 21
31.0196
  0
LINE
  8
0
 10
573.971
 20
31.0196
 11
574.001
 21
30.8944
  0
LINE
  8
0
 10
574.001
 20
30.8944
 11
574.027
 21
30.7682
  0
LINE
  8
0
 10
574.027
 20
30.7682
 11
574.05
 21
30.6414
  0
LINE
  8
0
 10
574.05
 20
30.6414
 11
574.068
 21
30.5139
  0
LINE
  8
0
 10
574.068
 20
30.5139
 11
574.082
 21
30.3858
  0
LINE
  8
0
 10
574.082
 20
30.3858
 11
574.092
 21
30.2574
  0
LINE
  8
0
 10
574.092
 20
30.2574
 11
574.098
 21
30.1288
  0
LINE
  8
0
 10
574.098
 20
30.1288
 11
574.1
 21
30
  0
LINE
  8
0
 10
574.1
 20
30
 11
574.098
 21
29.8712
  0
LINE
  8
0
 10
574.098
 20
29.8712
 11
574.092
 21
29.7426
  0
LINE
  8
0
 10
574.092
 20
29.7426
 11
574.082
 21
29.6142
  0
LINE
  8
0
 10
574.082
 20
29.6142
 11
574.068
 21
29.4861
  0
LINE
  8
0
 10
574.068
 20
29.4861
 11
574.05
 21
29.3586
  0
LINE
  8
0
 10
574.05
 20
29.3586
 11
574.027
 21
29.2317
  0
LINE
  8
0
 10
574.027
 20
29.2317
 11
574.001
 21
29.1056
  0
LINE
  8
0
 10
574.001
 20
29.1056
 11
573.971
 21
28.9804
  0
LINE
  8
0
 10
573.971
 20
28.9804
 11
573.937
 21
28.8561
  0
LINE
  8
0
 10
573.937
 20
28.8561
 11
573.899
 21
28.733
  0
LINE
  8
0
 10
573.899
 20
28.733
 11
573.858
 21
28.6112
  0
LINE
  8
0
 10
573.858
 20
28.6112
 11
573.812
 21
28.4907
  0
LINE
  8
0
 10
573.812
 20
28.4907
 11
573.763
 21
28.3717
  0
LINE
  8
0
 10
573.763
 20
28.3717
 11
573.71
 21
28.2543
  0
LINE
  8
0
 10
573.71
 20
28.2543
 11
573.653
 21
28.1386
  0
LINE
  8
0
 10
573.653
 20
28.1386
 11
573.593
 21
28.0248
  0
LINE
  8
0
 10
573.593
 20
28.0248
 11
573.529
 21
27.9129
  0
LINE
  8
0
 10
573.529
 20
27.9129
 11
573.462
 21
27.8031
  0
LINE
  8
0
 10
573.462
 20
27.8031
 11
573.391
 21
27.6954
  0
LINE
  8
0
 10
573.391
 20
27.6954
 11
573.317
 21
27.5901
  0
LINE
  8
0
 10
573.317
 20
27.5901
 11
573.24
 21
27.4871
  0
LINE
  8
0
 10
573.24
 20
27.4871
 11
573.159
 21
27.3866
  0
LINE
  8
0
 10
573.159
 20
27.3866
 11
573.075
 21
27.2886
  0
LINE
  8
0
 10
573.075
 20
27.2886
 11
572.989
 21
27.1933
  0
LINE
  8
0
 10
572.989
 20
27.1933
 11
572.899
 21
27.1009
  0
LINE
  8
0
 10
572.899
 20
27.1009
 11
572.807
 21
27.0112
  0
LINE
  8
0
 10
572.807
 20
27.0112
 11
572.711
 21
26.9245
  0
LINE
  8
0
 10
572.711
 20
26.9245
 11
572.613
 21
26.8409
  0
LINE
  8
0
 10
572.613
 20
26.8409
 11
572.513
 21
26.7604
  0
LINE
  8
0
 10
572.513
 20
26.7604
 11
572.41
 21
26.683
  0
LINE
  8
0
 10
572.41
 20
26.683
 11
572.305
 21
26.609
  0
LINE
  8
0
 10
572.305
 20
26.609
 11
572.197
 21
26.5383
  0
LINE
  8
0
 10
572.197
 20
26.5383
 11
572.087
 21
26.4709
  0
LINE
  8
0
 10
572.087
 20
26.4709
 11
571.975
 21
26.4071
  0
LINE
  8
0
 10
571.975
 20
26.4071
 11
571.861
 21
26.3469
  0
LINE
  8
0
 10
571.861
 20
26.3469
 11
571.746
 21
26.2902
  0
LINE
  8
0
 10
571.746
 20
26.2902
 11
571.628
 21
26.2372
  0
LINE
  8
0
 10
571.628
 20
26.2372
 11
571.509
 21
26.1879
  0
LINE
  8
0
 10
571.509
 20
26.1879
 11
571.389
 21
26.1424
  0
LINE
  8
0
 10
571.389
 20
26.1424
 11
571.267
 21
26.1007
  0
LINE
  8
0
 10
571.267
 20
26.1007
 11
571.144
 21
26.0628
  0
LINE
  8
0
 10
571.144
 20
26.0628
 11
571.02
 21
26.0288
  0
LINE
  8
0
 10
571.02
 20
26.0288
 11
570.894
 21
25.9987
  0
LINE
  8
0
 10
570.894
 20
25.9987
 11
570.768
 21
25.9726
  0
LINE
  8
0
 10
570.768
 20
25.9726
 11
570.641
 21
25.9505
  0
LINE
  8
0
 10
570.641
 20
25.9505
 11
570.514
 21
25.9323
  0
LINE
  8
0
 10
570.514
 20
25.9323
 11
570.386
 21
25.9182
  0
LINE
  8
0
 10
570.386
 20
25.9182
 11
570.257
 21
25.9081
  0
LINE
  8
0
 10
570.257
 20
25.9081
 11
570.129
 21
25.902
  0
LINE
  8
0
 10
570.129
 20
25.902
 11
570
 21
25.9
  0
LINE
  8
0
 10
570
 20
25.9
 11
569.871
 21
25.902
  0
LINE
  8
0
 10
29.8712
 20
25.902
 11
29.7426
 21
25.9081
  0
LINE
  8
0
 10
29.7426
 20
25.9081
 11
29.6142
 21
25.9182
  0
LINE
  8
0
 10
29.6142
 20
25.9182
 11
29.4861
 21
25.9323
  0
LINE
  8
0
 10
29.4861
 20
25.9323
 11
29.3586
 21
25.9505
  0
LINE
  8
0
 10
29.3586
 20
25.9505
 11
29.2317
 21
25.9726
  0
LINE
  8
0
 10
29.2317
 20
25.9726
 11
29.1056
 21
25.9987
  0
LINE
  8
0
 10
29.1056
 20
25.9987
 11
28.9804
 21
26.0288
  0
LINE
  8
0
 10
28.9804
 20
26.0288
 11
28.8561
 21
26.0628
  0
LINE
  8
0
 10
28.8561
 20
26.0628
 11
28.733
 21
26.1007
  0
LINE
  8
0
 10
28.733
 20
26.1007
 11
28.6112
 21
26.1424
  0
LINE
  8
0
 10
28.6112
 20
26.1424
 11
28.4907
 21
26.1879
  0
LINE
  8
0
 10
28.4907
 20
26.1879
 11
28.3717
 21
26.2372
  0
LINE
  8
0
 10
28.3717
 20
26.2372
 11
28.2543
 21
26.2902
  0
LINE
  8
0
 10
28.2543
 20
26.2902
 11
28.1386
 21
26.3469
  0
LINE
  8
0
 10
28.1386
 20
26.3469
 11
28.0248
 21
26.4071
  0
LINE
  8
0
 10
28.0248
 20
26.4071
 11
27.9129
 21
26.4709
  0
LINE
  8
0
 10
27.9129
 20
26.4709
 11
27.8031
 21
26.5383
  0
LINE
  8
0
 10
27.8031
 20
26.5383
 11
27.6954
 21
26.609
  0
LINE
  8
0
 10
27.6954
 20
26.609
 11
27.5901
 21
26.683
  0
LINE
  8
0
 10
27.5901
 20
26.683
 11
27.4871
 21
26.7604
  0
LINE
  8
0
 10
27.4871
 20
26.7604
 11
27.3866
 21
26.8409
  0
LINE
  8
0
 10
27.3866
 20
26.8409
 11
27.2886
 21
26.9245
  0
LINE
  8
0
 10
27.2886
 20
26.9245
 11
27.1933
 21
27.0112
  0
LINE
  8
0
 10
27.1933
 20
27.0112
 11
27.1009
 21
27.1009
  0
LINE
  8
0
 10
27.1009
 20
27.1009
 11
27.0112
 21
27.1933
  0
LINE
  8
0
 10
27.0112
 20
27.1933
 11
26.9245
 21
27.2886
  0
LINE
  8
0
 10
26.9245
 20
27.2886
 11
26.8409
 21
27.3866
  0
LINE
  8
0
 10
26.8409
 20
27.3866
 11
26.7604
 21
27.4871
  0
LINE
  8
0
 10
26.7604
 20
27.4871
 11
26.683
 21
27.5901
  0
LINE
  8
0
 10
26.683
 20
27.5901
 11
26.609
 21
27.6954
  0
LINE
  8
0
 10
26.609
 20
27.6954
 11
26.5383
 21
27.8031
  0
LINE
  8
0
 10
26.5383
 20
27.8031
 11
26.4709
 21
27.9129
  0
LINE
  8
0
 10
26.4709
 20
27.9129
 11
26.4071
 21
28.0248
  0
LINE
  8
0
 10
26.4071
 20
28.0248
 11
26.3469
 21
28.1386
  0
LINE
  8
0
 10
26.3469
 20
28.1386
 11
26.2902
 21
28.2543
  0
LINE
  8
0
 10
26.2902
 20
28.2543
 11
26.2372
 21
28.3717
  0
LINE
  8
0
 10
26.2372
 20
28.3717
 11
26.1879
 21
28.4907
  0
LINE
  8
0
 10
26.1879
 20
28.4907
 11
26.1424
 21
28.6112
  0
LINE
  8
0
 10
26.1424
 20
28.6112
 11
26.1007
 21
28.733
  0
LINE
  8
0
 10
26.1007
 20
28.733
 11
26.0628
 21
28.8561
  0
LINE
  8
0
 10
26.0628
 20
28.8561
 11
26.0288
 21
28.9804
  0
LINE
  8
0
 10
26.0288
 20
28.9804
 11
25.9987
 21
29.1056
  0
LINE
  8
0
 10
25.9987
 20
29.1056
 11
25.9726
 21
29.2317
  0
LINE
  8
0
 10
25.9726
 20
29.2317
 11
25.9505
 21
29.3586
  0
LINE
  8
0
 10
25.9505
 20
29.3586
 11
25.9323
 21
29.4861
  0
LINE
  8
0
 10
25.9323
 20
29.4861
 11
25.9182
 21
29.6142
  0
LINE
  8
0
 10
25.9182
 20
29.6142
 11
25.9081
 21
29.7426
  0
LINE
  8
0
 10
25.9081
 20
29.7426
 11
25.902
 21
29.8712
  0
LINE
  8
0
 10
25.902
 20
29.8712
 11
25.9
 21
30
  0
LINE
  8
0
 10
25.9
 20
30
 11
25.902
 21
30.1288
  0
LINE
  8
0
 10
25.902
 20
30.1288
 11
25.9081
 21
30.2574
  0
LINE
  8
0
 10
25.9081
 20
30.2574
 11
25.9182
 21
30.3858
  0
LINE
  8
0
 10
25.9182
 20
30.3858
 11
25.9323
 21
30.5139
  0
LINE
  8
0
 10
25.9323
 20
30.5139
 11
25.9505
 21
30.6414
  0
LINE
  8
0
 10
25.9505
 20
30.6414
 11
25.9726
 21
30.7682
  0
LINE
  8
0
 10
25.9726
 20
30.7682
 11
25.9987
 21
30.8944
  0
LINE
  8
0
 10
25.9987
 20
30.8944
 11
26.0288
 21
31.0196
  0
LINE
  8
0
 10
26.0288
 20
31.0196
 11
26.0628
 21
31.1439
  0
LINE
  8
0
 10
26.0628
 20
31.1439
 11
26.1007
 21
31.267
  0
LINE
  8
0
 10
26.1007
 20
31.267
 11
26.1424
 21
31.3888
  0
LINE
  8
0
 10
26.1424
 20
31.3888
 11
26.1879
 21
31.5093
  0
LINE
  8
0
 10
26.1879
 20
31.5093
 11
26.2372
 21
31.6283
  0
LINE
  8
0
 10
26.2372
 20
31.6283
 11
26.2902
 21
31.7457
  0
LINE
  8
0
 10
26.2902
 20
31.7457
 11
26.3469
 21
31.8614
  0
LINE
  8
0
 10
26.3469
 20
31.8614
 11
26.4071
 21
31.9752
  0
LINE
  8
0
 10
26.4071
 20
31.9752
 11
26.4709
 21
32.0871
  0
LINE
  8
0
 10
26.4709
 20
32.0871
 11
26.5383
 21
32.1969
  0
LINE
  8
0
 10
26.5383
 20
32.1969
 11
26.609
 21
32.3045
  0
LINE
  8
0
 10
26.609
 20
32.3045
 11
26.683
 21
32.4099
  0
LINE
  8
0
 10
26.683
 20
32.4099
 11
26.7604
 21
32.5129
  0
LINE
  8
0
 10
26.7604
 20
32.5129
 11
26.8409
 21
32.6134
  0
LINE
  8
0
 10
26.8409
 20
32.6134
 11
26.9245
 21
32.7114
  0
LINE
  8
0
 10
26.9245
 20
32.7114
 11
27.0112
 21
32.8066
  0
LINE
  8
0
 10
27.0112
 20
32.8066
 11
27.1009
 21
32.8991
  0
LINE
  8
0
 10
27.1009
 20
32.8991
 11
27.1933
 21
32.9888
  0
LINE
  8
0
 10
27.1933
 20
32.9888
 11
27.2886
 21
33.0755
  0
LINE
  8
0
 10
27.2886
 20
33.0755
 11
27.3866
 21
33.1591
  0
LINE
  8
0
 10
27.3866
 20
33.1591
 11
27.4871
 21
33.2396
  0
LINE
  8
0
 10
27.4871
 20
33.2396
 11
27.5901
 21
33.317
  0
LINE
  8
0
 10
27.5901
 20
33.317
 11
27.6954
 21
33.391
  0
LINE
  8
0
 10
27.6954
 20
33.391
 11
27.8031
 21
33.4617
  0
LINE
  8
0
 10
27.8031
 20
33.4617
 11
27.9129
 21
33.529
  0
LINE
  8
0
 10
27.9129
 20
33.529
 11
28.0248
 21
33.5928
  0
LINE
  8
0
 10
28.0248
 20
33.5928
 11
28.1386
 21
33.6531
  0
LINE
  8
0
 10
28.1386
 20
33.6531
 11
28.2543
 21
33.7098
  0
LINE
  8
0
 10
28.2543
 20
33.7098
 11
28.3717
 21
33.7628
  0
LINE
  8
0
 10
28.3717
 20
33.7628
 11
28.4907
 21
33.8121
  0
LINE
  8
0
 10
28.4907
 20
33.8121
 11
28.6112
 21
33.8576
  0
LINE
  8
0
 10
28.6112
 20
33.8576
 11
28.733
 21
33.8993
  0
LINE
  8
0
 10
28.733
 20
33.8993
 11
28.8561
 21
33.9372
  0
LINE
  8
0
 10
28.8561
 20
33.9372
 11
28.9804
 21
33.9712
  0
LINE
  8
0
 10
28.9804
 20
33.9712
 11
29.1056
 21
34.0013
  0
LINE
  8
0
 10
29.1056
 20
34.0013
 11
29.2317
 21
34.0274
  0
LINE
  8
0
 10
29.2317
 20
34.0274
 11
29.3586
 21
34.0495
  0
LINE
  8
0
 10
29.3586
 20
34.0495
 11
29.4861
 21
34.0677
  0
LINE
  8
0
 10
29.4861
 20
34.0677
 11
29.6142
 21
34.0818
  0
LINE
  8
0
 10
29.6142
 20
34.0818
 11
29.7426
 21
34.0919
  0
LINE
  8
0
 10
29.7426
 20
34.0919
 11
29.8712
 21
34.098
  0
LINE
  8
0
 10
29.8712
 20
34.098
 11
30
 21
34.1
  0
LINE
  8
0
 10
30
 20
34.1
 11
30.1288
 21
34.098
  0
LINE
  8
0
 10
30.1288
 20
34.098
 11
30.2574
 21
34.0919
  0
LINE
  8
0
 10
30.2574
 20
34.0919
 11
30.3858
 21
34.0818
  0
LINE
  8
0
 10
30.3858
 20
34.0818
 11
30.5139
 21
34.0677
  0
LINE
  8
0
 10
30.5139
 20
34.0677
 11
30.6414
 21
34.0495
  0
LINE
  8
0
 10
30.6414
 20
34.0495
 11
30.7682
 21
34.0274
  0
LINE
  8
0
 10
30.7682
 20
34.0274
 11
30.8944
 21
34.0013
  0
LINE
  8
0
 10
30.8944
 20
34.0013
 11
31.0196
 21
33.9712
  0
LINE
  8
0
 10
31.0196
 20
33.9712
 11
31.1439
 21
33.9372
  0
LINE
  8
0
 10
31.1439
 20
33.9372
 11
31.267
 21
33.8993
  0
LINE
  8
0
 10
31.267
 20
33.8993
 11
31.3888
 21
33.8576
  0
LINE
  8
0
 10
31.3888
 20
33.8576
 11
31.5093
 21
33.8121
  0
LINE
  8
0
 10
31.5093
 20
33.8121
 11
31.6283
 21
33.7628
  0
LINE
  8
0
 10
31.6283
 20
33.7628
 11
31.7457
 21
33.7098
  0
LINE
  8
0
 10
31.7457
 20
33.7098
 11
31.8614
 21
33.6531
  0
LINE
  8
0
 10
31.8614
 20
33.6531
 11
31.9752
 21
33.5928
  0
LINE
  8
0
 10
31.9752
 20
33.5928
 11
32.0871
 21
33.529
  0
LINE
  8
0
 10
32.0871
 20
33.529
 11
32.1969
 21
33.4617
  0
LINE
  8
0
 10
32.1969
 20
33.4617
 11
32.3045
 21
33.391
  0
LINE
  8
0
 10
32.3045
 20
33.391
 11
32.4099
 21
33.317
  0
LINE
  8
0
 10
32.4099
 20
33.317
 11
32.5129
 21
33.2396
  0
LINE
  8
0
 10
32.5129
 20
33.2396
 11
32.6134
 21
33.1591
  0
LINE
  8
0
 10
32.6134
 20
33.1591
 11
32.7114
 21
33.0755
  0
LINE
  8
0
 10
32.7114
 20
33.0755
 11
32.8066
 21
32.9888
  0
LINE
  8
0
 10
32.8066
 20
32.9888
 11
32.8991
 21
32.8991
  0
LINE
  8
0
 10
32.8991
 20
32.8991
 11
32.9888
 21
32.8066
  0
LINE
  8
0
 10
32.9888
 20
32.8066
 11
33.0755
 21
32.7114
  0
LINE
  8
0
 10
33.0755
 20
32.7114
 11
33.1591
 21
32.6134
  0
LINE
  8
0
 10
33.1591
 20
32.6134
 11
33.2396
 21
32.5129
  0
LINE
  8
0
 10
33.2396
 20
32.5129
 11
33.317
 21
32.4099
  0
LINE
  8
0
 10
33.317
 20
32.4099
 11
33.391
 21
32.3045
  0
LINE
  8
0
 10
33.391
 20
32.3045
 11
33.4617
 21
32.1969
  0
LINE
  8
0
 10
33.4617
 20
32.1969
 11
33.529
 21
32.0871
  0
LINE
  8
0
 10
33.529
 20
32.0871
 11
33.5928
 21
31.9752
  0
LINE
  8
0
 10
33.5928
 20
31.9752
 11
33.6531
 21
31.8614
  0
LINE
  8
0
 10
33.6531
 20
31.8614
 11
33.7098
 21
31.7457
  0
LINE
  8
0
 10
33.7098
 20
31.7457
 11
33.7628
 21
31.6283
  0
LINE
  8
0
 10
33.7628
 20
31.6283
 11
33.8121
 21
31.5093
  0
LINE
  8
0
 10
33.8121
 20
31.5093
 11
33.8576
 21
31.3888
  0
LINE
  8
0
 10
33.8576
 20
31.3888
 11
33.8993
 21
31.267
  0
LINE
  8
0
 10
33.8993
 20
31.267
 11
33.9372
 21
31.1439
  0
LINE
  8
0
 10
33.9372
 20
31.1439
 11
33.9712
 21
31.0196
  0
LINE
  8
0
 10
33.9712
 20
31.0196
 11
34.0013
 21
30.8944
  0
LINE
  8
0
 10
34.0013
 20
30.8944
 11
34.0274
 21
30.7682
  0
LINE
  8
0
 10
34.0274
 20
30.7682
 11
34.0495
 21
30.6414
  0
LINE
  8
0
 10
34.0495
 20
30.6414
 11
34.0677
 21
30.5139
  0
LINE
  8
0
 10
34.0677
 20
30.5139
 11
34.0818
 21
30.3858
  0
LINE
  8
0
 10
34.0818
 20
30.3858
 11
34.0919
 21
30.2574
  0
LINE
  8
0
 10
34.0919
 20
30.2574
 11
34.098
 21
30.1288
  0
LINE
  8
0
 10
34.098
 20
30.1288
 11
34.1
 21
30
  0
LINE
  8
0
 10
34.1
 20
30
 11
34.098
 21
29.8712
  0
LINE
  8
0
 10
34.098
 20
29.8712
 11
34.0919
 21
29.7426
  0
LINE
  8
0
 10
34.0919
 20
29.7426
 11
34.0818
 21
29.6142
  0
LINE
  8
0
 10
34.0818
 20
29.6142
 11
34.0677
 21
29.4861
  0
LINE
  8
0
 10
34.0677
 20
29.4861
 11
34.0495
 21
29.3586
  0
LINE
  8
0
 10
34.0495
 20
29.3586
 11
34.0274
 21
29.2317
  0
LINE
  8
0
 10
34.0274
 20
29.2317
 11
34.0013
 21
29.1056
  0
LINE
  8
0
 10
34.0013
 20
29.1056
 11
33.9712
 21
28.9804
  0
LINE
  8
0
 10
33.9712
 20
28.9804
 11
33.9372
 21
28.8561
  0
LINE
  8
0
 10
33.9372
 20
28.8561
 11
33.8993
 21
28.733
  0
LINE
  8
0
 10
33.8993
 20
28.733
 11
33.8576
 21
28.6112
  0
LINE
  8
0
 10
33.8576
 20
28.6112
 11
33.8121
 21
28.4907
  0
LINE
  8
0
 10
33.8121
 20
28.4907
 11
33.7628
 21
28.3717
  0
LINE
  8
0
 10
33.7628
 20
28.3717
 11
33.7098
 21
28.2543
  0
LINE
  8
0
 10
33.7098
 20
28.2543
 11
33.6531
 21
28.1386
  0
LINE
  8
0
 10
33.6531
 20
28.1386
 11
33.5928
 21
28.0248
  0
LINE
  8
0
 10
33.5928
 20
28.0248
 11
33.529
 21
27.9129
  0
LINE
  8
0
 10
33.529
 20
27.9129
 11
33.4617
 21
27.8031
  0
LINE
  8
0
 10
33.4617
 20
27.8031
 11
33.391
 21
27.6954
  0
LINE
  8
0
 10
33.391
 20
27.6954
 11
33.317
 21
27.5901
  0
LINE
  8
0
 10
33.317
 20
27.5901
 11
33.2396
 21
27.4871
  0
LINE
  8
0
 10
33.2396
 20
27.4871
 11
33.1591
 21
27.3866
  0
LINE
  8
0
 10
33.1591
 20
27.3866
 11
33.0755
 21
27.2886
  0
LINE
  8
0
 10
33.0755
 20
27.2886
 11
32.9888
 21
27.1933
  0
LINE
  8
0
 10
32.9888
 20
27.1933
 11
32.8991
 21
27.1009
  0
LINE
  8
0
 10
32.8991
 20
27.1009
 11
32.8066
 21
27.0112
  0
LINE
  8
0
 10
32.8066
 20
27.0112
 11
32.7114
 21
26.9245
  0
LINE
  8
0
 10
32.7114
 20
26.9245
 11
32.6134
 21
26.8409
  0
LINE
  8
0
 10
32.6134
 20
26.8409
 11
32.5129
 21
26.7604
  0
LINE
  8
0
 10
32.5129
 20
26.7604
 11
32.4099
 21
26.683
  0
LINE
  8
0
 10
32.4099
 20
26.683
 11
32.3045
 21
26.609
  0
LINE
  8
0
 10
32.3045
 20
26.609
 11
32.1969
 21
26.5383
  0
LINE
  8
0
 10
32.1969
 20
26.5383
 11
32.0871
 21
26.4709
  0
LINE
  8
0
 10
32.0871
 20
26.4709
 11
31.9752
 21
26.4071
  0
LINE
  8
0
 10
31.9752
 20
26.4071
 11
31.8614
 21
26.3469
  0
LINE
  8
0
 10
31.8614
 20
26.3469
 11
31.7457
 21
26.2902
  0
LINE
  8
0
 10
31.7457
 20
26.2902
 11
31.6283
 21
26.2372
  0
LINE
  8
0
 10
31.6283
 20
26.2372
 11
31.5093
 21
26.1879
  0
LINE
  8
0
 10
31.5093
 20
26.1879
 11
31.3888
 21
26.1424
  0
LINE
  8
0
 10
31.3888
 20
26.1424
 11
31.267
 21
26.1007
  0
LINE
  8
0
 10
31.267
 20
26.1007
 11
31.1439
 21
26.0628
  0
LINE
  8
0
 10
31.1439
 20
26.0628
 11
31.0196
 21
26.0288
  0
LINE
  8
0
 10
31.0196
 20
26.0288
 11
30.8944
 21
25.9987
  0
LINE
  8
0
 10
30.8944
 20
25.9987
 11
30.7682
 21
25.9726
  0
LINE
  8
0
 10
30.7682
 20
25.9726
 11
30.6414
 21
25.9505
  0
LINE
  8
0
 10
30.6414
 20
25.9505
 11
30.5139
 21
25.9323
  0
LINE
  8
0
 10
30.5139
 20
25.9323
 11
30.3858
 21
25.9182
  0
LINE
  8
0
 10
30.3858
 20
25.9182
 11
30.2574
 21
25.9081
  0
LINE
  8
0
 10
30.2574
 20
25.9081
 11
30.1288
 21
25.902
  0
LINE
  8
0
 10
30.1288
 20
25.902
 11
30
 21
25.9
  0
LINE
  8
0
 10
30
 20
25.9
 11
29.8712
 21
25.902
  0
ENDSEC
  0
SECTION
  2
OBJECTS
  0
DICTIONARY
  0
ENDSEC
  0
EOF
